<?xml version="1.0" encoding="UTF-8"?><svg id="OG" xmlns="http://www.w3.org/2000/svg" viewBox="0 0 512 512"><defs><style>.cls-1{fill:#fff;}.cls-2{fill:#231f20;}</style></defs><circle class="cls-1" cx="256" cy="256" r="256"/><g><path class="cls-2" d="m97.72,383.79h-8.81c-.91.96-2.43.96-3.34.96h-2.43c1.82-2.56,5.77-2.56,8.2-2.56v-2.56h-26.13c.91,0,3.34-1.6,3.95-1.6.91,0,1.22.64,2.43-.96h-5.47l-.91,1.6c-.91-2.24-5.47-2.24-7.29-2.24l-.61.64h-7.6c1.22-4.17,13.06,0,14.58-4.17-4.56.96-2.13-.96-6.38-.96l-.61.96h-.91s-.61-.96-.61-1.6h-12.46l1.52-.96h9.11c-.61,0-4.25-1.6-4.25-1.6-3.65,0-4.86.96-8.51.96v-.96l12.76-1.6,1.82-1.92c-.91-1.92-6.08,0-7.29-1.92h23.09c2.43-1.28,17.32-2.56,17.92-5.13h-1.52v-1.28h10.33v1.28c0-1.28,7.29-4.17,8.51-4.17l-.3.32h1.52c.91,0,2.43-.32,2.73-.32l-1.52-.96,2.43-1.6c-.91,1.6,1.52,1.6,1.52,1.6,4.56-1.92,26.73-1.92,19.14-9.29v-.96c5.77,7.05,27.95-7.69,31.6-14.1h-2.43l4.25-1.28-4.25-2.24c5.77-4.16,8.2-6.73,8.2-14.74,0-23.07-46.79-25.63-62.89-25.63-6.08,0-11.54.32-17.92.32-23.7,0-47.7-11.21-66.53-25.63-6.68-10.25-20.35-19.22-20.35-33.32v-16.66c0-10.89,34.94-69.84,46.48-62.79,26.43-12.17,55.6-9.61,74.43-18.9h-5.77c2.43-.96,4.25-.96,6.38-.96,3.34,0,4.25,1.92,6.38,1.92h1.82l1.52-.96.91.96h25.82v-1.92c2.43,0,3.34,1.92,5.77,1.92,1.52,0,3.04,0,4.25-.96,0-.96-1.22-.96-2.43-.96,0-.64,2.43-2.56,3.65-2.56,1.22,5.13,7.29,4.48,10.94,4.48v.64h7.9c.91-.64,3.04-2.56,3.95-2.56,0,2.56,3.95,6.73,3.95,10.25,0,2.56-2.43,3.2-3.04,5.13,0,7.05,20.35,8.33,20.35,13.78-2.73,0-2.73.96-6.38,2.24h-.91l-1.52-1.28-.3,1.28h-.91c-5.47,0-9.72-7.69-16.1-7.69,0,5.13,2.43,2.88,7.29,6.41l-.91,1.28v.32h5.77c-.91,1.6-1.52,1.6-2.43,1.6-2.43,0-5.77-.64-7.9-.64h-.91c4.86,3.2,12.76,2.56,17.92,6.73l-2.73.64v-.64c-3.65,0-7.9-2.56-11.24-2.56h-.91c0,.96,1.82,2.56,1.82,2.56v.64l-.91.96c0,2.56,1.52,4.17,4.86,3.52,0,3.2-4.86,0-4.86,3.2,0,4.17,5.77,5.13,5.77,8.01v1.28l-.91.96c-2.43,0-3.34-2.56-5.77-2.56-1.52,0-2.13.32-3.95.32-6.99,0-14.28-3.84-21.87-3.84h-5.77l-1.52.96c2.43.32,12.46,1.6,12.46,4.16,0,.96,0,1.28-.3,1.28-10.63,0-20.96-6.41-30.08-6.41-7.9,0-14.28,3.84-22.48,3.84h-.61l.61-.32c-12.76,0-21.27,6.73-32.2,9.61,1.52,2.56,4.56,4.17,7.9,4.17h.61c.91,0,3.34-1.6,4.25-1.6h.61l-1.52,3.52c48.91,15.38,150.08,9.93,150.08,86.82h.91s.61,2.56.61,2.88c0,1.6.91,9.29.91,10.89,1.52,1.92,1.52,3.52,1.52,5.13,0,26.59-17.62,41.01-37.98,48.05-5.17,2.24-7.29,8.97-12.46,8.97h-1.22l-1.22-1.28v1.6c0,.96,0,2.56.91,2.56-3.34.96-5.77,1.6-8.81,2.56v-.96c-2.43,2.56-5.77,0-7.9,2.56h2.13c0,2.56-10.63,5.13-12.76,5.13h2.43c-2.73.96-5.17,5.77-10.03,5.77h-.61c1.52-.64,6.68-4.17,6.68-5.77-2.73,0-4.86,2.56-6.68,2.56s0-.96-1.82-2.56c-1.52,0-15.8,4.17-16.71,5.13l.91-2.56c.61,0,7.9,0,8.81-1.6h-12.46c-3.65,1.6-20.05,6.73-24,5.77l1.52,1.6c-.61.96-3.95,1.92-4.86,1.92l1.82,1.6-3.34,1.6v-1.28c-2.43,0-2.73,1.28-4.86,1.28,0-1.6-11.54-3.2-11.54-3.2l-1.52.64Zm-95.7-10.89c0-.96.91-.96.91,0s-.91.96-.91,0Zm3.34,1.6h-3.34l1.52-.64h.91l.91.64Zm-1.82-149.61h.91l-.91-6.73-.61-.96v1.28c0,1.28,0,6.41.61,6.41Zm1.82,138.72c-.91,0-.91-1.6,0-1.6.61,0,.61,1.6,0,1.6Zm.61,30.75c-.61,0-.61-1.6,0-1.6.91,0,.91,1.6,0,1.6Zm2.43-20.5h-1.52c0-.96.3-.96,1.52-.96v.96Zm-1.52,1.6c0-.96.3-.96.3,0s-.3.96-.3,0Zm.3,21.46c-.3,0-.3-1.6,0-1.6,1.22,0,1.22,1.6,0,1.6Zm1.22-27.23c-1.22,0-1.22-1.92,0-1.92.91,0,.91,1.92,0,1.92Zm7.29-2.56c-1.21,0-1.21-.96,0-.96.3,0,.3.96,0,.96Zm10.63,24.67c-.61,0-.61-1.6,0-1.6.91,0,.91,1.6,0,1.6Zm.91-24.03c-.91,0-.91-1.6,0-1.6s.91,1.6,0,1.6Zm0,3.52c-.91,0-.91-1.6,0-1.6s.91,1.6,0,1.6Zm1.52.64c0-.64.91-.64.91,0,0,.96-.91.96-.91,0Zm.91,17.94c0-.96,1.52-.96,1.52,0,0,.32-1.52.32-1.52,0Zm1.52-11.85c-.61,0-.61-1.6,0-1.6.91,0,.91,1.6,0,1.6Zm.91,20.5c-.91,0-.91-1.6,0-1.6.61,0,.61,1.6,0,1.6Zm1.52-21.46h-.91l1.82-.64-.91.64Zm.91-8.33c0-.96.61-.96.61,0s-.61.96-.61,0Zm2.43,8.33h-1.82l1.82-.64v.64Zm-.91-1.6c-.91,0-.91-1.6,0-1.6s.91,1.6,0,1.6Zm.91-5.77c-.91,0-.91-1.92,0-1.92.61,0,.61,1.92,0,1.92Zm0-8.97c0-1.28.61-1.28.61,0,0,.32-.61.32-.61,0Zm.61,21.46c-.61,0-.61-1.6,0-1.6.91,0,.91,1.6,0,1.6Zm.91-13.46c-.91,0-.91-1.6,0-1.6.3,0,.3,1.6,0,1.6Zm0,8.33c-.91,0-.91-1.6,0-1.6.3,0,.3,1.6,0,1.6Zm.3-13.46h-.3l1.52-.32-1.21.32Zm1.21,13.46c-1.21-.64,6.08-.64,5.17,0-.3.96-4.25.96-5.17,0Zm0-2.56c0-.64,1.22-.64,1.22,0,0,.96-1.22.96-1.22,0Zm3.34-10.89h-2.13l1.22-.32.91.32Zm-.91-213.04c-1.22,0-1.22-1.6,0-1.6.91,0,.91,1.6,0,1.6Zm4.86,213.04h-1.22v-.32l1.22.32Zm0,13.46c-1.22,0-1.22-.64,0-.64.3,0,.3.64,0,.64Zm1.22-9.93c-.91,0-.91-1.92,0-1.92,1.21,0,1.21,1.92,0,1.92Zm0,22.75c-.91,0-.91-2.24,0-2.24,1.21,0,1.21,2.24,0,2.24Zm0,4.16c-.91,0-.91-2.24,0-2.24,1.21,0,1.21,2.24,0,2.24Zm1.21-2.56h-1.21l1.21-1.28v1.28Zm0-10.89c-1.21,0-1.21-1.92,0-1.92.3,0,.3,1.92,0,1.92Zm1.22-5.12c-.91,0-.91-1.6,0-1.6.61,0,.61,1.6,0,1.6Zm0-9.29c-.91-.96,3.95-.96,3.04,0-.61.96-2.43.96-3.04,0Zm1.52-222.33c-.91,0-.91-1.6,0-1.6s.91,1.6,0,1.6Zm3.95,223.29v.64l3.34-.64h-2.43c.61-.96,2.43-1.92,3.04-2.56h-.61c-1.82,0-3.34.64-3.34,2.56Zm3.34,12.49c0-.96.61-.96.61,0s-.61.96-.61,0Zm2.43-3.2c.61,0,.61-1.92,0-1.92-.91,0-.91,1.92,0,1.92Zm.61,9.93l-.61.96v-.96h.61Zm0-21.14c.91,0,.91-1.6,0-1.6-.61,0-.61,1.6,0,1.6Zm1.52,10.25c.91,0,.91-1.6,0-1.6-.61,0-.61,1.6,0,1.6Zm4.25-.96c.61,0,.61-1.6,0-1.6-.91,0-.91,1.6,0,1.6Zm1.52-13.46c-.91,0-.91-1.6,0-1.6.3,0,.3,1.6,0,1.6Zm.3,0c0-.32,1.22-.32,1.22,0,0,.96-1.22.96-1.22,0Zm2.13,17.62c.3,0,.3-1.6,0-1.6-.91,0-.91,1.6,0,1.6Zm.3-21.78c0-.32,1.21-.32,1.21,0,0,1.28-1.21,1.28-1.21,0Zm2.13,4.16c-.91,0-.91-1.6,0-1.6.3,0,.3,1.6,0,1.6Zm0,33c0-1.28.3-1.28.3,0,0,.32-.3.32-.3,0Zm1.82-35.56c-.3,0-.3-1.6,0-1.6.91,0,.91,1.6,0,1.6Zm2.43,22.75c-.3,0-.3-1.6,0-1.6.91,0,.91,1.6,0,1.6Zm0,8.65c-.3,0-.3-2.24,0-2.24.91,0,.91,2.24,0,2.24Zm.91-30.43l-.91,1.28.91-2.24v.96Zm2.43-2.56c.61,0,3.04,1.28,3.95,1.28h-4.86v-1.6l.91.32Zm6.99-2.56c-.61,0-2.13,1.28-3.04,1.28h-.91l-1.52-1.28h5.47Zm-2.13,23.71c.61,0,.61-1.6,0-1.6-.91,0-.91,1.6,0,1.6Zm.61,3.2h-.61v-.64l.61.64Zm1.52-3.2c.91,0,.91-1.6,0-1.6-.61,0-.61,1.6,0,1.6Zm0,3.2c-.61,0-.61-1.6,0-1.6.91,0,.91,1.6,0,1.6Zm.91,5.13c-.91,0-.91-1.6,0-1.6s.91,1.6,0,1.6Zm0-27.87c0,.96,2.43.96,2.43,0,0-.32-2.43-.32-2.43,0Zm.91,33c-.91,0-.91-1.6,0-1.6.61,0,.61,1.6,0,1.6Zm.61-1.6c-.61,0-.61-2.24,0-2.24.91,0,.91,2.24,0,2.24Zm.91-6.73c.91,0,.91-1.92,0-1.92s-.91,1.92,0,1.92Zm2.43-1.92c1.52,0,7.9-1.6,7.9-2.56h5.77c-.91-.64-2.43-.64-3.34-.64-4.86,0-7.9,1.6-12.76,1.6l2.43,1.6Zm-1.52-26.91c0-.32,1.52-.32,1.52,0,0,1.28-1.52,1.28-1.52,0Zm1.52,4.17c.61,0,.61-1.6,0-1.6-.91,0-.91,1.6,0,1.6Zm1.52,34.28c-.91,0-.91-1.28,0-1.28s.91,1.28,0,1.28Zm.91-37.16c-.91,0-.91-1.6,0-1.6.61,0,.61,1.6,0,1.6Zm0,38.44c-.91,0-.91-2.24,0-2.24.61,0,.61,2.24,0,2.24Zm1.52-3.84c-.91,0-.91-1.28,0-1.28s.91,1.28,0,1.28Zm0-2.56c0-.32.91-.32.91,0,0,1.28-.91,1.28-.91,0Zm.91-1.28c-.91,0-.91-1.6,0-1.6.61,0,.61,1.6,0,1.6Zm1.52-9.29c.91,0,.91-1.6,0-1.6s-.91,1.6,0,1.6Zm0,13.13c-.91,0-.91-1.28,0-1.28s.91,1.28,0,1.28Zm.91-34.6h-.91l.91-1.28v1.28Zm-.91,36.2c2.43-1.6,2.43-.32,5.17-.32,0-3.84,1.21-1.28,2.13-4.17-.91,1.6,1.52,1.6,1.82,1.6,3.34,0,6.38-3.84,8.81-3.84v2.24c1.82-.96,2.43-.96,3.95-.96v.96c-.61,0-2.13.32-2.13,1.6h.61c.91,0,3.95-1.28,4.86-1.28h.91l-.91,1.28h2.43c0,1.28-2.43,2.56-3.95,2.56v-1.6c-1.82,0-2.43.32-1.82,1.92l-5.47.96v-.96h-16.41Zm.91-8.65c.61,0,.61-.96,0-.96-.91,0-.91.96,0,.96Zm0,17.3c-.91,0-.91-1.92,0-1.92.61,0,.61,1.92,0,1.92Zm0-15.38c0-.32.61-.32.61,0,0,1.28-.61,1.28-.61,0Zm.61-8.01c.91,0,.91-1.6,0-1.6-.61,0-.61,1.6,0,1.6Zm0-185.17v-.32l1.22-1.28h1.22l-2.43,1.6Zm0,197.98c0-.96,1.22-.96,1.22,0,0,.32-1.22.32-1.22,0Zm.91-202.15c-.91,0-.91-1.28,0-1.28.3,0,.3,1.28,0,1.28Zm.3,198.62c0-1.28,1.22-1.28,1.22,0,0,.96-1.22.96-1.22,0Zm1.22-9.29c.91,0,.91-1.6,0-1.6-1.22,0-1.22,1.6,0,1.6Zm.91,5.13h1.52c1.22,0,2.43,0,3.65-.96h-1.22c-1.52,0-3.65,0-3.95.96Zm.3,5.45c-.3,0-.3-1.28,0-1.28,1.21,0,1.21,1.28,0,1.28Zm2.43,3.84c1.22,0,1.22-1.6,0-1.6-.3,0-.3,1.6,0,1.6Zm3.65-8.33c-1.21,0-2.43.64-3.65.64h3.95v-.64h-.3Zm-2.43-5.13h.3l.91-.96-1.22.96Zm2.73-.96c.91,0,.91-1.6,0-1.6-.3,0-.3,1.6,0,1.6Zm0,3.52c.91,0,.91-1.92,0-1.92-.3,0-.3,1.92,0,1.92Zm.91-257.89c0-.32,1.22-.32,1.22,0,0,.96-1.22.96-1.22,0Zm1.22,261.09q.3,0,.3-.64c0-.96-1.52.64-.3.64Zm0-255.97c0-.96.3-.96.3,0s-.3.96-.3,0Zm0,253.4h1.82c0-1.6,2.43-3.2,4.25-3.2h-.91c-1.52,0-3.34,0-3.95,1.6l-.91-1.6c-.3.64-.3,2.56-.3,3.2Zm1.22-29.79c-.91,0-.91-2.24,0-2.24.61,0,.61,2.24,0,2.24Zm2.43,38.44c.61,0,.61-2.24,0-2.24-.91,0-.91,2.24,0,2.24Zm.61,1.92c.91,0,.91-1.6,0-1.6-.61,0-.61,1.6,0,1.6Zm1.82-209.51c.61,0,.61-2.24,0-2.24-.91,0-.91,2.24,0,2.24Zm0,202.79c-.91,0-.91-1.28,0-1.28.61,0,.61,1.28,0,1.28Zm0,11.85c-.91,0-.91-1.6,0-1.6.61,0,.61,1.6,0,1.6Zm1.52-49.01c-.91,0-.91-1.6,0-1.6.61,0,.61,1.6,0,1.6Zm0,28.51c.61,0,.61-1.92,0-1.92-.91,0-.91,1.92,0,1.92Zm0,6.73c-.91,0-.91-1.92,0-1.92.61,0,.61,1.92,0,1.92Zm0-203.11c0,1.28.61,1.28.61,0,0-.32-.61-.32-.61,0Zm4.86,202.15c.61,0,4.56.96,5.47.96-3.34.64-6.38,1.6-8.81,1.6h-1.52c0-1.6,1.52-2.56,3.04-2.56h1.82Zm-2.43-253.4l-1.82.64h.91l1.52-.64h-.61Zm-1.82,248.28c0,.96.91.96.91,0,0-.64-.91-.64-.91,0Zm.91,5.13c-.91,0-.91-1.6,0-1.6s.91,1.6,0,1.6Zm1.52-30.75c.91,0,.91-2.24,0-2.24-.61,0-.61,2.24,0,2.24Zm0,27.23c.91,0,.91-1.6,0-1.6-.61,0-.61,1.6,0,1.6Zm1.82-31.4c-.91,0-.91-1.92,0-1.92.61,0,.61,1.92,0,1.92Zm0,3.2l.61-1.28h-.61v1.28Zm.61-5.77c-.61,0-.61-1.92,0-1.92.91,0,.91,1.92,0,1.92Zm0,31.72h.91l.61-.96-1.52.96Zm.91,5.77c-.91,0-.91-1.6,0-1.6.61,0,.61,1.6,0,1.6Zm.61-34.92c-.61,0-.61-1.92,0-1.92.91,0,.91,1.92,0,1.92Zm1.82,29.15c.61,0,.61-1.92,0-1.92-.91,0-.91,1.92,0,1.92Zm0,11.21c-.91,0-.91-1.28,0-1.28.61,0,.61,1.28,0,1.28Zm0,2.24c-.91,0-.91-2.24,0-2.24.61,0,.61,2.24,0,2.24Zm1.52-3.52c-.91,0-.91-1.6,0-1.6s.91,1.6,0,1.6Zm0-5.77c0-.96.91-.96.91,0,0,.64-.91.64-.91,0Zm.91-3.52c0-.64,1.52-.64,1.52,0,0,.96-1.52.96-1.52,0Zm.61-4.17c0,.96,2.43.96,2.43,0s-2.43-.96-2.43,0Zm1.22,10.89l2.13.96.3.32c2.13,0,3.95-.32,3.95-1.92l2.43,1.6c5.77,0,8.81-4.17,13.67-4.17h1.52c-1.52,3.2-11.85,5.77-14.28,5.77h-.91l-1.52-1.28h-.91s-2.73,1.28-3.95,2.24h1.22c-1.52-.96-2.43-2.24-3.95-2.56l.3-.96Zm1.21,3.84h-1.52v-.32l1.52.32Zm-1.21-259.81c-.3,0-.3-1.6,0-1.6,1.21,0,1.21,1.6,0,1.6Zm0,255.33c-.3,0-.3-1.92,0-1.92,1.21,0,1.21,1.92,0,1.92Zm1.21-6.09c-1.21,0-1.21-1.6,0-1.6.91,0,.91,1.6,0,1.6Zm1.22,13.13h-.3l.3-.32v.32Zm0-13.13c-.3,0-.3-1.6,0-1.6,1.22,0,1.22,1.6,0,1.6Zm0,5.13c-.3,0-.3-1.6,0-1.6,1.22,0,1.22,1.6,0,1.6Zm1.22-9.29c.91,0,.91-1.6,0-1.6-1.22,0-1.22,1.6,0,1.6Zm0,.96c0,.64.91.64.91,0,0-.96-.91-.96-.91,0Zm.91,7.37c-.91,0-.91-1.6,0-1.6.3,0,.3,1.6,0,1.6Zm1.82-4.16c-.3,0-.3-1.6,0-1.6.91,0,.91,1.6,0,1.6Zm2.13-5.13c.3,0,.3-1.6,0-1.6-1.22,0-1.22,1.6,0,1.6Zm0,11.21c-1.22,0-1.22-1.92,0-1.92.3,0,.3,1.92,0,1.92Zm.3-2.56c-.3,0-.3-1.92,0-1.92.91,0,.91,1.92,0,1.92Zm3.95.64c-.61.96-1.82,2.56-3.04,2.56l-.91-.64c2.13-.96,2.43-1.92,3.95-1.92Zm-3.04-4.8c0-.96,1.21-.96,1.21,0,0,.64-1.21.64-1.21,0Zm1.21-248.6c-1.21,0-1.21-1.6,0-1.6.3,0,.3,1.6,0,1.6Zm2.73-5.45c-.91,0-.91-2.24,0-2.24s.91,2.24,0,2.24Zm0,2.88c-.91,0-.91-1.6,0-1.6s.91,1.6,0,1.6Zm0,256.93l.91-.96h.61l-1.52.96Zm1.52-3.52l-.61.96v-.96h.61Zm.91-252.44l-.91.64v-.64h.91Zm-.91,246.68c0,.96,1.82.96,1.82,0s-1.82-.96-1.82,0Zm.91-247.64c-.91,0-.91-1.6,0-1.6s.91,1.6,0,1.6Zm0,50.3c.91,0,.91-1.92,0-1.92s-.91,1.92,0,1.92Zm1.52,0c.91,0,.91-1.92,0-1.92-.61,0-.61,1.92,0,1.92Zm0,153.77c-.61,0-.61-1.6,0-1.6.91,0,.91,1.6,0,1.6Zm0-204.07c0-.96.91-.96.91,0s-.91.96-.91,0Zm0,259.49c0-.96,1.52-.96,1.52,0,0,.32-1.52.32-1.52,0Zm.91-16.02c.61,0,.61-1.6,0-1.6-.91,0-.91,1.6,0,1.6Zm0,10.89c-.91,0-.91-1.6,0-1.6.61,0,.61,1.6,0,1.6Zm0-252.76l.61-.64h.91l-1.52.64Zm1.52,48.69c.91,0,.91-1.92,0-1.92s-.91,1.92,0,1.92Zm0,152.17c.91,0,2.43-1.6,3.34-1.6h.61l-.61,1.28v.32l.61,1.6c-.61,0-2.43.96-3.04.96h-.91l1.52-1.6-1.52-.96Zm.91,41.97c0,.64,1.52.64,1.52,0,0-.96-1.52-.96-1.52,0Zm.61-242.83c-.61,0-.61-1.6,0-1.6.91,0,.91,1.6,0,1.6Zm0,241.87c.91,0,.91-1.6,0-1.6-.61,0-.61,1.6,0,1.6Zm0,9.29c0-.96.91-.96.91,0,0,.64-.91.64-.91,0Zm.91-5.13c0,.96,1.52.96,1.52,0s-1.52-.96-1.52,0Zm.91-247.64l.61-.96h.91l-1.52.96Zm.61,257.89c-.61,0-.61-.96,0-.96.91,0,.91.96,0,.96Zm0-13.46c0,.64.91.64.91,0,0-.96-.91-.96-.91,0Zm.91-.96c.61,0,.61-1.6,0-1.6-.91,0-.91,1.6,0,1.6Zm.61-192.54c.91,0,.91-1.6,0-1.6-.61,0-.61,1.6,0,1.6Zm1.82,195.1c0-.96,0-1.6-.91-1.6l-.91.64c0,.96.91.96,1.82.96Zm-.91,9.93l-.91.96.91-1.6v.64Zm0-15.06c.91,0,.91-1.6,0-1.6s-.91,1.6,0,1.6Zm.91,10.25c-.91,0-.91-1.92,0-1.92.61,0,.61,1.92,0,1.92Zm0-9.29c0,.64,1.52.64,1.52,0,0-.96-1.52-.96-1.52,0Zm.61,11.53h-.61l.61-.64h.91l-.91.64Zm0,2.56c0-.64.91-.64.91,0,0,.96-.91.96-.91,0Zm1.82-252.44c-.91,0-.91-1.92,0-1.92.61,0,.61,1.92,0,1.92Zm0,246.68c.61,0,.61-1.6,0-1.6-.91,0-.91,1.6,0,1.6Zm0-5.77c1.52,0,5.47-.96,6.38-2.56-2.13,0-6.38,0-6.38,2.56Zm0,1.6c0,.64.61.64.61,0,0-.96-.61-.96-.61,0Zm.61-6.09c0,.96,1.22.96,1.22,0,0-.64-1.22-.64-1.22,0Zm3.65,13.46l-1.22.96v-.96h1.22Zm-.3-5.77c.3,0,.3-1.6,0-1.6-.91,0-.91,1.6,0,1.6Zm1.52-1.6h2.73c2.13,0,5.77.64,6.38-1.6h-1.82l-1.22-.96-1.22.96v-.96c-2.43,1.6-2.43,0-4.86,2.56Zm.91,5.13c0,.64.3.64.3,0,0-.96-.3-.96-.3,0Zm1.82-205.03c0,.64.91.64.91,0,0-.96-.91-.96-.91,0Zm.91,195.74q1.21,0,1.21-.96c0-.96-2.13.96-1.21.96Zm2.43-239.31c-.91,0-.91-1.6,0-1.6,1.22,0,1.22,1.6,0,1.6Zm4.86,52.22c.61,0,.61-1.28,0-1.28-.91,0-.91,1.28,0,1.28Zm.61-53.18c-.61,0-.61-1.6,0-1.6.91,0,.91,1.6,0,1.6Zm0,240.27c.91,0,1.82-.96,2.43-1.92-.61,0-1.52.96-2.43,1.92Zm.91-211.44h1.52l-.61-1.28-.91,1.28Zm2.43-26.91c-.91,0-.91-1.92,0-1.92.61,0,.61,1.92,0,1.92Zm0,28.19l.61-.96h-.61v.96Zm.61,208.23c.91,0,.91-1.6,0-1.6-.61,0-.61,1.6,0,1.6Zm1.82-206.95v-1.28h-.91l.91,1.28Zm0,1.92c.61,0,.61-1.6,0-1.6-.91,0-.91,1.6,0,1.6Zm.61-33.32c-.61,0-.61-1.6,0-1.6.91,0,.91,1.6,0,1.6Zm.91,1.92c-.91,0-.91-1.92,0-1.92s.91,1.92,0,1.92Zm0,35.88c.91,0,.91-.96,0-.96s-.91.96,0,.96Zm1.52-6.09c.91,0,.91-1.6,0-1.6-.61,0-.61,1.6,0,1.6Zm0,8.33c.91,0,.91-1.6,0-1.6-.61,0-.61,1.6,0,1.6Zm.91-3.2c.61,0,.61-1.6,0-1.6-.91,0-.91,1.6,0,1.6Zm.61,4.16c.91,0,.91-1.6,0-1.6-.61,0-.61,1.6,0,1.6Zm.91,194.14l-.91,1.28,1.82-1.28h-.91Zm0-219.77c.91,0,.91-1.92,0-1.92s-.91,1.92,0,1.92Zm3.95,221.05v-1.28l-.61-.96h-.91l1.52,2.24Zm-.61-197.98c0-.64,1.52-.64,1.52,0,0,.96-1.52.96-1.52,0Zm1.52,9.29h-.91v-.96l.91.96Zm-.91,3.52c0-.96.91-.96.91,0,0,.64-.91.64-.91,0Zm12.15-.96c-3.65,0-10.33-.96-10.33-5.13,1.82,0,10.33,1.6,10.33,5.13Zm-9.72,42.93h-.61l.61-.32v.32Zm1.22-57.98c-.3,0-.3-.96,0-.96,1.22,0,1.22.96,0,.96Zm1.22,197.34c.91,0,.91-1.28,0-1.28-1.22,0-1.22,1.28,0,1.28Zm1.22,1.6l-.3.96v-.96h.3Zm1.21-2.88c.91,0,.91-1.28,0-1.28-1.21,0-1.21,1.28,0,1.28Zm1.22,5.45c-.3,0-.3-1.6,0-1.6,1.22,0,1.22,1.6,0,1.6Zm0-191.57c0-.64,1.52-.64,1.52,0,0,.96-1.52.96-1.52,0Zm1.22,189.97c-1.22,0-1.22-1.28,0-1.28.3,0,.3,1.28,0,1.28Zm4.86-5.45h-1.22l1.22-2.24v2.24Zm2.73-2.56l-.91.32-.61-.32h1.52Zm35.54-71.44c-.61,0-.61-1.28,0-1.28.91,0,.91,1.28,0,1.28Z"/><path class="cls-2" d="m482.33,428.32c-3.65,0-4.56-6.73-6.08-9.29l1.22-.96-1.52-.64.3-.96c0-3.52-1.21-3.52-2.73-3.52v3.52l-.91-.96c0-.64-2.43-4.8-2.43-5.77v-.96l.91-1.6c0-5.13,0-1.6-1.52-1.6v.64c-.91,0-1.82-.64-1.82-1.92s.91-1.28,1.82-1.28v-.96c0-4.16-8.81-17.94-8.2-23.07l1.82-1.6v-.96l-.91-.96-1.52.96c-.91-1.6-2.43-7.69-2.43-9.29l.61-.96c-4.56-2.56-5.47-13.13-7.9-17.94,0,2.24-2.73,2.24-3.95,2.24,0-3.2,1.22-1.6,3.65-4.17v-.64l-1.21-1.92c-.91.96-1.21,1.92-1.21,2.56l-1.22-.64v-.96l1.52-1.6v-.96h-.3c-1.22,0-2.43,1.6-2.43,2.56,0-1.6,0-5.13-1.52-5.77,1.52,1.6-2.43,1.6-2.43,2.56v.64c0,.96,1.52,4.16,1.52,5.12v-4.16h1.22v4.16l1.52-.96-.3,1.92.3,2.24c0,3.52-1.52.96-1.82.96v4.17c0-1.6.3-1.6,1.52-1.6h.3c0,.96.91,4.17.91,5.13v.32s-2.73,2.56-2.73,3.84c-.91-6.41-5.77-14.42-7.29-19.54v3.52c-.91,0-1.52-1.6-1.52-1.6v-.96l.61-1.6v-.96s-1.52-1.6-1.52-2.56l-1.52.96-.91-.96.91-1.6v-.96l-.91-.64h-.61l-.91.64h-.91c0-.64,0-1.6.91-1.6h-1.52s-.91,2.56-.91,4.16v5.13l-1.52-2.56c-1.52,0-.91,3.52-.91,4.16-1.52,0-4.86-11.21-4.86-12.49,3.34,0,4.25,5.13,4.25,7.69h.61v-6.41c.91-1.28,1.52-2.24,1.52-3.84,0-.96-1.52-3.84-1.52-5.13v2.56l-3.04-2.56v-8.97c0-.64-.91-1.6-1.82-2.24.91,3.2-1.52,4.16-.61,7.37l-1.21-1.6v5.45l1.21-.32v6.73c-1.21-5.12-3.65-10.25-6.08-14.42v1.6c0,1.92,2.43,10.25,2.73,11.53l.91,1.6-.91.96c-2.43-5.12-5.17-10.25-5.17-15.7v-1.6l1.22.64v-.64c0-3.52-1.22-10.25-4.86-12.81v.96c0,2.56,2.13,5.77,2.13,8.33-6.38,0-9.72-40.04-15.19-40.04h-1.82l.91-1.6v-.96c-3.95,3.52-20.35,4.49-20.35,10.25h-3.95c2.43-.96,10.33-6.73,15.49-8.33h-2.43c-2.43,0-10.63,1.6-13.06,2.56-6.38,4.16-13.67,4.8-18.84,12.49.3,0,3.65-1.6,4.25-1.6h.91c-1.52,3.2-7.29,2.56-8.81,5.77,0,0,1.21,6.41-.3,8.01l1.52.96-1.21,1.28v1.92c0,15.38,7.9,29.15,7.9,44.53v2.24l-.61-1.6c-2.43.96.61,3.52-1.22,4.16,0-1.6-1.21-3.2-2.13-4.8,0,.64-.3,2.24-1.52,2.24s-1.21-1.6-2.43-2.24v1.6c0,1.6,0,2.56,1.21,4.16l.3-1.6c2.13,0,3.34,1.6,3.34,3.2h-.91l-1.52-.64-1.21.64,1.21,1.28c-1.21,0-.91,2.56-.91,3.84,0,.96,0,2.56,2.13,2.88l-2.13.96c-.3,0-3.95-8.01-2.73-9.61-1.21.64-1.52,1.6-1.52,1.92,0,3.84,2.43,8.97,2.43,11.85-4.86,0-2.43-16.34-8.2-18.26l-.61-.64v1.6c0,5.45,2.43,10.57,2.43,15.7v1.6c-3.34.96,0-5.13-3.34-5.13h-.91l1.82,2.56v4.81c-.91-1.28-2.43-2.56-2.43-3.84v-.96l-.91-.32-1.52,5.13c-.91-5.13-3.95-5.13-3.95-9.29,0,4.48-3.95,4.48-3.34,9.61-.61-1.6-1.52-2.56-1.52-4.17v9.29c-.91,0-1.52,0-1.52-1.6l.61-.96c0-5.12-3.04-8.01-3.04-14.42-2.43,0,0-1.28-2.43-2.56l1.52-.32h.91s1.22.32,1.22,1.6c.3-1.28,1.21-1.6,1.21-3.2,0-2.56-2.43-1.92-2.43-4.49l-1.21,5.13c-2.13,0-1.21-2.56-1.21-3.2-1.22,0-1.22-.96-2.73.64v-1.6c-2.13,0-2.13-.96-2.13-2.56h1.21v.96c.91,0,1.22.64,1.22-.96s-2.43-5.13-1.22-6.73l-1.21.96v4.16c-1.21,0-2.43-3.52-2.43-4.16l2.43-1.6c0-1.92-1.21-5.13-2.43-6.41,0,0-1.82.32-1.82,1.28v5.77h.61l.91-1.6h.3l-.3,2.56v.64c0,6.73,4.86,20.82,5.17,24.99h-1.22c0-5.45-4.86-12.17-3.95-17.3-.91.96-1.52,1.6-3.34,1.6v.96h1.82v2.56l-.91-.96v1.28c0,2.56,0,1.28.91,4.81.61,1.6,1.52,5.45,1.52,5.45l-1.52,1.28v1.28c0,5.12,1.82,9.29,3.04,14.42v.64c-7.29-4.17-27.95-72.4-30.68-82.97-2.13,0-7.29-2.24-8.2-3.84,0-.96,0-1.28.91-1.28h-13.67v-1.28c-.61,4.16-6.38-.32-6.38,3.84v.32c.91-.32,3.34-.32,4.86-.32v.32l1.52-.32h.91c-.91,1.28-2.43,4.49-3.95,4.49h-.91l.91-1.6h-.91c-3.95,0-6.38,5.13-9.11,5.13h-2.13l-1.82-.96-.91.96h-.91c-.61,0-2.43,0-2.43-.96v-.64l.91-1.92v-.64h-.91c0,2.56-11.85,2.56-14.58,5.13.3-.96-1.21-1.92-2.13-1.92-.3,0-1.52,0-2.43,1.92l-.3-1.92-1.52,1.92c0,.64.3,2.24,1.82,2.24-.3,0-1.82.96-2.73.96h-1.22s-2.43-3.2-2.73-4.16h-.91l-.61.96h-5.77c0-2.56-1.52-6.09-3.95-7.69v-10.25c2.43-.32-.91-2.88,1.52-3.84l-.61-.64-1.82.64c.91-.64.91-2.56.91-3.2h3.95v-2.56h-.61l-2.43.96c-.91,0-.91-2.56-.91-2.56,0-2.56,6.38-11.85,8.81-10.57,1.52-4.81,1.52-8.97,6.38-8.97,0,2.56-1.22,2.56-1.22,4.17,2.13,0,2.13-2.56,3.65-2.88h.3c-1.52.32-1.52,1.28-1.52,2.56v.32c1.21-.32,8.81-9.29,9.72-9.29-.91,1.28-.91,2.24-.91,2.56v1.28c2.43-1.6,3.34-1.6,3.34-5.13,1.52,0,3.04.96,4.56.96,8.2,0,16.41-4.17,25.22-4.17-5.47-22.1-21.27-39.4-27.65-60.87-.61,0-1.52,0-1.52-1.28l.91-.32c0-4.16-2.43-9.29-3.95-12.81v-.64c0-6.09,7.9-19.86,12.76-24.03,2.43-1.92,7.9-6.73,7.9-6.73v-4.48l1.22.96s2.43-1.6,3.65-2.56l.3-.64-.3-2.56.3-.96c0,.96,2.13,2.56,2.43,2.56,3.95.96,20.05-5.13,24.91-6.73v-.96c0-.32-2.43-6.73-2.43-7.05v-.96c1.52,1.28,7.6,8.01,7.6,10.57,0,.96-.91.96-.91,2.56,0,4.16,4.86,11.85,8.81,11.85-.61,0-1.52.64-1.52,1.6,0,5.13,8.81,10.25,8.81,14.42,0,1.28-.91,1.28-.91,2.56,0,10.57,12.15,21.46,16.41,32.04v-2.56c.91,0,2.13,1.28,2.13,1.6.3.96,2.43,6.09,2.43,6.73v.96h-1.22c0,1.6,3.95,21.46,4.86,21.46l1.52-.32c1.52,0,1.52.32,1.52,1.6,0,.96,0,1.28-.61,1.28l.61,1.28-.61,2.88c0,2.24,0,2.56,1.52,2.56h.61c3.34-.32,17.32-5.13,20.96-5.45.3,0,2.73-1.28,2.73-1.6,3.95,0,7.29-4.81,12.76-3.52-.61-1.6,9.72-2.56,9.72-7.69,0-20.5-27.65-73.36-33.72-101.55,1.21-5.77-1.82-12.49-1.82-18.58v-.32c3.95,0,3.95-2.24,6.68-2.24,0-1.6-.3-2.88-2.43-2.88,0-1.28,0-2.56,1.21-2.56,1.22.96,2.73,3.52,2.73,5.13,0,.32-.3,1.28-1.52,1.28l1.52,1.28c3.34,0,2.43-2.56,3.34-5.13-.91.96-1.21-1.28-1.21-1.6,0-2.56,1.21-3.52,3.65-3.52l1.52.96v-.96c0-1.6-.91-3.2-2.43-4.16l1.52-.96h.91c5.47,1.92,1.52,0,2.43,1.92l.91.64s1.52-.64,2.13-.64l1.82-.96.61.96v.64c1.82,0,3.34-2.56,5.77-3.2h-3.34c0-1.6,2.43-.96,2.43-3.52l.91.96v-2.56h-2.43c.61,0,3.95-4.17,3.95-4.17,1.52,0,2.43,1.6,2.43,3.2.3-3.2,2.73-4.81,6.38-4.81l.3.64h.91l1.52-.64v-.96l-.3-2.56c0-2.56,8.51,0,4.25-5.13,1.82,2.24,4.25.96,5.77.96v-.96l-1.52-2.56c.61-.32,1.52-.32,2.13-.32,13.06,0,48.61,111.48,52.86,130.07,0,.64,2.13.64,2.43.64-.3.96-.3,1.28-.3,2.56v.96c0,1.6,1.21,4.48,1.21,4.48h2.43c4.86-1.6,18.23-6.73,24.3-6.73,0,0,1.52,0,1.52,1.28-.3-1.6,2.13-1.6,2.43-1.6h2.13l-2.13.32h.91c4.86,0,9.42-1.92,15.19-1.92l.91,1.6v.32c-1.82,2.24-.91,2.56-2.43,4.81h.61c2.43,0,4.86-2.24,7.29-2.24-.91,2.24-6.38,3.84-7.9,4.16l.61.96c-3.95,5.13-10.33,8.33-15.49,10.89h.3c3.95,0,7.29-3.2,11.24-3.2h.91c-3.34,2.56-1.82,1.6-6.38,4.16l.61.64,1.82-.64v1.6c0,2.56-12.46,7.69-14.58,10.89h1.21c1.21,0,4.86-1.6,7.29-2.56,0,2.56-11.24,3.84-11.24,6.41,0,1.28.3,2.24,1.52,2.56-1.52,1.28-5.47,1.6-6.38,3.84h7.29c-2.13,1.28-5.77,4.48-7.29,8.01v.96l4.86-1.92c-1.52,1.92-3.95,3.52-4.86,6.09h2.43c.91,0,6.38-1.92,7.29-1.92h.3l-.3.96c-.91,0-4.56,1.6-4.86,1.6h2.43c1.52-.64,10.03-2.56,11.54-3.2,0,3.2-16.41,7.37-16.41,9.93v1.92c9.11,25.63,26.73,61.51,26.73,89.7v1.6l-.61,1.92c.61,2.56,3.04,4.17,3.04,7.37v.96c-.61-.96-2.43-3.52-2.43-4.16v.64c0,2.56.91,4.49.91,6.41,0,0-1.52,2.24-2.43,2.24h-.91v1.6l2.43-1.6h.91v4.49s-1.52-.32-2.43-.32c-2.43,0-3.34,2.56-3.34,5.13l-2.13-5.13-1.82,1.28-.61-1.28,1.52-1.28v-.32c0-2.24-4.86,0-2.43-3.52-1.52,0-2.43,1.28-2.43,3.52l.91.32-1.22,1.28,1.22.32-.91.96c0,1.28-1.52,4.17-1.52,5.13h1.21c.3,0,2.73-.96,2.73-2.56h1.52c0,2.56-2.43,4.17-3.95,4.17-2.43,0-2.73-1.6-4.86-1.6h-.3c0,1.28.3,2.56.3,3.2v.96l-.3.96.3.64c-.3,0-.3,1.92-.3,1.92,0,.64,0,2.24.3,2.24-.3,0-3.95.96-3.95,1.92v.64c0,.96,1.21,3.52,1.21,4.16.91,0,2.43-.64,2.73-.64h.91v.64h-.91v1.92h4.56l-1.21,1.6c-2.43,2.56-2.43-2.56-2.43,4.16l-1.21-3.2c-1.22.64-1.22,1.92-2.43,1.92v-.32h-1.21c0,1.6,1.21,1.6,1.21,4.17v1.28c-1.52-1.28-3.65-5.45-3.65-7.05-1.22,1.6-1.82.64-3.65.64v1.28c1.82,0,3.65,0,3.65,2.56-.3,0-1.82,1.28-1.82,2.24,0,1.6.61,2.88,1.52,4.48v-5.45c1.52,0,1.52,2.88,1.52,2.88h6.08v4.81c-1.21,0-2.73,1.28-3.65,2.88,2.73-.96,1.21,4.17,4.86,4.17l.3-.64h.91c1.52,0,1.52,5.77,1.52,6.73h-2.43v.64l.91,1.6c0,.96-.91,1.92-1.22,2.56,2.43-.64,2.43,1.92,2.73,3.52v-4.17h1.52c0,1.6,1.82,3.2,1.82,4.49-1.82,0-3.34,2.56-3.65,4.81l-2.13-2.24,2.13-.32Zm-280.11-118.53c-.91,0-.91-.96,0-.96s.91.96,0,.96Zm1.52,2.56c-.61,0-.61-1.92,0-1.92.91,0,.91,1.92,0,1.92Zm.91-40.04h-.91l.91-.96h.91l-.91.96Zm0,23.07c0,1.28,1.52,1.28,1.52,0,0-.32-1.52-.32-1.52,0Zm.91-3.84c.61,0,.61-1.6,0-1.6-.91,0-.91,1.6,0,1.6Zm0,22.43c-.91,0-.91-.96,0-.96.61,0,.61.96,0,.96Zm2.13-16.02v-.96h-1.52c0,.96.91.96,1.52.96Zm1.82,1.28c.61,0,.61-2.24,0-2.24-.91,0-.91,2.24,0,2.24Zm.61-33.32h-.61v-1.28l.61,1.28Zm-.61,5.45h1.52l-1.52-1.6v1.6Zm2.43,34.28c.61,0,1.82-.96,1.82-.96-.3,0-1.82-.96-2.73-.96h-1.52c.61.96,1.52,1.92,2.43,1.92Zm-1.82-3.52c.91,0,.91-1.6,0-1.6-.61,0-.61,1.6,0,1.6Zm2.43-4.17c0,1.28,1.22,1.28,1.22,0,0-.96-1.22-.96-1.22,0Zm.91-37.16c-.91,0-.91-1.6,0-1.6.3,0,.3,1.6,0,1.6Zm1.52,9.61c0,.96,1.22.96,1.22,0,0-.64-1.22-.64-1.22,0Zm.91,2.56c0,.96.3.96.3,0,0-.64-.3-.64-.3,0Zm0,29.15h.3v-.32h-.3v.32Zm.3,2.56h1.22c2.43,0,8.51-.96,8.51-2.56,4.86.96,6.99-.32,11.24-.32v.32c4.56,0,3.04-1.6,6.38-2.56,0-.32-.91-.32-1.82-.32-7.9,0-19.44,1.28-25.52,5.45Zm1.22-35.88c.91,0,.91-1.6,0-1.6-1.22,0-1.22,1.6,0,1.6Zm0,46.77c-1.22,0-1.22-1.6,0-1.6.91,0,.91,1.6,0,1.6Zm0-49.34c0,.96.91.96.91,0,0-.32-.91-.32-.91,0Zm.91,6.73c.3,0,.3-1.6,0-1.6-.91,0-.91,1.6,0,1.6Zm0,1.92c.3,0,.3-1.92,0-1.92-.91,0-.91,1.92,0,1.92Zm.3-5.13c0,.64,1.21.64,1.21,0,0-.96-1.21-.96-1.21,0Zm1.21-3.52c.3,0,.3-1.6,0-1.6-1.21,0-1.21,1.6,0,1.6Zm0,8.65c.3,0,.3-1.92,0-1.92-1.21,0-1.21,1.92,0,1.92Zm0,30.75c.3,0,.3-1.92,0-1.92-1.21,0-1.21,1.92,0,1.92Zm1.22-35.88v-2.56h-.91l.91,2.56Zm0,44.21c0-.96,1.22-.96,1.22,0s-1.22.96-1.22,0Zm1.22-5.77c0-.96.3-.96.3,0,0,.64-.3.64-.3,0Zm2.73,2.24c0-.64.91-.64.91,0,0,.96-.91.96-.91,0Zm.91-.64c-.91,0-.91-1.6,0-1.6.61,0,.61,1.6,0,1.6Zm1.52,1.6c-.91,0-.91-1.6,0-1.6s.91,1.6,0,1.6Zm0,1.6c-.91,0-.91-1.6,0-1.6s.91,1.6,0,1.6Zm1.52-15.06c.91,0,.91-1.28,0-1.28-.61,0-.61,1.28,0,1.28Zm0,10.89c-.61,0-.61-1.6,0-1.6.91,0,.91,1.6,0,1.6Zm1.82-50.62c.61,0,.61-1.6,0-1.6-.91,0-.91,1.6,0,1.6Zm.61,51.58c-.61,0-.61-.96,0-.96.91,0,.91.96,0,.96Zm.91-11.85c.61,0,.61-1.28,0-1.28-.91,0-.91,1.28,0,1.28Zm2.43,10.89h-.91l.91-.64v.64Zm.61-11.85h.91l.91-.32-1.82.32Zm1.82,11.21c0-.96.61-.96.61,0,0,.64-.61.64-.61,0Zm2.13-8.65c.91,0,.91-1.6,0-1.6-.61,0-.61,1.6,0,1.6Zm0-2.56c0,.96,1.82.96,1.82,0,0-.32-1.82-.32-1.82,0Zm.91,12.81c-.91,0-.91-1.6,0-1.6s.91,1.6,0,1.6Zm1.52-57.34c-.61,0-.61-1.92,0-1.92.91,0,.91,1.92,0,1.92Zm.91,45.49c.91,0,.91-1.28,0-1.28s-.91,1.28,0,1.28Zm4.86,1.28c.3,0,.3-2.24,0-2.24-.91,0-.91,2.24,0,2.24Zm0,7.05c.3,0,1.52-.64,1.52-1.6-1.21,0-1.52.96-1.52,1.6Zm.3-7.05q1.21,0,1.21-1.28c0-.96-1.52,1.28-1.21,1.28Zm1.21-3.84c.91,0,.91-1.28,0-1.28-1.21,0-1.21,1.28,0,1.28Zm.91,3.84h.3v-1.28l-.3,1.28Zm.3-4.16c0,.32,1.22.32,1.22,0,0-.96-1.22-.96-1.22,0Zm1.22,9.61c.3,0,.3-1.6,0-1.6-1.22,0-1.22,1.6,0,1.6Zm1.22-9.61c1.21,0,1.21-2.24,0-2.24-.91,0-.91,2.24,0,2.24Zm0,4.16c1.21,0,1.21-1.28,0-1.28-.91,0-.91,1.28,0,1.28Zm0,7.05c0-.64,1.21-.64,1.21,0,0,.96-1.21.96-1.21,0Zm3.65.96c-1.22,0-1.22-1.6,0-1.6.3,0,.3,1.6,0,1.6Zm1.82-10.57c.91,0,.91-1.6,0-1.6-.61,0-.61,1.6,0,1.6Zm9.72,2.88v.96c-2.43,0-3.95,1.28-6.38,1.28h-.91l1.82-2.24h5.47Zm-3.34-.32c-.61,0-.61-2.24,0-2.24.91,0,.91,2.24,0,2.24Zm2.43,0c-.61,0-.61-2.24,0-2.24.91,0,.91,2.24,0,2.24Zm2.43,8.97c-.61,0-.61-1.92,0-1.92.91,0,.91,1.92,0,1.92Zm1.52-6.41c-.61,0-.61-2.24,0-2.24.91,0,.91,2.24,0,2.24Zm.91-176.52c1.52.96.91,2.56,2.43,3.52l-.91,1.28h-.61c-.91,0-.91-2.24-.91-3.84v-.96Zm3.34,176.84c-.91,0-.91-1.6,0-1.6.61,0,.61,1.6,0,1.6Zm1.52-2.88l.3-1.28c0-.96-.3-.96-1.22-.96h-.61l1.52,2.24Zm2.43,0c.3,0,.3-2.24,0-2.24-.91,0-.91,2.24,0,2.24Zm15.49,45.49h-.61v-.96l.61.96Zm10.33-178.44c-.61,0-.61-1.6,0-1.6.91,0,.91,1.6,0,1.6Zm1.82,2.56c-.91,0-.91-1.6,0-1.6.61,0,.61,1.6,0,1.6Zm0,181.64c.61,0,.61-1.6,0-1.6-.91,0-.91,1.6,0,1.6Zm0,10.25c.61,0,.61-1.28,0-1.28-.91,0-.91,1.28,0,1.28Zm1.52,5.13v-2.24c0-.32,0-1.6-.91-1.92l-.61,1.6c0,.32.61,1.28,1.52,2.56Zm-.91-18.58c.91,0,.91-1.6,0-1.6-.61,0-.61,1.6,0,1.6Zm0,5.13c.91,0,.91-1.92,0-1.92-.61,0-.61,1.92,0,1.92Zm.91,14.74q.91,0,.91-.96c0-.32-1.82.96-.91.96Zm0-195.74c.91.96,2.43,3.2,2.43,4.17v.96c-1.52-.96-2.43-2.56-2.43-4.16v-.96Zm.91,180.04c.61-.96,1.52-2.56,1.52-3.2l-1.52.64-.91-.64v.64c0,.96,0,1.6.91,2.56Zm.61-13.46c-.61,0-.61-1.6,0-1.6.91,0,.91,1.6,0,1.6Zm0,21.46c-.61,0-.61-1.28,0-1.28.91,0,.91,1.28,0,1.28Zm0-25.63c0,1.28.91,1.28.91,0,0-.96-.91-.96-.91,0Zm3.34,37.16s-.91,1.28-.91,1.92h-1.22c0-.64-.3-1.92-.3-3.2v-.96c.3,0,2.43.96,2.43,2.24Zm-2.13-6.41c-.3,0-.3-1.28,0-1.28,1.22,0,1.22,1.28,0,1.28Zm0,10.89c-.3,0-.3-1.6,0-1.6,1.22,0,1.22,1.6,0,1.6Zm0-197.34c0-.96,1.22-.96,1.22,0s-1.22.96-1.22,0Zm1.22,183.89c-1.22,0-1.22-1.28,0-1.28.91,0,.91,1.28,0,1.28Zm.91-180.68c-.91,0-.91-.64,0-.64.3,0,.3.64,0,.64Zm0,206.95c-.91,0-.91-.96,0-.96.3,0,.3.96,0,.96Zm.3-205.99l4.86,9.29h-1.22s-2.43-5.13-3.65-6.73v-2.56Zm2.13,174.28c-.91,0-.91-1.6,0-1.6.3,0,.3,1.6,0,1.6Zm.3,14.74c-.3,0-.3-1.6,0-1.6,1.21,0,1.21,1.6,0,1.6Zm1.21-13.13h-1.21v-1.28l1.21,1.28Zm0,3.52l-1.21.32,1.21-1.28v.96Zm.3,1.92v.96l-.3,1.28-1.21-1.28,1.52-.96Zm2.43,11.21v1.6c-.3-2.56-2.43-6.73-2.43-10.25,2.43,0,2.43,7.69,2.43,8.65Zm-1.52-177.8c1.21,0,1.21-.32,0-.32-.91,0-.91.32,0,.32Zm1.21,2.56c.3,0,.3-1.6,0-1.6-1.21,0-1.21,1.6,0,1.6Zm0,146.72c.3,0,.3-.64,0-.64-1.21,0-1.21.64,0,.64Zm.3-145.12c.91,0,.91-.64,0-.64-.3,0-.3.64,0,.64Zm0,164.66c-.3,0-.3-2.24,0-2.24.91,0,.91,2.24,0,2.24Zm0,1.28c-.3,0-.3-1.28,0-1.28.91,0,.91,1.28,0,1.28Zm0-17.3l.91-1.6-.91-.96v2.56Zm.91,19.86c-.91,0-.91-1.28,0-1.28,1.22,0,1.22,1.28,0,1.28Zm0,10.89c-.91.96-.91-4.16,0-3.2,1.22.64,1.22,2.24,0,3.2Zm1.22-8.33c-1.22,0-1.22-1.28,0-1.28.3,0,.3,1.28,0,1.28Zm0,10.89c-1.22,0-1.22-1.6,0-1.6.3,0,.3,1.6,0,1.6Zm.3-178.44c-.3,0-.3-1.6,0-1.6.91,0,.91,1.6,0,1.6Zm0,150.89c-.3,0-.3-.64,0-.64.91,0,.91.64,0,.64Zm0,28.51c-.3,0-.3-.96,0-.96.91,0,.91.96,0,.96Zm1.52-17.94l.91-1.6,1.52,1.28c.91,0,.91-2.24.91-2.24,0-1.92.91-5.45-1.52-6.73v2.56c-.91,0-.91,2.24-1.82-1.28l-.61,1.28-.91-.32v.32c0,2.56.91,4.17,1.52,6.73Zm-.61-159.86c-.91,0-.91-1.6,0-1.6.61,0,.61,1.6,0,1.6Zm.61,157.3c-.61,0-.61-1.6,0-1.6.91,0,.91,1.6,0,1.6Zm0,16.98c-.61,0-.61-1.6,0-1.6.91,0,.91,1.6,0,1.6Zm.91,21.46l.91.96h-.91l-.91-.96h.91Zm0-45.49c.91,0,.91-1.6,0-1.6s-.91,1.6,0,1.6Zm0,27.55c-.91,0-.91-.96,0-.96s.91.96,0,.96Zm.91-171.07c-.91,0-.91-1.6,0-1.6.61,0,.61,1.6,0,1.6Zm0,135.83c.61,0,.61-1.6,0-1.6-.91,0-.91,1.6,0,1.6Zm0,30.75c-.91,0-.91-1.6,0-1.6.61,0,.61,1.6,0,1.6Zm0,6.73c-.91,0-.91-1.6,0-1.6.61,0,.61,1.6,0,1.6Zm.61-34.92c.91,0,.91-.96,0-.96-.61,0-.61.96,0,.96Zm0,36.84c-.61,0-.61-1.92,0-1.92.91,0,.91,1.92,0,1.92Zm0-32.68c0,.96,1.82.96,1.82,0,0-.64-1.82-.64-1.82,0Zm.91-138.4c-.91,0-.91-1.6,0-1.6s.91,1.6,0,1.6Zm0,8.65c.91,0,.91-.96,0-.96s-.91.96,0,.96Zm0,148.01c-.91,0-.91-1.6,0-1.6s.91,1.6,0,1.6Zm.91-159.86c-.91,0-.91-.96,0-.96.61,0,.61.96,0,.96Zm0,5.13c-.91,0-.91-1.92,0-1.92.61,0,.61,1.92,0,1.92Zm0,139.04c.61,0,.61-1.6,0-1.6-.91,0-.91,1.6,0,1.6Zm0,1.28c.61,0,.61-1.28,0-1.28-.91,0-.91,1.28,0,1.28Zm0,16.02c-.91,0-.91-1.6,0-1.6.61,0,.61,1.6,0,1.6Zm0,2.56c-.91,0-.91-.64,0-.64.61,0,.61.64,0,.64Zm0,3.52c-.91,0-.91-1.92,0-1.92.61,0,.61,1.92,0,1.92Zm.61-19.86c.91,0,.91-2.24,0-2.24-.61,0-.61,2.24,0,2.24Zm.91,5.45c1.52,3.84,2.43,8.33,2.43,11.85v1.6c-.91-1.6-2.43-9.29-3.34-10.89v-.96l.91-1.6Zm1.52-139.36c-.91,0-.91-1.6,0-1.6s.91,1.6,0,1.6Zm.91.96c-.91,0-.91-1.28,0-1.28.61,0,.61,1.28,0,1.28Zm0,126.22c.61,0,.61-1.92,0-1.92-.91,0-.91,1.92,0,1.92Zm.61,28.19c-.61,0-.61-1.6,0-1.6.91,0,.91,1.6,0,1.6Zm0-26.59h.91c0-.96,0-1.6-.91-1.6v1.6Zm.91,2.56v.32h1.52c-.61,0-.61-1.28-.61-2.56l-.91,2.24Zm.91,2.88c.61,0,.61-.32,0-.32-.91,0-.91.32,0,.32Zm0,2.56c.61,0,.61-.96,0-.96-.91,0-.91.96,0,.96Zm.61-13.13c.91,0,.91-1.6,0-1.6-.61,0-.61,1.6,0,1.6Zm0,18.26c-.61,0-.61-.96,0-.96.91,0,.91.96,0,.96Zm.91-28.19c.61,0,.61-.96,0-.96-.91,0-.91.96,0,.96Zm0,13.46c.61,0,.61-.96,0-.96-.91,0-.91.96,0,.96Zm.61-18.58c.91,0,.91-1.28,0-1.28-.61,0-.61,1.28,0,1.28Zm0,21.78c.91,0,.91-1.6,0-1.6-.61,0-.61,1.6,0,1.6Zm.91-9.29l.91-.64-.91-2.56c0-.96.91-2.56.91-2.56h-1.82c0,1.6,0,4.16.91,5.77Zm0,12.81v-2.24h-.91c0,1.28,0,2.24.91,2.24Zm.91-20.18c.61,0,.61-.96,0-.96-.91,0-.91.96,0,.96Zm0,21.78c.61,0,.61-1.6,0-1.6-.91,0-.91,1.6,0,1.6Zm.61-271.34c-.61,0-.61-.32,0-.32.91,0,.91.32,0,.32Zm0,252.76c.91,0,.91-1.6,0-1.6-.61,0-.61,1.6,0,1.6Zm0,2.56c.91,0,.91-1.6,0-1.6-.61,0-.61,1.6,0,1.6Zm.91,5.13c.91,0,.91.64.91,1.6v1.6c-.91-.64-1.82-2.56-1.82-3.2h.91Zm0,21.46c-.91,0-.91-1.6,0-1.6s.91,1.6,0,1.6Zm0,14.42c-.91,0-.91-1.92,0-1.92s.91,1.92,0,1.92Zm0-17.3c0-1.28.91-1.28.91,0,0,.32-.91.32-.91,0Zm0,5.45c0-.96.91-.96.91,0s-.91.96-.91,0Zm.91,3.2c-.91,0-.91-1.6,0-1.6.61,0,.61,1.6,0,1.6Zm0,1.92c-.91,0-.91-1.92,0-1.92.61,0,.61,1.92,0,1.92Zm.61-24.67c-.61,0-.61-.32,0-.32.91,0,.91.32,0,.32Zm0,2.56c-.61,0-.61-.32,0-.32.91,0,.91.32,0,.32Zm0,12.81c-.61,0-.61-1.28,0-1.28.91,0,.91,1.28,0,1.28Zm0,2.56c-.61,0-.61-1.92,0-1.92.91,0,.91,1.92,0,1.92Zm0,9.93c-.61,0-.61-1.6,0-1.6.91,0,.91,1.6,0,1.6Zm.91-22.75c-.91,0-.91-1.28,0-1.28.3,0,.3,1.28,0,1.28Zm0,14.42c-.91,0-.91-.96,0-.96.3,0,.3.96,0,.96Zm.3-29.15c1.21,0,1.21-.96,0-.96-.3,0-.3.96,0,.96Zm0,37.48c-.3,0-.3-.64,0-.64,1.21,0,1.21.64,0,.64Zm1.21-18.9v.32h-1.21v-.32h1.21Zm0-16.02l.91-.96h-.91v.96Zm.91,36.52c.3,0,.3,3.52.3,4.49v1.92c-.3-1.28-1.22-3.84-1.22-6.41h.91Zm0-157.62c-.91,0-.91-1.28,0-1.28.3,0,.3,1.28,0,1.28Zm.3,125.26v-.96h-.3l.3.96Zm1.21-21.46c.91,0,.91-2.24,0-2.24-1.21,0-1.21,2.24,0,2.24Zm0,28.19c-1.21,0-1.21-1.6,0-1.6.91,0,.91,1.6,0,1.6Zm0,35.88c-1.21,0-1.21-1.6,0-1.6.91,0,.91,1.6,0,1.6Zm0,2.88c-1.21,0,.91-1.6.91-.32q0,.32-.91.32Zm0-298.89l.91-.96h-.91v.96Zm.91,214.32c.3,0,.3-2.56,0-2.56-.91,0-.91,2.56,0,2.56Zm0,7.37c.3,0,.3-.64,0-.64-.91,0-.91.64,0,.64Zm0,49.98c-.91,0-.91-1.28,0-1.28.3,0,.3,1.28,0,1.28Zm0-28.51l.3,2.56,1.52-2.56v-.64h-1.82v.64Zm.3-17.94c1.21,0,1.21-2.24,0-2.24-.3,0-.3,2.24,0,2.24Zm0,49.66c-.3,0-.3-1.6,0-1.6,1.21,0,1.21,1.6,0,1.6Zm0,34.28c-.3,0-.3-1.6,0-1.6,1.21,0,1.21,1.6,0,1.6Zm1.21-87.46v-2.56c0-.64,0-2.56-1.21-3.2v1.6c0,1.6,0,2.56,1.21,4.17Zm1.21,71.76v1.28c-1.21-.32-2.43-8.01-2.43-9.61,2.43,1.6,2.43,5.77,2.43,8.33Zm-1.21-9.93c-1.21,0-1.21-.96,0-.96.3,0,.3.96,0,.96Zm0-92.58c-1.21,0,.3-1.6.3-1.28q0,1.28-.3,1.28Zm6.08,55.74c0-.96-.91-3.52-.91-4.16-.3-5.13-3.95-17.3-3.95-17.3l-.91-2.24c0,1.28-.3,2.56-.3,3.84,0,0,0,2.56.3,2.56v-2.56c0,1.28,2.43,19.86,5.77,19.86Zm-6.08-11.85h.3c0-1.6,0-2.88-.3-4.17v4.17Zm.3,2.56c.91,0,.91-1.6,0-1.6-.3,0-.3,1.6,0,1.6Zm0-111.81c-.3,0,.91-1.28.91-.32q0,.32-.91.32Zm.91,114.37l-.91.96,2.13-.96h-1.22Zm0-34.92c-.91,0-.91-1.92,0-1.92,1.22,0,1.22,1.92,0,1.92Zm0,33.32c1.22,0,1.22-1.92,0-1.92-.91,0-.91,1.92,0,1.92Zm0,7.37c1.22,0,1.22-1.6,0-1.6-.91,0-.91,1.6,0,1.6Zm0,2.56c1.22,0,1.22-1.6,0-1.6-.91,0-.91,1.6,0,1.6Zm0,18.26c-.91,0-.91-1.28,0-1.28,1.22,0,1.22,1.28,0,1.28Zm1.22-23.39c.3,0,.3-1.6,0-1.6-1.22,0-1.22,1.6,0,1.6Zm0,55.74c-1.22,0-1.22-.32,0-.32.3,0,.3.32,0,.32Zm.3-302.74c.91,0,.91-2.24,0-2.24-.3,0-.3,2.24,0,2.24Zm0,250.52c.91,0,.91-1.6,0-1.6-.3,0-.3,1.6,0,1.6Zm0,29.15c-.3,0-.3-1.6,0-1.6.91,0,.91,1.6,0,1.6Zm0,11.85c-.3,0-.3-1.92,0-1.92.91,0,.91,1.92,0,1.92Zm0,16.02c-.3,0-.3-2.24,0-2.24.91,0,.91,2.24,0,2.24Zm2.43-50.3c.91,2.56,1.52,2.56,1.52,5.13v2.56c-1.82-2.24-.61-3.52-3.95-3.52,0-1.28,2.13-3.2,2.43-4.17Zm-2.43,7.69c0-.96.91-.96.91,0,0,.32-.91.32-.91,0Zm0,8.01v-.96l.91-.32-.91,1.28Zm0,1.6c0-.32.91-.32.91,0,0,.96-.91.96-.91,0Zm.91-283.84c1.21,0,1.21-2.24,0-2.24-.91,0-.91,2.24,0,2.24Zm0,291.53c-.91,0-.91-.96,0-.96,1.21,0,1.21.96,0,.96Zm0,34.92c-.91,0-.91-.96,0-.96,1.21,0,1.21.96,0,.96Zm1.21-50.3v.96l.3,1.6c-1.52,0-1.52-1.6-1.52-2.56h1.21Zm0-5.45c.3,0,.3-1.6,0-1.6-1.21,0-1.21,1.6,0,1.6Zm0,25.95c-1.21,0-1.21-1.92,0-1.92.3,0,.3,1.92,0,1.92Zm.3-292.49c.91,0,.91-1.6,0-1.6-.3,0-.3,1.6,0,1.6Zm1.52,188.05h.91l.91-.64h.61v-.96c-.61,0-2.43.96-2.43,1.6Zm.91,8.65c-.91,0-.91-1.92,0-1.92s.91,1.92,0,1.92Zm0,82.65c-.91,0-.91-2.24,0-2.24s.91,2.24,0,2.24Zm.91-28.83c-.91,0-.91-1.6,0-1.6.61,0,.61,1.6,0,1.6Zm0,2.56c-.91,0-.91-1.6,0-1.6.61,0,.61,1.6,0,1.6Zm0,9.29c.61.96.61,2.88.61,4.17v3.52c-.61-2.56-.61-3.52-.61-6.09v-1.6Zm1.52,10.57c-.91,0-.91-1.28,0-1.28s.91,1.28,0,1.28Zm0,2.56c-.91,0-.91-1.28,0-1.28s.91,1.28,0,1.28Zm0,15.06c-.91,0-.91-1.6,0-1.6s.91,1.6,0,1.6Zm.91-103.16c.61,0,.61-1.92,0-1.92-.91,0-.91,1.92,0,1.92Zm.61-195.1c.91,0,.91-1.6,0-1.6-.61,0-.61,1.6,0,1.6Zm0,198.3v-.64c0-2.56,7.9-3.52,8.81-3.52-.91,2.56-6.38,2.56-8.81,4.17Zm.91-5.77c.61,0,.61-1.6,0-1.6-.91,0-.91,1.6,0,1.6Zm.61-192.54c.91,0,.91-1.6,0-1.6-.61,0-.61,1.6,0,1.6Zm.91-8.33c-.91,0-.91-1.6,0-1.6s.91,1.6,0,1.6Zm.91,1.6c-.91,0-.91-.64,0-.64.61,0,.61.64,0,.64Zm0,198.3c.61,0,.61-1.6,0-1.6-.91,0-.91,1.6,0,1.6Zm0,8.33c-.91,0,.61-1.6.61-.64q0,.64-.61.64Zm.61,102.51c-.61,0-.61-1.6,0-1.6.91,0,.91,1.6,0,1.6Zm0,5.13c-.61,0-.61-1.6,0-1.6.91,0,.91,1.6,0,1.6Zm1.82-108.28c-.91,0-.91-1.6,0-1.6.61,0,.61,1.6,0,1.6Zm.61-8.33c.91,0,.91-1.92,0-1.92-.61,0-.61,1.92,0,1.92Zm.91,6.73c0-.96.61-.96.61,0,0,.64-.61.64-.61,0Zm.61-211.76c-.61,0-.61-.96,0-.96.91,0,.91.96,0,.96Zm2.43,149.93c-.61,0-.61-1.6,0-1.6.91,0,.91,1.6,0,1.6Zm0,49.98h.91v-.96l-.91.96Zm.91,134.87c-.91,0-.91-1.6,0-1.6s.91,1.6,0,1.6Zm.91-330.61c.61,0,.61-1.92,0-1.92-.91,0-.91,1.92,0,1.92Zm0,186.77c.61,0,.61-1.6,0-1.6-.91,0-.91,1.6,0,1.6Zm0,12.17c.61,0,.61-1.6,0-1.6-.91,0-.91,1.6,0,1.6Zm1.82-2.56c0-.64,0-1.6-.3-1.6h-.91c0,.96.91,1.6,1.22,1.6Zm-.3,1.92h1.52c5.17,0,10.03-2.56,15.8-2.56v.64c.61,0,2.13-1.6,2.13-1.6v-.32c0-1.28-1.52-4.81-1.52-5.13,0-1.28-.61-3.84-1.52-3.84v1.6c-1.52,2.24-11.54,7.37-13.98,7.37v1.28h.3c0,1.6-1.22,1.6-2.73,2.56Zm1.52-57.66c-1.21,0-1.21-1.6,0-1.6.91,0,.91,1.6,0,1.6Zm.91,5.13c.3,0,.3-1.6,0-1.6-.91,0-.91,1.6,0,1.6Zm0,39.72c.3,0,.3-1.28,0-1.28-.91,0-.91,1.28,0,1.28Zm.3,5.13c1.21,0,1.21-1.28,0-1.28-.3,0-.3,1.28,0,1.28Zm1.21-7.69c0,1.28.91,1.28.91,0,0-.32-.91-.32-.91,0Zm2.73,1.28l2.13-1.6-2.43-.96h-1.52l1.82,2.56Zm-1.52,18.9c0-.64,1.52-.64,1.52,0,0,.96-1.52.96-1.52,0Zm1.22-13.46c0,.96.3.96.3,0,0-.32-.3-.32-.3,0Zm.3,5.13v.96l-.3-.96h.3Zm.91-200.87c-.91,0-.91-1.6,0-1.6,1.21,0,1.21,1.6,0,1.6Zm0,186.45h4.86c-.91-.32-1.22-.32-2.43-.32-.91,0-1.22,0-2.43.32Zm1.21,22.75c-1.21,0-1.21-1.6,0-1.6.3,0,.3,1.6,0,1.6Zm1.22-18.9c1.21,0,1.21-1.28,0-1.28-.91,0-.91,1.28,0,1.28Zm0,17.3c0-.64,1.52-.64,1.52,0,0,.96-1.52.96-1.52,0Zm1.52-16.34v.32l3.34-1.28-1.82-1.28h-.61l-.91,2.24Zm0,1.92c0,.96.91.96.91,0,0-.32-.91-.32-.91,0Zm.91,6.09l-.91,1.28v-2.56l.91,1.28Zm0-13.13c.61,0,.61-1.6,0-1.6-.91,0-.91,1.6,0,1.6Zm2.43,9.29l-.91,1.28h-.91l-.61-.96,2.43-.32Zm-.91-199.58c.91,0,.91-1.6,0-1.6s-.91,1.6,0,1.6Zm0,189.33c.91,0,.91-1.6,0-1.6s-.91,1.6,0,1.6Zm0,8.01c.91,0,.91-1.6,0-1.6s-.91,1.6,0,1.6Zm0,11.21c.91,0,.91-1.92,0-1.92s-.91,1.92,0,1.92Zm.91-17.94c.61,0,.61-.32,0-.32-.91,0-.91.32,0,.32Zm0,14.1c-.91,0-.91-2.24,0-2.24.61,0,.61,2.24,0,2.24Zm0,6.41c-.91,0-.91-1.92,0-1.92.61,0,.61,1.92,0,1.92Zm0-216.56c0-1.28.61-1.28.61,0,0,.32-.61.32-.61,0Zm.61,207.59c0-1.28.91-1.28.91,0,0,.32-.91.32-.91,0Zm.91-11.85c.91,0,.91-1.6,0-1.6s-.91,1.6,0,1.6Zm.91.32c0,1.28.61,1.28.61,0,0-.32-.61-.32-.61,0Zm1.52,2.56c.61,0,.61-1.28,0-1.28-.91,0-.91,1.28,0,1.28Zm7.29,24.67v-.96h-.91l.91.96Zm2.13,3.2c0-.96-.61-1.6-1.52-1.6,0,.64.91,1.6,1.52,1.6Zm-.61,2.56c.61,0,.61-.96,0-.96-.91,0-.91.96,0,.96Zm.61,1.6c.91,0,.91-1.6,0-1.6-.61,0-.61,1.6,0,1.6Zm.91-2.56c.91,0,.91-1.6,0-1.6s-.91,1.6,0,1.6Zm.91,2.56c.61,0,.61-.64,0-.64-.91,0-.91.64,0,.64Zm.61,2.56c.91,0,.91-1.28,0-1.28-.61,0-.61,1.28,0,1.28Zm1.82,5.13v-1.6l-.91-2.56v1.6c0,.96,0,2.56.91,2.56Zm0,1.28h.61v-.96l-.61.96Zm1.52,5.13l.3-.96-.3-2.56h-.91l.91,3.52Zm4.86,0h.3v-.96h-.3v.96Zm1.82,5.77c0-1.6,0-5.13-1.52-5.13,0,1.92,0,5.13,1.52,5.13Zm3.34,10.89v-.64c0-3.52-.91-6.73-2.43-9.29v.64c0,3.52,0,8.65,2.43,9.29Zm0,15.38l1.22,1.28h.3c0,3.2,1.52,4.16,1.52,7.37h-.61c-1.21,0-2.43-6.73-2.43-7.37v-1.28Zm2.43-20.18c.61,0,.61-1.92,0-1.92-.91,0-.91,1.92,0,1.92Zm1.52,7.37c-.91,0-.91-1.6,0-1.6s.91,1.6,0,1.6Zm0,23.39c-.91,0-.91-1.92,0-1.92s.91,1.92,0,1.92Zm0-13.13c0-1.28.91-1.28.91,0,0,.32-.91.32-.91,0Zm1.52,15.7h-.61v-1.92l.61,1.92Zm0,2.24h-.61l.61-.64v.64Zm1.82-24.67c.61,0,.61-.96,0-.96-.91,0-.91.96,0,.96Zm0,29.79c-.91,0-.91-1.6,0-1.6.61,0,.61,1.6,0,1.6Zm0-35.88h.61l-.61-1.6v1.6Zm.61,10.25v2.56l-.61-2.24.61-.32Zm0,17.3c0,.96,1.52.96,2.43.96l-1.52,2.24c-.91,0-.91-1.6-.91-2.24v-.96Zm.91-24.99c.61,0,.61-1.6,0-1.6-.91,0-.91,1.6,0,1.6Zm0,2.56h.61v-1.28l-.61,1.28Zm.61,14.1c.91,0,.91-2.56,0-2.56-.61,0-.61,2.56,0,2.56Zm0,20.5c-.61,0-.61-1.28,0-1.28.91,0,.91,1.28,0,1.28Zm.91,2.24l-.91,1.6v-1.28c0-.32,0-1.28.91-1.28v.96Zm1.52-27.87c0-.96.91-2.56.91-3.52,0-1.6-.91-2.88-2.43-2.88v5.45l1.52.96Zm-1.52,19.22v-.64l.91-.96-.91,1.6Zm.91-11.53c-.91,0-.91-1.92,0-1.92.61,0,.61,1.92,0,1.92Zm0,7.37l1.52-3.2h.91l.61.64,1.52-.64v1.6c0,3.2-3.04,2.56-3.04,5.13v-4.16l-1.52.64Zm.61-6.73c-.61,0-.61-1.6,0-1.6.91,0,.91,1.6,0,1.6Zm0,26.27c-.61,0,.91-2.24.91-1.28q0,1.28-.91,1.28Zm0-10.25v-4.17h.91s.91,2.88,1.52,5.13c0,.32.91,2.88.91,2.88l-.91,1.28-1.52-5.13h-.91Zm1.82-25.31c.61,0,.61-.32,0-.32-.91,0-.91.32,0,.32Zm0,35.88c-.91,0-.91-.32,0-.32.61,0,.61.32,0,.32Zm.61-33.64c.91,0,.91-1.28,0-1.28-.61,0-.61,1.28,0,1.28Zm.91,38.76c-.91,0-.91-1.6,0-1.6.61,0,.61,1.6,0,1.6Zm0,2.56c-.91,0-.91-1.6,0-1.6.61,0,.61,1.6,0,1.6Zm1.52-23.39c-1.52.96,0,1.92-1.52,2.56v-.64c0-.96,0-1.92.61-2.56l.91.64Zm-.91,15.38c-.61,0-.61-2.24,0-2.24.91,0,.91,2.24,0,2.24Zm.91,8.97c-.91,0-.91-.96,0-.96s.91.96,0,.96Zm0-21.78c0-.64.91-.64.91,0,0,.96-.91.96-.91,0Zm.91,24.99c.61,0,.61.96.61,1.6v.96l-1.52-.96.91-1.6Zm0-18.58c-.91,0-.91-1.28,0-1.28.61,0,.61,1.28,0,1.28Zm0,1.6c-.91,0-.91-1.6,0-1.6.61,0,.61,1.6,0,1.6Zm0,15.38c-.91,0-.91-1.6,0-1.6.61,0,.61,1.6,0,1.6Zm1.52-22.1c.91,0,.91,5.13.91,6.41-.91,0-2.43-5.13-2.43-6.41h1.52Zm-.91,16.98c-.61,0-.61-1.6,0-1.6.91,0,.91,1.6,0,1.6Zm0,1.6c-.61,0-.61-1.6,0-1.6.91,0,.91,1.6,0,1.6Zm.91-26.59c-.91,0-.91-.64,0-.64s.91.64,0,.64Zm0,4.16v-.64l.91-.96-.91,1.6Zm0,2.56c0-.64.91-.64.91,0,0,.96-.91.96-.91,0Zm.91,20.82c-.91,0-.91-2.56,0-2.56.61,0,.61,2.56,0,2.56Zm1.82-33.32v-.96l-.3-1.6-1.52.96,1.82,1.6Zm-1.21-2.56c.91,0,.91-1.6,0-1.6-.61,0-.61,1.6,0,1.6Zm0,12.49c-.61,0-.61-.64,0-.64.91,0,.91.64,0,.64Zm0,3.84c-.61,0-.61-1.28,0-1.28.91,0,.91,1.28,0,1.28Zm0,22.1c-.61,0-.61-1.6,0-1.6.91,0,.91,1.6,0,1.6Zm0,10.89c-.61,0-.61-.96,0-.96.91,0,.91.96,0,.96Zm.91-23.71h-.91v-1.6c.91,0,.91,1.28.91,1.6Zm0,14.42c-.91,0-.91-1.6,0-1.6.3,0,.3,1.6,0,1.6Zm0,1.6c-.91,0-.91-1.6,0-1.6.3,0,.3,1.6,0,1.6Zm.3-13.46c-.3,0-.3-1.6,0-1.6,1.21,0,1.21,1.6,0,1.6Zm0-37.48l1.21-.96v-.32l-1.21-1.28v2.56Zm0,14.42h1.21v-.96h-1.21v.96Zm1.21-11.85c.91,0,.91-1.28,0-1.28-1.21,0-1.21,1.28,0,1.28Zm0,49.34c-1.21,0-1.21-1.6,0-1.6.91,0,.91,1.6,0,1.6Zm0,2.56c-1.21,0-1.21-1.6,0-1.6.91,0,.91,1.6,0,1.6Zm0-46.13c.91,0,2.43-.64,2.43-2.56,0-.64-1.21-1.92-1.52-3.2-2.13,1.6-.91,5.13-.91,5.77Zm.91,8.65c.3,0,.3-1.92,0-1.92-.91,0-.91,1.92,0,1.92Zm0,20.5c-.91,0-.91-1.6,0-1.6.3,0,.3,1.6,0,1.6Zm0,5.12c-.91,0-.91-1.6,0-1.6.3,0,.3,1.6,0,1.6Zm0,27.87c-.91,0-.91-2.24,0-2.24.3,0,.3,2.24,0,2.24Zm.3-12.81h-.3l.3-.64v.64Zm1.21-14.1c0,.64,1.22,4.17,1.22,4.81v.96l-.3-.96c0-.64-2.13-4.16-2.13-4.81v-.96l1.21.96Zm0,17.94c-1.21,0-1.21-1.28,0-1.28.91,0,.91,1.28,0,1.28Zm.91,15.38c-.91,0-.91-1.92,0-1.92.3,0,.3,1.92,0,1.92Zm1.82-32.68l-1.52.96c1.21-1.6,2.43-2.56,2.43-4.17v-.96l-.91.96h-.3c-1.21,0-1.52-6.09-1.52-6.09v-.32l1.52-2.24c.3,3.52,5.17,0,6.08,2.56l-3.34,2.24v.32c2.13,0,2.13.96,2.13,3.52h-1.21c0,1.6,3.95,4.17,6.38,4.17,0,1.6-2.43,1.6-3.34,1.6v-.64l-1.52.64c.91,1.6,3.34,1.6,4.86,2.56-1.52,1.6-4.86,0-3.95,3.52-1.22-2.56-1.22-8.65-4.86-8.65h-.91Zm-1.52-14.74c1.21,0,1.21-1.6,0-1.6-.3,0-.3,1.6,0,1.6Zm0-3.84v1.28h1.21v-2.56l-1.21,1.28Zm1.21,10.25c.3,0,.3-.96,0-.96-1.21,0-1.21.96,0,.96Zm0,16.98c-1.21,0-1.21-1.92,0-1.92.3,0,.3,1.92,0,1.92Zm0,16.34c-1.21,0-1.21-.96,0-.96.3,0,.3.96,0,.96Zm.3-21.46c-.3,0-.3-1.6,0-1.6.91,0,.91,1.6,0,1.6Zm0,23.07c-.3,0-.3-1.6,0-1.6.91,0,.91,1.6,0,1.6Zm0,8.65c-.3,0-.3-1.92,0-1.92.91,0,.91,1.92,0,1.92Zm0-41.97v.96c0-.96.91-1.28,2.13-2.56-2.13,0-2.13,1.28-2.13,1.6Zm.91-5.45c-.91,0-.91-1.6,0-1.6,1.22,0,1.22,1.6,0,1.6Zm0,49.66c-.91,0-.91-1.6,0-1.6,1.22,0,1.22,1.6,0,1.6Zm1.52-28.83l-.3,1.6c-1.22,0-1.22-.96-1.22-1.6h1.52Zm-.3-9.29c.3,0,.3-1.92,0-1.92-1.22,0-1.22,1.92,0,1.92Zm0,42.61c-1.22,0-1.22-1.92,0-1.92.3,0,.3,1.92,0,1.92Zm0-60.55c-1.22,0,.3-1.28.3-.32q0,.32-.3.32Zm0,6.73c0-.32.3-.32.3,0,0,.96-.3.96-.3,0Zm.3,27.87v1.28l-.3-.32.3-.96Zm0-12.49c-.3,0-.3-.96,0-.96.91,0,.91.96,0,.96Zm0,9.93c-.3,0-.3-.64,0-.64.91,0,.91.64,0,.64Zm0,30.11c-.3,0-.3-1.6,0-1.6.91,0,.91,1.6,0,1.6Zm.91-70.16c1.21,0,1.21-1.6,0-1.6-.91,0-.91,1.6,0,1.6Zm0,3.52c-.91,0-.91-1.92,0-1.92,1.21,0,1.21,1.92,0,1.92Zm0,9.29c-.91,0-.91-2.24,0-2.24,1.21,0,1.21,2.24,0,2.24Zm1.21,13.78c.3,0,.3-.64,0-.64-1.21,0-1.21.64,0,.64Zm0,46.77c-1.21,0-1.21-1.6,0-1.6.3,0,.3,1.6,0,1.6Zm.3-27.23c.91-.96-.3-2.24-.3-2.56v-.96l1.22.96v-1.6c0-.96-.91-2.56-.91-4.49l1.52-1.6c-.61,2.56,1.82,3.52.91,6.09l.91-1.92c1.52,1.92,1.52,3.52,1.52,5.12v1.28c-1.52,0-2.43-2.56-1.52-2.88-1.82,0-2.43,1.6-3.34,2.56Zm.91,2.88l-.91,3.84-.3-2.24v-.32l1.22-1.28Zm-.91-41.33c-.3,0-.3-1.6,0-1.6.91,0,.91,1.6,0,1.6Zm0,68.24c-.3,0-.3-.64,0-.64.91,0,.91.64,0,.64Zm.91-69.84c-.91,0-.91-1.92,0-1.92.61,0,.61,1.92,0,1.92Zm0,1.92c-.91,0-.91-1.28,0-1.28.61,0,.61,1.28,0,1.28Zm0,12.81c-.91,0-.91-.96,0-.96.61,0,.61.96,0,.96Zm0-10.57c0-.96.61-.96.61,0,0,.32-.61.32-.61,0Zm.61,48.05c-.61,0-.61-1.6,0-1.6.91,0,.91,1.6,0,1.6Zm.91-61.51c.91,0,.91-1.92,0-1.92s-.91,1.92,0,1.92Zm0,16.02c-.91,0-.91-2.24,0-2.24s.91,2.24,0,2.24Zm1.52,1.92l-.61.96-.91-.96h1.52Zm-1.52,44.53c0-.96.91-.96.91,0,0,.64-.91.64-.91,0Zm.91-67.6c.61,0,.61-.96,0-.96-.91,0-.91.96,0,.96Zm0,90.34c-.91,0-.91-2.24,0-2.24.61,0,.61,2.24,0,2.24Zm0,1.6c-.91,0-.91-1.6,0-1.6.61,0,.61,1.6,0,1.6Zm.61-50.3l3.34,4.16c0,.96-.91,3.52-1.52,3.52l-.91-2.56-1.52-3.2.61-1.92Zm0-13.78c-.61,0-.61-2.24,0-2.24.91,0,.91,2.24,0,2.24Zm0-25.31c.91,0,1.82-.96,1.82-2.56-.91.96-1.82,1.6-1.82,2.56Zm.91,54.78c.91-1.28,2.43-5.13,2.43-6.41,1.52,2.56,2.43,3.84,2.43,7.69-.91,0-2.43-1.28-2.43-2.56,0,.96-1.52,2.56-2.43,2.56h-.91v-1.6l.91.32Zm0,6.73c0-1.6-.91-4.17,1.52-4.17h.91c-1.52,1.28-.91,1.28-.91,1.6h.91c0,3.52-2.43,2.56-2.43,5.13-.91,0-.91-1.6-.91-2.56h.91Zm4.86,18.58c0-1.6-.91-2.56-.91-4.17,0,0,0-1.6.91-1.6,2.43,2.24,2.43,6.73,3.04,8.65l.91-1.92.61-.96c0-2.56-1.52-5.77-1.52-8.33h1.52c0-2.56-1.52-5.12-2.13-6.73,0,0,.61,4.17-.91,4.17l1.52.64c-1.52,0-2.43,1.92-3.04,2.56v-7.37c-1.82,0-2.43,0-2.43,1.6,0,2.56.61,2.56.61,5.77h-.61c-.91-1.6-1.52-4.16-3.34-4.8,1.82-.96,7.29-6.41,7.29-7.69,2.43,3.2,4.86,9.29,4.86,13.46v.96l-.91-.96v.96c0,3.2,2.43,5.77,1.52,8.65l1.82-.32v.32c0,2.24-1.82,2.56-3.34,2.56l-.91-.32h-.61l-1.52.32h.61c-2.43-1.28,0-3.84-3.95-3.84,0-.64.91-.64.91-1.6Zm-4.86-71.76c.91,0,.91-1.6,0-1.6s-.91,1.6,0,1.6Zm2.43-5.13c.61,0,1.52-.64,1.52-2.56l-1.52,1.92h-.91l-.61-.96h-.91c0,1.6.91,1.6,2.43,1.6Zm-1.52,25.95c-.91,0-.91-1.28,0-1.28.61,0,.61,1.28,0,1.28Zm0,46.77c-.91,0-.91-1.6,0-1.6.61,0,.61,1.6,0,1.6Zm.61-27.55c-.61,0-.61-1.6,0-1.6.91,0,.91,1.6,0,1.6Zm.91-47.73v-.64h-.91l.91.64Zm-.91,6.73c0,.96.91.96.91,0,0-.64-.91-.64-.91,0Zm0,2.56l1.52-.64h-1.52v.64Zm.91,21.78c-.91,0-.91-1.92,0-1.92.61,0,.61,1.92,0,1.92Zm0,1.6c-.91,0-.91-1.6,0-1.6.61,0,.61,1.6,0,1.6Zm0,45.81c-.91,0-.91-1.6,0-1.6.61,0,.61,1.6,0,1.6Zm0,26.59c-.91,0-.91-1.6,0-1.6.61,0,.61,1.6,0,1.6Zm.61-89.7c.91,0,.91-2.24,0-2.24-.61,0-.61,2.24,0,2.24Zm.91-17.62l1.52-.96-1.52-.96-.91.96.91.96Zm-.91,12.49h.91c.91,0,1.52-.96,1.52-1.6v-.96c0,1.6-.61,2.56-2.43,2.56Zm.91-5.12c.91,0,.91-1.6,0-1.6s-.91,1.6,0,1.6Zm0,8.01c.91,0,.91-1.28,0-1.28s-.91,1.28,0,1.28Zm0,11.53c.91,0,.91-1.28,0-1.28s-.91,1.28,0,1.28Zm0,41.33c-.91,0-.91-1.6,0-1.6s.91,1.6,0,1.6Zm0,1.6c-.91,0-.91-1.6,0-1.6s.91,1.6,0,1.6Zm0,40.04c-.91,0-.91-.64,0-.64s.91.64,0,.64Zm0-50.94c-.91,0,.91-1.28.91-.96q0,.96-.91.96Zm.91-67.92c.61,0,.61-2.24,0-2.24-.91,0-.91,2.24,0,2.24Zm0,4.49c.61,0,.61-1.6,0-1.6-.91,0-.91,1.6,0,1.6Zm0,32.68c.61,0,.61-1.28,0-1.28-.91,0-.91,1.28,0,1.28Zm0,33.32c-.91,0-.91-1.28,0-1.28.61,0,.61,1.28,0,1.28Zm0,21.78q.61,0,.61-.64c0-.96-1.52.64-.61.64Zm0-63.11c0,.32.61.32.61,0,0-.96-.61-.96-.61,0Zm.61-.96c.91,0,.91-1.6,0-1.6-.61,0-.61,1.6,0,1.6Zm0,11.53c.91,0,.91-1.28,0-1.28-.61,0-.61,1.28,0,1.28Zm0,3.2c.91,0,.91-1.6,0-1.6-.61,0-.61,1.6,0,1.6Zm0,26.27c-.61,0-.61-2.24,0-2.24.91,0,.91,2.24,0,2.24Zm0,55.74c-.61,0-.61-1.92,0-1.92.91,0,.91,1.92,0,1.92Zm.91-118.53c.91,0,.91-1.92,0-1.92s-.91,1.92,0,1.92Zm0,16.66c.91,0,.91-.64,0-.64s-.91.64,0,.64Zm0,51.58c.91,0,.91-.96,0-.96s-.91.96,0,.96Zm0,10.25c-.91,0-.91-1.92,0-1.92s.91,1.92,0,1.92Zm0-75.92l2.43-.96h-.91c-.61,0-1.52,0-1.52.96Zm0,4.16h.91l2.13-.96-.61-1.6h-.91l-.61,1.6h-.91v.96Zm0,23.07l.91-.32v-4.81h-.91v5.13Zm2.43,22.75h-.91c-1.52,0-1.52-1.6-1.52-2.56,1.52,0,1.52,1.92,2.43,2.56Zm-1.52-37.48c.61,0,.61-1.6,0-1.6-.91,0-.91,1.6,0,1.6Zm0,2.88c.61,0,.61-1.28,0-1.28-.91,0-.91,1.28,0,1.28Zm0,2.24c.61,0,.61-2.24,0-2.24-.91,0-.91,2.24,0,2.24Zm0,12.17c.61,0,.61-1.6,0-1.6-.91,0-.91,1.6,0,1.6Zm0,61.51c-.91,0-.91-1.6,0-1.6.61,0,.61,1.6,0,1.6Zm.61-77.85c.91,0,.91-1.92,0-1.92-.61,0-.61,1.92,0,1.92Zm0,8.33c.91,0,.91-1.6,0-1.6-.61,0-.61,1.6,0,1.6Zm0,12.17c.91,0,.91-1.6,0-1.6-.61,0-.61,1.6,0,1.6Zm0,59.91c-.61,0-.61-.32,0-.32.91,0,.91.32,0,.32Zm0-98.35c0,.96.91.96.91,0,0-.64-.91-.64-.91,0Zm0,11.85v1.6l.91-4.17c-.91,0-.91,1.92-.91,2.56Zm.91,35.88h1.52l-.91-.64h1.82c.61,0,2.43,0,2.43.64v-2.56c0-2.56-.91-6.73-3.34-8.33v2.56c-.91,0-.91.96-1.52-.96.61,6.73-.91,2.56-.91,6.09v.64c.91-.64,2.43-3.2,2.43-4.17.91.96,1.52,3.52,1.52,4.17h-1.52v-.64c-1.52.64-1.52,1.6-1.52,3.2Zm.61,10.25v1.6c-.61-1.28-1.52-2.56-1.52-3.84,1.52,0,1.52,1.28,1.52,2.24Zm-.61,42.61c-.91,0-.91-2.24,0-2.24.61,0,.61,2.24,0,2.24Zm.61-82.01h.91c.91,0,2.43,0,2.43-1.6.91-5.12-.91-1.6-1.52-1.6v-1.92l-2.43.96c0,1.6.61,3.52,2.43,3.52l-1.82.64Zm1.82,90.66v-2.24h3.04c0-3.52-5.47-8.65-5.47-13.13v-.96c0,.96,1.52.96,2.43.96.61,0,1.52,0,2.43-2.24-.91,2.24.61,2.56,1.82,2.56l1.21-1.28.91,1.28v1.28h-.91c-1.21,0-3.04.32-3.95.32,1.52.96,3.95,9.29,3.95,11.85,0,.96,0,1.6-1.21,1.6l-.3-.64-1.52.64v-.64c0,.64-.91,1.6-1.82,2.56v-1.92h-.61Zm-1.82-58.95c.91,0,.91-1.6,0-1.6-.61,0-.61,1.6,0,1.6Zm0,18.26c-.61,0-.61-1.28,0-1.28.91,0,.91,1.28,0,1.28Zm0,16.02c.91,0,.91-1.92,0-1.92-.61,0-.61,1.92,0,1.92Zm0,4.17c.91,0,.91-1.6,0-1.6-.61,0-.61,1.6,0,1.6Zm0-75.92c0,.64.91.64.91,0,0-.96-.91-.96-.91,0Zm0,93.22c0-.96.91-.96.91,0s-.91.96-.91,0Zm.91-43.57c-.91,0-.91-1.6,0-1.6s.91,1.6,0,1.6Zm0-42.61c.91,1.28,2.43,1.28,3.34,0,.61-.32-4.25-.32-3.34,0Zm0-10.57v.96l.91-.96v-.64l-.91.64Zm.91,7.69c-.91,0-.91-1.6,0-1.6.61,0,.61,1.6,0,1.6Zm0,9.29c.61,0,.61-1.6,0-1.6-.91,0-.91,1.6,0,1.6Zm0,8.97c.61,0,.61-.96,0-.96-.91,0-.91.96,0,.96Zm0,56.38c.61,0,.61-1.28,0-1.28-.91,0-.91,1.28,0,1.28Zm0,6.41c.61,0,.61-2.24,0-2.24-.91,0-.91,2.24,0,2.24Zm0-202.15c0,.96.61.96.61,0,0-.32-.61-.32-.61,0Zm0,108.6h.61l-.61-1.92v1.92Zm0,23.07c.61,1.6,1.52,2.56,3.04,2.56h.91l-1.52-1.28.61-1.28c-.61,0-2.43,0-3.04-.96v.96Zm.61,35.88v1.28l-.61-1.28v-.96l.61.96Zm0,9.29v.96l-.61-.96h.61Zm0-187.41c.91,0,.91-1.6,0-1.6-.61,0-.61,1.6,0,1.6Zm0,167.55c.91,0,.91-.96,0-.96-.61,0-.61.96,0,.96Zm0,29.79c-.61,0-.61-1.6,0-1.6.91,0,.91,1.6,0,1.6Zm0,17.94c.91,0,.91-1.28,0-1.28-.61,0-.61,1.28,0,1.28Zm.91-50.3c.91,0,.91-1.6,0-1.6s-.91,1.6,0,1.6Zm0,34.28c-.91,0-.91-.96,0-.96s.91.96,0,.96Zm0,17.94c.91,0,.91-1.6,0-1.6s-.91,1.6,0,1.6Zm0-194.78c0,.96.91.96.91,0s-.91-.96-.91,0Zm0,101.55v.96l.91-1.6-.91.64Zm1.52,16.98c.91,0,.91-1.28.91-1.6,0-.96,0-2.24-1.52-2.56l-.91,1.6,1.52.96-.61.32.61,1.28Zm-1.52,32.04l.91-.32-.91-.96v1.28Zm.91-158.9c-.91,0-.91-1.92,0-1.92.61,0,.61,1.92,0,1.92Zm0,105.72c.61,0,.61-.64,0-.64-.91,0-.91.64,0,.64Zm0,14.42c.61,0,.61-1.6,0-1.6-.91,0-.91,1.6,0,1.6Zm0,18.26c.61,0,.61-1.92,0-1.92-.91,0-.91,1.92,0,1.92Zm0,49.34c-.91,0-.91-.96,0-.96.61,0,.61.96,0,.96Zm0,34.92c-.91,0-.91-.96,0-.96.61,0,.61.96,0,.96Zm0-233.22h.61l-.61-.96v.96Zm4.25,129.75c-.3-3.2,2.13-4.17,4.86-4.17l1.21.96c0-.96,1.22-2.56,1.22-3.52l-.91-1.6-.3-.96v-.64l2.73-2.56v-.96l-1.52-.64c1.52,1.6-3.65,4.8-4.86,5.77h1.52c0,.96.91,3.2-.3,3.2l-1.22-.64-2.43.64h-.3v-.64l-2.13.64h-.3l-.91-.64v-.96c0-.64,3.34-1.6,4.86-1.6l-1.21-.96c-.3,0-2.43-.64-2.43-.64,0,0-1.82,3.2-1.82,4.17,0,5.13,3.04,2.56,4.25,5.77Zm-4.25,34.28h1.52l.3-.96,2.13.96v-1.6h-3.34v-2.56c-.61.64-.61,3.2-.61,4.17Zm.61-168.83c.91,0,.91-1.28,0-1.28-.61,0-.61,1.28,0,1.28Zm0,151.21c.91,0,.91-.96,0-.96-.61,0-.61.96,0,.96Zm.91-46.45c.3,0,.3-2.24,0-2.24-.91,0-.91,2.24,0,2.24Zm0,11.21c.3,0,.3-.64,0-.64-.91,0-.91.64,0,.64Zm0,2.56c.3,0,.3-1.6,0-1.6-.91,0-.91,1.6,0,1.6Zm0,31.4c.3,0,.3-2.24,0-2.24-.91,0-.91,2.24,0,2.24Zm0,55.1c-.91,0-.91-1.28,0-1.28.3,0,.3,1.28,0,1.28Zm0,22.75c-.91,0-.91-.64,0-.64.3,0,.3.64,0,.64Zm0-71.44h.3c1.21,0,3.65-.96,3.65-2.56-1.52,0-2.43-.96-3.95-.96,0,.96.3,1.6,1.52,1.6l-1.52,1.92Zm1.52,5.77v-1.6l-1.52.64c0,.96.3.96,1.52.96Zm-1.52,36.52v-.64l.3-.96-.3,1.6Zm.3-198.94c1.21,0,1.21-1.6,0-1.6-.3,0-.3,1.6,0,1.6Zm0,107.64c1.21,0,1.21-2.24,0-2.24-.3,0-.3,2.24,0,2.24Zm0,1.92c1.21,0,1.21-.32,0-.32-.3,0-.3.32,0,.32Zm0,27.87c1.21,0,1.21-1.6,0-1.6-.3,0-.3,1.6,0,1.6Zm0,1.28c1.21,0,1.21-1.28,0-1.28-.3,0-.3,1.28,0,1.28Zm0,12.81c1.21,0,1.21-1.28,0-1.28-.3,0-.3,1.28,0,1.28Zm0,56.38c-.3,0-.3-1.28,0-1.28,1.21,0,1.21,1.28,0,1.28Zm0,6.73c-.3,0-.3-1.6,0-1.6,1.21,0,1.21,1.6,0,1.6Zm0,2.56c-.3,0-.3-1.6,0-1.6,1.21,0,1.21,1.6,0,1.6Zm2.13-95.79l-2.13-2.56v.96c0,.96,0,1.6,2.13,1.6Zm.3,30.75c-.3-3.2,3.65-7.05,6.08-9.29-2.13,2.24-2.43-1.92-2.43-2.88,0-1.28,1.21-3.84,1.21-4.16-1.21,0-.91,2.56-2.43,2.88l-.3-.32-2.43,2.56c.3,0,.3.32.3,1.6v.32l-.3-.32-2.13.32c1.21,2.24,2.43.96,2.43,2.56,0,2.24-.3,3.52-.3,5.13,0,.96,0,1.6.3,1.6Zm-2.43,7.69l1.21-.96h-1.21v.96Zm0,5.13l1.21-.96h-1.21v.96Zm1.21,25.63h-1.21c1.21-.64,2.13-.64,2.43-.64,0-.96,0-2.56-.3-2.56-2.13,1.6-.91,1.6-.91,3.2Zm1.22,39.4c-.3,0-1.22.64-2.43,1.6v-.96c0-.64,1.21-4.17,2.13-4.17.3.96.3,1.6.3,3.52Zm-1.22,15.06v.32l-1.21-.32v-1.28l1.21,1.28Zm0-133.27c.91,0,.91-2.24,0-2.24-1.21,0-1.21,2.24,0,2.24Zm0,38.44c.91,0,.91-2.24,0-2.24-1.21,0-1.21,2.24,0,2.24Zm0,33.64c.91,0,.91-.32,0-.32-1.21,0-1.21.32,0,.32Zm0,2.56c.91,0,.91-.96,0-.96-1.21,0-1.21.96,0,.96Zm0,12.49c-1.21,0-1.21-1.6,0-1.6.91,0,.91,1.6,0,1.6Zm0,4.49c-1.21,0-1.21-.96,0-.96.91,0,.91.96,0,.96Zm0,14.74c-1.21,0-1.21-1.28,0-1.28.91,0,.91,1.28,0,1.28Zm.91,17.62l-.91.96.91-1.92v.96Zm0-127.82c.3,0,.3-1.28,0-1.28-.91,0-.91,1.28,0,1.28Zm0,16.98c.3,0,.3-1.92,0-1.92-.91,0-.91,1.92,0,1.92Zm0,41.65c.3,0,.3-1.6,0-1.6-.91,0-.91,1.6,0,1.6Zm0,15.7c.3,0,.3-1.28,0-1.28-.91,0-.91,1.28,0,1.28Zm0,19.22c-.91,0-.91-1.6,0-1.6.3,0,.3,1.6,0,1.6Zm0,19.22c-.91,0-.91-.96,0-.96.3,0,.3.96,0,.96Zm0,27.23c-.91,0-.91-1.6,0-1.6.3,0,.3,1.6,0,1.6Zm0-133.59c0,.32.3.32.3,0,0-1.28-.3-1.28-.3,0Zm.3-8.97c1.21,0,1.21-1.28,0-1.28-.3,0-.3,1.28,0,1.28Zm0,6.41c1.21,0,1.21-2.24,0-2.24-.3,0-.3,2.24,0,2.24Zm0,17.94c1.21,0,1.21-1.6,0-1.6-.3,0-.3,1.6,0,1.6Zm0,55.1c1.21,0,1.21-1.28,0-1.28-.3,0-.3,1.28,0,1.28Zm0,8.33c-.3,0-.3-.96,0-.96,1.21,0,1.21.96,0,.96Zm0,24.03c-.3,0-.3-.32,0-.32,1.21,0,1.21.32,0,.32Zm1.21-81.05l-1.21,1.28h1.21l.91-1.28h-.91Zm-1.21,22.1h1.21v-.96h-1.21v.96Zm2.43,45.17v1.6c-.3-1.6-2.43-5.13-2.43-7.69,2.13.96,2.43,4.16,2.43,6.09Zm-2.43,10.89c0-1.28,1.21-1.28,1.21,0,0,.32-1.21.32-1.21,0Zm0,25.63c0-1.28,1.21-1.28,1.21,0,0,.96-1.21.96-1.21,0Zm1.21-247.64c.91,0,.91-1.6,0-1.6-1.21,0-1.21,1.6,0,1.6Zm0,115.33c.91,0,.91-2.24,0-2.24-1.21,0-1.21,2.24,0,2.24Zm0,77.85c.91,0,.91-1.6,0-1.6-1.21,0-1.21,1.6,0,1.6Zm0,26.59c-1.21,0-1.21-.32,0-.32.91,0,.91.32,0,.32Zm0,19.54c-1.21,0-1.21-.96,0-.96.91,0,.91.96,0,.96Zm.91-108.6c.3,0,1.82-.64,2.73-.64h1.21v-4.17c-2.13.64-1.21,2.56-2.43,3.2,0-.64-1.22-.64-1.52-.64h-.91c.91,0,.91,1.6.91,2.24Zm-.91,47.09c0,.64.91.64.91,0,0-.96-.91-.96-.91,0Zm.91-173.63c.3,0,.3-1.6,0-1.6-.91,0-.91,1.6,0,1.6Zm0,111.49c.3,0,.3-1.28,0-1.28-.91,0-.91,1.28,0,1.28Zm0,3.84c.3,0,.3-2.24,0-2.24-.91,0-.91,2.24,0,2.24Zm0,13.78c.3,0,.3-1.6,0-1.6-.91,0-.91,1.6,0,1.6Zm0,42.61c.3,0,.3-1.6,0-1.6-.91,0-.91,1.6,0,1.6Zm0,19.86c.3,0,.3-1.6,0-1.6-.91,0-.91,1.6,0,1.6Zm0,30.75c-.91,0-.91-1.6,0-1.6.3,0,.3,1.6,0,1.6Zm0,15.38c-.91,0-.91-1.92,0-1.92.3,0,.3,1.92,0,1.92Zm0,1.6c-.91,0-.91-1.6,0-1.6.3,0,.3,1.6,0,1.6Zm0-72.4v-.96c0-.96,0-1.6,1.52-1.6-1.52.64,0,1.6-1.52,2.56Zm.3,27.23v-1.6h-.3l.3,1.6Zm0-185.49c-.3,0-.3-.96,0-.96,1.22,0,1.22.96,0,.96Zm0,137.75c-.3,0-.3-1.6,0-1.6,1.22,0,1.22,1.6,0,1.6Zm0,9.29c1.22,0,1.22-1.6,0-1.6-.3,0-.3,1.6,0,1.6Zm0,1.92c1.22,0,1.22-1.92,0-1.92-.3,0-.3,1.92,0,1.92Zm0,15.06c1.22,0,1.22-1.6,0-1.6-.3,0-.3,1.6,0,1.6Zm0,5.12c-.3,0-.3-2.24,0-2.24,1.22,0,1.22,2.24,0,2.24Zm0,42.93c-.3,0-.3-1.6,0-1.6,1.22,0,1.22,1.6,0,1.6Zm0,19.54c-.3,0-.3-1.92,0-1.92,1.22,0,1.22,1.92,0,1.92Zm1.22-249.56c.3,0,.3-1.6,0-1.6-1.22,0-1.22,1.6,0,1.6Zm0,9.29c.3,0,.3-1.6,0-1.6-1.22,0-1.22,1.6,0,1.6Zm0,195.74c.3,0,.3-1.6,0-1.6-1.22,0-1.22,1.6,0,1.6Zm0,46.45c-1.22,0-1.22-.32,0-.32.3,0,.3.32,0,.32Zm0-90.98c0,.32.3.32.3,0,0-1.28-.3-1.28-.3,0Zm.3,28.19l-.3,1.28v-1.28h.3Zm0,18.9h.91l2.43-.64c0-.96-1.22-.96-2.43-.96h-1.21l.3,1.6Zm0-84.25c.91,0,.91-1.28,0-1.28-.3,0-.3,1.28,0,1.28Zm0,110.2c-.3,0-.3-1.92,0-1.92.91,0,.91,1.92,0,1.92Zm0-8.65c0-.32.91-.32.91,0,0,.96-.91.96-.91,0Zm.91-191.57c-.91,0-.91-1.6,0-1.6,1.21,0,1.21,1.6,0,1.6Zm0,156.66c-.91,0-.91-1.28,0-1.28,1.21,0,1.21,1.28,0,1.28Zm0,20.18c1.21,0,1.21-1.6,0-1.6-.91,0-.91,1.6,0,1.6Zm0-56.38v1.6c1.52-2.56,3.95-8.33,6.38-8.33v-1.92h-2.73l-1.21-.64c1.52,4.49-2.43,5.77-2.43,9.29Zm1.52,46.45c0,.64,0,1.6-.3,1.6l-1.21-.96v-3.2c1.52,0,1.52.64,1.52,2.56Zm-.3-52.54c.3,0,.3-1.6,0-1.6-1.21,0-1.21,1.6,0,1.6Zm0,19.22c-1.21,0-1.21-.96,0-.96.3,0,.3.96,0,.96Zm0,4.81c-1.21,0-1.21-1.6,0-1.6.3,0,.3,1.6,0,1.6Zm0,4.49c-1.21,0-1.21-1.92,0-1.92.3,0,.3,1.92,0,1.92Zm0,12.49c-1.21,0-1.21-1.6,0-1.6.3,0,.3,1.6,0,1.6Zm0,24.99c.3,0,.3-1.92,0-1.92-1.21,0-1.21,1.92,0,1.92Zm0,17.94c-1.21,0-1.21-1.6,0-1.6.3,0,.3,1.6,0,1.6Zm0,26.27c-1.21,0-1.21-1.6,0-1.6.3,0,.3,1.6,0,1.6Zm.3-252.76c.91,0,.91-1.6,0-1.6-.3,0-.3,1.6,0,1.6Zm0,27.55c-.3,0-.3-1.6,0-1.6.91,0,.91,1.6,0,1.6Zm0,128.14c.91,0,.91-1.6,0-1.6-.3,0-.3,1.6,0,1.6Zm0,29.15c-.3,0-.3-1.28,0-1.28.91,0,.91,1.28,0,1.28Zm0,26.91c.91,0,.91-1.6,0-1.6-.3,0-.3,1.6,0,1.6Zm.91,8.01l1.21.96c0-.96.3-.96,1.22-.96,0,2.24-1.22,2.56-1.22,5.13h-1.21c0-2.56-.91-2.56-.91-4.17l.91-.96Zm0-70.8c1.21,0,1.21-1.28,0-1.28-.91,0-.91,1.28,0,1.28Zm0,4.16c1.21,0,1.21-1.6,0-1.6-.91,0-.91,1.6,0,1.6Zm0-156.33h1.21c.3,0,1.22,0,1.22-1.92-.91,0-1.22.96-2.43,1.92Zm3.95,165.63c0,.96,0,1.92-.91,1.92h1.82l-1.82,1.6.91,1.6v.96c-2.43,0-3.95-6.73-3.95-8.65,1.21,0,3.95,1.92,3.95,2.56Zm-.91,22.42s1.82,4.16,1.82,5.13c-.91,0-2.43-.96-3.34-1.28,0,.32-.3,1.28-1.52,1.28v-3.84c1.52,0,1.52-1.28,3.04-1.28Zm-1.52,6.41l.91,1.28h-.91c-.3,0-1.52,0-1.52-.96l1.52-.32Zm-.3-188.69c-1.21,0-1.21-1.6,0-1.6.3,0,.3,1.6,0,1.6Zm0,14.74c-1.21,0-1.21-.32,0-.32.3,0,.3.32,0,.32Zm0,9.29c-1.21,0-1.21-1.6,0-1.6.3,0,.3,1.6,0,1.6Zm0,147.69c-1.21,0-1.21-1.6,0-1.6.3,0,.3,1.6,0,1.6Zm0,62.47c-1.21,0-1.21-1.6,0-1.6.3,0,.3,1.6,0,1.6Zm1.22-10.25h-1.22l.3-.64.91.64Zm-.91-87.14c.91,0,.91-1.92,0-1.92-.3,0-.3,1.92,0,1.92Zm0,16.02c-.3,0-.3-1.28,0-1.28.91,0,.91,1.28,0,1.28Zm0,28.19c-.3,0-.3-1.6,0-1.6.91,0,.91,1.6,0,1.6Zm0,11.53c-.3,0-.3-1.92,0-1.92.91,0,.91,1.92,0,1.92Zm3.34-59.91l.61-1.92c0-.64-.61-4.16-1.52-4.16h-.91c0,.96-1.52,2.56-1.52,3.52v.64l1.52-1.6c-.61,1.6.91,2.56,1.82,3.52Zm-2.43-108.6c-.91,0-.91-1.6,0-1.6.61,0,.61,1.6,0,1.6Zm0,109.24c.61,0,.61-1.6,0-1.6-.91,0-.91,1.6,0,1.6Zm0,70.8c-.91,0-.91-1.6,0-1.6.61,0,.61,1.6,0,1.6Zm0,22.42c-.91,0-.91-1.6,0-1.6.61,0,.61,1.6,0,1.6Zm0-255.65c0-.64.61-.64.61,0,0,.96-.61.96-.61,0Zm.61,189.97c.91,0,.91-1.6,0-1.6-.61,0-.61,1.6,0,1.6Zm0,20.18c-.61,0-.61-1.28,0-1.28.91,0,.91,1.28,0,1.28Zm0,11.53c-.61,0-.61-1.92,0-1.92.91,0,.91,1.92,0,1.92Zm0,9.29c-.61,0-.61-1.92,0-1.92.91,0,.91,1.92,0,1.92Zm0,18.9c-.61,0-.61-1.28,0-1.28.91,0,.91,1.28,0,1.28Zm0,9.93c-.61,0-.61-1.6,0-1.6.91,0,.91,1.6,0,1.6Zm3.34-64.71c0,.64-.91,2.56-1.52,3.2l-1.82-1.6c.91-.96,2.43-1.6,3.34-1.6Zm-3.34,32.36l1.82-3.2.61.64.91-1.6c1.52,1.6,1.52,5.12,1.52,6.73-.61,0-3.04-2.56-3.04-3.52l-1.82.96Zm0,23.71c0-1.28.91-1.28.91,0,0,.32-.91.32-.91,0Zm1.82,12.17h-1.82v-1.6l1.82,1.6Zm-.91-248.6c.91,0,.91-.64,0-.64s-.91.64,0,.64Zm0,12.81c-.91,0-.91-1.6,0-1.6s.91,1.6,0,1.6Zm0,151.85c-.91,0-.91-2.24,0-2.24s.91,2.24,0,2.24Zm0,28.19c-.91,0-.91-1.6,0-1.6s.91,1.6,0,1.6Zm2.43,11.53l-.91,1.6c-1.52,0-1.52-1.6-1.52-2.56.91,0,1.52,0,2.43.96Zm0,37.48l.91-1.6v-.96c0-2.56-3.34-5.13-3.34-6.73,0-2.56.91-5.13,1.52-6.41l3.34,7.69v-3.84h1.52l-.91,1.28s-.61,2.88-.61,3.84v1.28l2.43.32c1.52,0,2.43-1.6,2.43-2.56.61,0,.61.96.61,2.24s-1.52,3.84-3.04,4.48l-1.82-3.2v5.13l-1.52-1.92-1.52.96Zm-.91-2.56h-1.52v-.96l1.52.96Zm0,11.85v.64l-.61,2.56-.91-1.6v-.96l1.52-.64Zm-.61-213.36c-.91,0-.91-1.92,0-1.92.61,0,.61,1.92,0,1.92Zm0,112.45c.61,0,.61-1.6,0-1.6-.91,0-.91,1.6,0,1.6Zm0,73.36c-.91,0-.91-1.6,0-1.6.61,0,.61,1.6,0,1.6Zm0,8.97c.61,0,.61-1.28,0-1.28-.91,0-.91,1.28,0,1.28Zm0,9.29c-.91,0-.91-1.6,0-1.6.61,0,.61,1.6,0,1.6Zm0,27.87c-.91,0-.91-2.24,0-2.24.61,0,.61,2.24,0,2.24Zm15.19-61.19v-4.17h-.91v2.56c-1.52,0-2.43,0-3.04,1.6v-.96c.61-.64,3.04-4.16,3.04-5.77l-1.52-1.28c0,.32-1.52.32-1.52.32h-1.82l.91-.32c-2.43-1.28.91-3.84-1.52-4.16l.61-.96c.91,0,2.43,1.28,3.34,2.56v-1.6c0-2.56-2.43-4.81-2.43-6.73h-1.52v1.6c-2.43-.96-3.34-12.81-5.77-12.81,0-2.24-3.04-5.77-3.04-8.65h.61c.91,0,2.43.32,3.34.32,0,0-.91,1.6-.91,2.56,0,0,.91.96,1.52.96h.91c0-2.56-.91-3.52,1.52-3.52,0-1.6-.61-2.88-.61-5.45l1.52-1.28c0,4.17,4.86,4.17,4.86,6.73,0,.96-1.52.96-1.52,2.56,0,3.52,2.13,5.77,2.13,8.33h-.61v1.92h1.52v.64h-.91v2.56l.91-.96h.91s.61,1.92.61,2.56c0,.96.91,3.52.91,3.52l-.91.32v1.28c0,.96,3.34,3.52,3.34,5.45h-2.43c0-1.6,0-2.88-.91-4.17-.61,0-.61,1.28-.61,2.24,0,5.45,4.25,2.88,4.25,7.05-.3,0-1.82-.32-2.73-1.6v1.28c0,1.92,1.52,5.45,1.52,8.01-.61,0-6.38-.96-5.47-2.56h2.43Zm-15.19-23.39l1.52-.64c.91,2.56,1.52,5.13,2.43,6.73l-.91.32h-.61s-.91-3.84-1.82-1.92l-.61-4.49Zm0,8.97c.61,0,.61,1.28.61,2.24v.32c-.61,0-.61-.32-.61-1.28v-1.28Zm.61-196.06c.91,0,.91-2.24,0-2.24-.61,0-.61,2.24,0,2.24Zm0,160.18h.91l-.91-.32v.32Zm.91,62.79h-.91c0-.64.91-1.6,1.82-1.6,0,.96,0,1.6-.91,1.6Zm0,35.88h-.91v-.64l.91.64Zm0-55.1c-.91,0-.91-.96,0-.96s.91.96,0,.96Zm0,5.77c-.91,0-.91-1.6,0-1.6s.91,1.6,0,1.6Zm0,5.13c.91,0,.91-1.6,0-1.6s-.91,1.6,0,1.6Zm0,32.36c-.91,0-.91-.64,0-.64s.91.64,0,.64Zm0,8.65c-.91,0-.91-1.92,0-1.92s.91,1.92,0,1.92Zm0,5.77c-.91,0-.91-1.28,0-1.28s.91,1.28,0,1.28Zm0-269.1h.91v-1.28l-.91,1.28Zm2.43,6.41l-2.43,1.28h1.52l2.43-1.28h-1.52Zm-1.52,42.61c-.91,0-.91-1.6,0-1.6.61,0,.61,1.6,0,1.6Zm0,115.01c.61,0,.61-.64,0-.64-.91,0-.91.64,0,.64Zm0,11.53c-.91,0-.91-.96,0-.96.61,0,.61.96,0,.96Zm0,3.84c-.91,0-.91-2.24,0-2.24.61,0,.61,2.24,0,2.24Zm0,1.92c.61,0,.61-1.6,0-1.6-.91,0-.91,1.6,0,1.6Zm0,52.86c-.91,0-.91-1.6,0-1.6.61,0,.61,1.6,0,1.6Zm0,31.72c-.91,0-.91-1.92,0-1.92.61,0,.61,1.92,0,1.92Zm.61-8.65v2.56c-.61,0-.61-1.6-.61-2.56h.61Zm0-263.01c-.61,0-.61-1.92,0-1.92.91,0,.91,1.92,0,1.92Zm0,171.07c.91,0,.91-1.28,0-1.28-.61,0-.61,1.28,0,1.28Zm0,66.31c-.61,0-.61-1.6,0-1.6.91,0,.91,1.6,0,1.6Zm0,42.93c-.61,0-.61-1.6,0-1.6.91,0,.91,1.6,0,1.6Zm0-106.68l.91-.32h-.91v.32Zm15.19,89.38c-1.52-5.77-3.04-13.78-6.38-18.9-.61,0-3.95,1.28-3.95,2.88-.91,0-.91-.32-.91-1.6v-.32c2.43,0,4.25-.96,4.25-2.56,0-4.16-2.43-11.85-3.34-13.46-3.34-1.92-4.86-16.98-4.86-19.86h.91c3.04,0,11.24,37.8,11.24,37.8v-1.6c0-2.56-.91-5.13-.91-7.05.91,0,1.52.64,1.52,1.6l1.82-.96h.61c0,3.52,1.21,6.41,1.21,10.57v.96l-1.21-2.56v1.28c0,1.28,0,3.84,2.43,3.84v11.85c0-1.92-1.22-6.09-2.43-6.73v4.8Zm-14.28-251.8c.61,0,.61-1.6,0-1.6-.91,0-.91,1.6,0,1.6Zm0,47.73c-.91,0-.91-1.6,0-1.6.61,0,.61,1.6,0,1.6Zm0,116.93c.61,0,.61-.96,0-.96-.91,0-.91.96,0,.96Zm0,9.29c-.91,0-.91-2.24,0-2.24.61,0,.61,2.24,0,2.24Zm0,48.05c-.91,0-.91-1.6,0-1.6.61,0,.61,1.6,0,1.6Zm0,36.52c-.91,0-.91-2.56,0-2.56.61,0,.61,2.56,0,2.56Zm0,6.41c-.91,0-.91-.32,0-.32.61,0,.61.32,0,.32Zm0-270.38c0,.96.61.96.61,0,0-1.28-.61-1.28-.61,0Zm.61,161.46c.91,0,.91-1.6,0-1.6-.61,0-.61,1.6,0,1.6Zm0,11.53c.91,0,.91-1.28,0-1.28-.61,0-.61,1.28,0,1.28Zm0,57.66c-.61,0-.61-1.6,0-1.6.91,0,.91,1.6,0,1.6Zm0,28.51c-.61,0-.61-1.92,0-1.92.91,0,.91,1.92,0,1.92Zm0-35.88c-.61,0,.91-1.92.91-.96s0,.96-.91.96Zm1.82-175.88h-1.82l1.82-.96v.96Zm-1.82,138.4h1.82v-.96h-1.82v.96Zm1.82,46.77c0,3.2-.91,1.92-1.82,4.48v-4.48h1.82Zm-.91,34.92h-.91v-.96l.91.96Zm0-78.49c.91,0,.91-1.6,0-1.6s-.91,1.6,0,1.6Zm0,10.25c-.91,0-.91-1.92,0-1.92s.91,1.92,0,1.92Zm0,77.85c-.91,0-.91-1.6,0-1.6s.91,1.6,0,1.6Zm0-280.95c0,1.28.91,1.28.91,0,0-.32-.91-.32-.91,0Zm.91,170.43l.61-1.28-.61-.32h-.91l.91,1.6Zm0-141.6c-.91,0-.91-1.92,0-1.92.61,0,.61,1.92,0,1.92Zm0,246.68c-.91,0-.91-1.28,0-1.28.61,0,.61,1.28,0,1.28Zm0-266.54l.61-1.28h-.61v1.28Zm0,186.45v.96c.61-.96,1.52-1.92,1.52-2.56l-.91-1.92c0,.96-.61,2.56-.61,3.52Zm.61,45.49h-.61l.61-.32v.32Zm0,6.73l-.61.96v-.96h.61Zm0-241.23c.91,0,.91-1.6,0-1.6-.61,0-.61,1.6,0,1.6Zm0,203.75c-.61,0-.61-1.28,0-1.28.91,0,.91,1.28,0,1.28Zm0,61.19c-.61,0-.61-1.6,0-1.6.91,0,.91,1.6,0,1.6Zm0,7.05c-.61,0-.61-1.6,0-1.6.91,0,.91,1.6,0,1.6Zm.91-261.41h-.91l.91-.96h.91l-.91.96Zm0,182.6c.91,0,.91-1.6,0-1.6s-.91,1.6,0,1.6Zm0,56.7c-.91,0-.91-1.92,0-1.92s.91,1.92,0,1.92Zm5.47-246.04c-.61,1.28-2.13,1.28-3.04,1.28h-2.43c0-1.28,3.95-2.24,4.86-2.24l.61.96Zm-5.47,40.04c0-.96.91-.96.91,0s-.91.96-.91,0Zm.91,110.84c.61,0,.61-1.6,0-1.6-.91,0-.91,1.6,0,1.6Zm0,13.13c.61,0,.61-1.28,0-1.28-.91,0-.91,1.28,0,1.28Zm0,22.75c.61,0,.61-1.6,0-1.6-.91,0-.91,1.6,0,1.6Zm0,3.52c.61,0,.61-.96,0-.96-.91,0-.91.96,0,.96Zm0,39.08c-.91,0-.91-1.6,0-1.6.61,0,.61,1.6,0,1.6Zm0,21.46c-.91,0-.91-1.6,0-1.6.61,0,.61,1.6,0,1.6Zm0,5.13c-.91,0-.91-.96,0-.96.61,0,.61.96,0,.96Zm0-266.54c0,.32.61.32.61,0,0-.96-.61-.96-.61,0Zm.61,207.59c-.61,0-.61-.96,0-.96.91,0,.91.96,0,.96Zm0,71.12c-.61,0-.61-1.6,0-1.6.91,0,.91,1.6,0,1.6Zm0,4.81c-.61,0-.61-2.24,0-2.24.91,0,.91,2.24,0,2.24Zm.91-30.43l-.91.96v-.96h.91Zm0-242.51c-.91,0-.91-1.28,0-1.28s.91,1.28,0,1.28Zm0,261.41c-.91,0-.91-1.28,0-1.28s.91,1.28,0,1.28Zm0-88.1q.91,0,.91-.32c0-1.28-1.82.32-.91.32Zm0-134.23c0-.64.91-.64.91,0,0,.96-.91.96-.91,0Zm1.52,207.59v.96c-1.52-.96-1.52-2.56-1.52-3.52.91,0,1.52.96,1.52,2.56Zm-.61-254.37c-.91,0-.91-.32,0-.32.61,0,.61.32,0,.32Zm0,194.46c.61,0,.61-1.6,0-1.6-.91,0-.91,1.6,0,1.6Zm0,65.03c-.91,0-.91-1.6,0-1.6.61,0,.61,1.6,0,1.6Zm0-82.65c0-.96.61-.96.61,0,0,1.28-.61,1.28-.61,0Zm.61,7.69c-.61,0-.61-1.92,0-1.92.91,0,.91,1.92,0,1.92Zm0,11.53c.91,0,.91-1.6,0-1.6-.61,0-.61,1.6,0,1.6Zm0,15.38c.91,0,.91-2.24,0-2.24-.61,0-.61,2.24,0,2.24Zm0,53.18c-.61,0-.61-1.92,0-1.92.91,0,.91,1.92,0,1.92Zm.91-98.35c2.43,1.6,3.04,7.05,3.04,9.61h-.61c0-.32-3.34-7.05-3.34-9.29l.91-.32Zm-.91,58.3c0-.96.91-.96.91,0,0,.64-.91.64-.91,0Zm1.52,4.17v.64c-.61-.64-1.52-1.6-1.52-2.24.91,0,1.52.64,1.52,1.6Zm-1.52,28.19c0-.96.91-.96.91,0s-.91.96-.91,0Zm.91-251.8c-.91,0-.91-1.28,0-1.28.61,0,.61,1.28,0,1.28Zm0,256.93c-.91,0-.91-1.6,0-1.6.61,0,.61,1.6,0,1.6Zm0,5.13c-.91,0-.91-1.92,0-1.92.61,0,.61,1.92,0,1.92Zm.61-270.06h-.61v-.96l.61.96Zm0,205.35c0-.32,1.82-1.92,1.82-2.88l-.91-1.6c-1.52,0-1.52.64-1.52,1.6s0,1.6.61,2.88Zm0,56.06l-.61.96v-.96h.61Zm0,5.13c-.61,0-.61-1.6,0-1.6.91,0,.91,1.6,0,1.6Zm.91-77.53v2.56c-.91,0-.91-1.6-.91-2.56h.91Zm0-179.4c-.91,0-.91-1.6,0-1.6s.91,1.6,0,1.6Zm0,3.52c-.91,0-.91-1.28,0-1.28s.91,1.28,0,1.28Zm0,39.08c-.91,0-.91-1.6,0-1.6s.91,1.6,0,1.6Zm0,155.37c.91,0,.91-2.24,0-2.24s-.91,2.24,0,2.24Zm0,66.96c-.91,0-.91-.32,0-.32s.91.32,0,.32Zm.91-272.95h-.91c0-1.28.91-1.6,1.52-1.6,0,.32,0,1.6-.61,1.6Zm0,225.85l1.52.64c0,.96-1.52.96-2.43.96v-1.6h.91Zm-.91,49.34c0-.96.91-.96.91,0,0,.32-.91.32-.91,0Zm1.52,2.88v1.28l-1.52-1.28h1.52Zm-.61-229.06c-.91,0-.91-1.6,0-1.6.61,0,.61,1.6,0,1.6Zm.61,142.56l-.61.96v-1.92l.61.96Zm-.61,85.22c0-1.28.61-1.28.61,0,0,.32-.61.32-.61,0Zm.61-81.05c-.61,0-.61-1.6,0-1.6.91,0,.91,1.6,0,1.6Zm3.34-185.17c-.91.96-1.52.96-2.43.96h-.91c.91-.96,1.82-.96,2.43-.96h.91Zm-3.34,40.04c.91-.64,1.82-1.6,3.34-1.6,0,.96-2.43,1.6-3.34,1.6Zm.91,179.4l-.91,1.6v-.96c0-.64,0-1.6.91-1.6v.96Zm0,20.5v-1.6c0-1.6,0-2.56-.91-4.17v1.28c0,2.56,0,2.88.91,4.49Zm0-16.34c-.91,0-.91-1.6,0-1.6s.91,1.6,0,1.6Zm0,5.12c.91,0,.91-2.24,0-2.24s-.91,2.24,0,2.24Zm0,42.61c-.91,0-.91-2.24,0-2.24s.91,2.24,0,2.24Zm0-101.23c2.73,1.28,2.73,6.73,2.73,9.93h-.3c-.91-3.2-2.43-4.81-2.43-8.33v-1.6Zm.91-183.25c-.91,0-.91-1.6,0-1.6.61,0,.61,1.6,0,1.6Zm0,21.46c-.91,0-.91-1.6,0-1.6.61,0,.61,1.6,0,1.6Zm0,181c-.91,0-.91-.64,0-.64.61,0,.61.64,0,.64Zm0,41.97c.61,0,.61-2.24,0-2.24-.91,0-.91,2.24,0,2.24Zm0,10.57c.61,0,.61-.96,0-.96-.91,0-.91.96,0,.96Zm0-254.04c-.91,0,.61-1.6.61-.96q0,.96-.61.96Zm0,8.01c-.91,0,.61-1.28.61-.96q0,.96-.61.96Zm0,39.08c0-.64.61-.64.61,0,0,.96-.61.96-.61,0Zm0,133.91c0-1.28.61-1.28.61,0,0,.32-.61.32-.61,0Zm0,47.09c0-1.6,1.82-3.2,3.95-3.2v4.17h-2.13c0,3.2,1.22,5.12,1.22,8.33h-1.22l-1.21-8.33-.61-.96Zm.61-22.75c-.61,0-.61-1.28,0-1.28.91,0,.91,1.28,0,1.28Zm1.21-11.21c2.13,0,1.22,2.56,1.22,2.56v2.24c0-.64,0-3.2-1.52-4.16l.3-.64Zm-.3,69.2l.3,2.24v1.92c-.3-.96-.3-1.92-.3-3.52v-.64Zm.3-259.17c-.3,0-.3-1.6,0-1.6,1.22,0,1.22,1.6,0,1.6Zm1.22,10.57c-1.22,0-1.22-1.6,0-1.6.91,0,.91,1.6,0,1.6Zm0,197.34c-1.22,0-1.22-1.6,0-1.6.91,0,.91,1.6,0,1.6Zm0,8.65c-1.22,0-1.22-1.92,0-1.92.91,0,.91,1.92,0,1.92Zm0,1.6c-1.22,0-1.22-1.6,0-1.6.91,0,.91,1.6,0,1.6Zm0,17.62c-1.22,0-1.22-1.6,0-1.6.91,0,.91,1.6,0,1.6Z"/></g></svg>