<?xml version="1.0" encoding="UTF-8"?><svg id="OG" xmlns="http://www.w3.org/2000/svg" viewBox="0 0 512 512"><defs><style>.cls-1{fill:#fff;}</style></defs><path class="cls-1" d="m361.11,276.47c.61,0,.61-1.6,0-1.6-.91,0-.91,1.6,0,1.6Z"/><path class="cls-1" d="m349.87,344.71c-.91,0-.91,1.6,0,1.6,1.22,0,1.22-1.6,0-1.6Z"/><path class="cls-1" d="m359.59,279.03c.61,0,.61-1.92,0-1.92-.91,0-.91,1.92,0,1.92Z"/><path class="cls-1" d="m349.87,347.27c-.91,0-.91,1.6,0,1.6,1.22,0,1.22-1.6,0-1.6Z"/><path class="cls-1" d="m356.25,279.67l.91-.64h.61v-.96c-.61,0-2.43.96-2.43,1.6h.91Z"/><path class="cls-1" d="m349.63,337.09c-.03-.37-.25-.71-.67-.71-.3,0-.3,1.6,0,1.6.09,0,.16-.03.23-.05.01-.36.16-.71.44-.84Z"/><path class="cls-1" d="m351.39,347.27c.91,0,.91-1.6,0-1.6-.3,0-.3,1.6,0,1.6Z"/><path class="cls-1" d="m351.08,342.15c-1.22,0-1.22,1.6,0,1.6.3,0,.3-1.6,0-1.6Z"/><path class="cls-1" d="m349.87,340.54l-.91.96,2.13-.96h-1.22Z"/><path class="cls-1" d="m363.54,275.51c.61,0,.61-1.6,0-1.6-.91,0-.91,1.6,0,1.6Z"/><path class="cls-1" d="m372.35,259.17c-.91,0-.91,1.6,0,1.6.61,0,.61-1.6,0-1.6Z"/><path class="cls-1" d="m351.39,96.75c.91,0,.91-2.24,0-2.24-.3,0-.3,2.24,0,2.24Z"/><polygon class="cls-1" points="347.13 99.63 346.22 99.63 346.22 100.59 347.13 99.63"/><path class="cls-1" d="m352.3,87.46c1.21,0,1.21-2.24,0-2.24-.91,0-.91,2.24,0,2.24Z"/><polygon class="cls-1" points="371.44 268.78 370.53 269.74 371.44 269.74 371.44 268.78"/><path class="cls-1" d="m366.58,274.87c.91,0,.91-1.92,0-1.92-.61,0-.61,1.92,0,1.92Z"/><path class="cls-1" d="m349.87,337.02c-.09,0-.17.03-.24.07.03.35-.11.72-.44.84-.02.5.2,1.01.68,1.01.44,0,.72-.26.84-.58-.08-.37-.16-.73-.23-1.1-.15-.14-.34-.24-.61-.24Z"/><path class="cls-1" d="m372.35,271.35c-.91,0-.91,1.6,0,1.6.61,0,.61-1.6,0-1.6Z"/><path class="cls-1" d="m334.98,349.83c-.61,0-.61,1.6,0,1.6.91,0,.91-1.6,0-1.6Z"/><polygon class="cls-1" points="343.79 349.83 344.7 348.87 343.79 348.87 343.79 349.83"/><path class="cls-1" d="m338.32,363.29c.61,0,.61-1.6,0-1.6-.91,0-.91,1.6,0,1.6Z"/><path class="cls-1" d="m342.58,347.27c1.21,0,1.21-.96,0-.96-.3,0-.3.96,0,.96Z"/><path class="cls-1" d="m334.37,361.69c-.91,0-.91.32,0,.32.61,0,.61-.32,0-.32Z"/><path class="cls-1" d="m336.5,343.11c0,1.6,0,4.16.91,5.77l.91-.64-.91-2.56c0-.96.91-2.56.91-2.56h-1.82Z"/><path class="cls-1" d="m332.55,354.96v1.6h.91c0-.96,0-1.6-.91-1.6Z"/><path class="cls-1" d="m353.82,91.62c.91,0,.91-1.6,0-1.6-.3,0-.3,1.6,0,1.6Z"/><path class="cls-1" d="m354.73,347.27c0-.96-.91-3.52-.91-4.16-.3-5.13-3.95-17.3-3.95-17.3l-.91-2.24c0,1.28-.3,2.56-.3,3.84,0,0,0,2.56.3,2.56v-2.56c0,.62.56,5.23,1.52,9.85.29.27.37.73.23,1.1,1.02,4.61,2.41,8.91,4.02,8.91Z"/><path class="cls-1" d="m334.37,363.61c-.91,0-.91.96,0,.96.61,0,.61-.96,0-.96Z"/><path class="cls-1" d="m334.37,356.88l-.91,2.24v.32h1.52c-.61,0-.61-1.28-.61-2.56Z"/><polygon class="cls-1" points="348.96 343.75 348.96 343.11 347.13 343.11 347.13 343.75 347.44 346.31 348.96 343.75"/><path class="cls-1" d="m347.13,321.64c-.91,0-.91.64,0,.64.3,0,.3-.64,0-.64Z"/><path class="cls-1" d="m348.65,331.25v4.17h.3c0-1.6,0-2.88-.3-4.17Z"/><polygon class="cls-1" points="345.01 353.04 344.7 353.04 345.01 354 345.01 353.04"/><path class="cls-1" d="m346.22,330.29c-1.21,0-1.21,2.24,0,2.24.91,0,.91-2.24,0-2.24Z"/><path class="cls-1" d="m347.13,312.35c-.91,0-.91,2.56,0,2.56.3,0,.3-2.56,0-2.56Z"/><path class="cls-1" d="m347.44,316.52v1.6c0,1.6,0,2.56,1.21,4.17v-2.56c0-.64,0-2.56-1.21-3.2Z"/><path class="cls-1" d="m347.44,325.81c1.21,0,1.21-2.24,0-2.24-.3,0-.3,2.24,0,2.24Z"/><path class="cls-1" d="m376.6,264.62c1.21,0,1.21-1.28,0-1.28-.3,0-.3,1.28,0,1.28Z"/><path class="cls-1" d="m403.03,284.8c-.91,0-.91,1.6,0,1.6s.91-1.6,0-1.6Z"/><path class="cls-1" d="m403.94,288.97c.61,0,.61-.64,0-.64-.91,0-.91.64,0,.64Z"/><path class="cls-1" d="m404.55,291.53c.91,0,.91-1.28,0-1.28-.61,0-.61,1.28,0,1.28Z"/><path class="cls-1" d="m402.12,288.97c.91,0,.91-1.6,0-1.6-.61,0-.61,1.6,0,1.6Z"/><path class="cls-1" d="m400.6,283.2c0,.64.91,1.6,1.52,1.6,0-.96-.61-1.6-1.52-1.6Z"/><path class="cls-1" d="m376.3,259.49c.3,0,.3-1.28,0-1.28-.91,0-.91,1.28,0,1.28Z"/><path class="cls-1" d="m373.87,268.78h-.91c0,.96.91,1.6,1.22,1.6,0-.64,0-1.6-.3-1.6Z"/><path class="cls-1" d="m393.31,268.78v-.32c0-1.28-1.52-4.81-1.52-5.13,0-1.28-.61-3.84-1.52-3.84v1.6c-.43.64-1.57,1.52-3.02,2.44l1.5-.2-.91,1.28h-.91l-.4-.63c-3.6,2.19-8.61,4.48-10.23,4.48v1.28h.3c0,1.6-1.22,1.6-2.73,2.56h1.52c5.17,0,10.03-2.56,15.8-2.56v.64c.61,0,2.13-1.6,2.13-1.6Zm-12.76.96l-.3-.96h.3v.96Zm4.86-1.28v-2.56l.91,1.28-.91,1.28Zm3.34,0c-.91,0-.91-2.24,0-2.24.61,0,.61,2.24,0,2.24Zm.61-2.56c0-1.28.91-1.28.91,0,0,.32-.91.32-.91,0Z"/><path class="cls-1" d="m387.84,272.31c.91,0,.91-1.92,0-1.92s-.91,1.92,0,1.92Z"/><path class="cls-1" d="m425.21,325.81c.61,0,.61-.96,0-.96-.91,0-.91.96,0,.96Z"/><path class="cls-1" d="m420.35,314.92c.61,0,.61-1.92,0-1.92-.91,0-.91,1.92,0,1.92Z"/><path class="cls-1" d="m417.92,319.72v-.64c0-3.52-.91-6.73-2.43-9.29v.64c0,3.52,0,8.65,2.43,9.29Z"/><path class="cls-1" d="m376.3,219.77c.3,0,.3-1.6,0-1.6-.91,0-.91,1.6,0,1.6Z"/><path class="cls-1" d="m414.58,308.83c0-1.6,0-5.13-1.52-5.13,0,1.92,0,5.13,1.52,5.13Z"/><path class="cls-1" d="m408.2,302.1l-.3-2.56h-.91l.91,3.52.3-.96Z"/><rect class="cls-1" x="412.75" y="302.1" width=".3" height=".96"/><path class="cls-1" d="m406.38,295.05l-.91-2.56v1.6c0,.96,0,2.56.91,2.56v-1.6Z"/><polygon class="cls-1" points="406.98 296.97 406.38 297.94 406.98 297.94 406.98 296.97"/><path class="cls-1" d="m378.73,256.93c0-.32-.91-.32-.91,0,0,1.28.91,1.28.91,0Z"/><path class="cls-1" d="m390.27,252.44c-.91,0-.91,1.6,0,1.6s.91-1.6,0-1.6Z"/><path class="cls-1" d="m381.46,254.37h4.86c-.91-.32-1.22-.32-2.43-.32-.91,0-1.22,0-2.43.32Z"/><polygon class="cls-1" points="425.21 318.12 425.21 319.72 425.82 319.72 425.21 318.12"/><path class="cls-1" d="m383.89,258.21c1.21,0,1.21-1.28,0-1.28-.91,0-.91,1.28,0,1.28Z"/><path class="cls-1" d="m380.25,263.66c0,.96.3.96.3,0,0-.32-.3-.32-.3,0Z"/><path class="cls-1" d="m372.35,74c.61,0,.61-1.92,0-1.92-.91,0-.91,1.92,0,1.92Z"/><path class="cls-1" d="m391.79,254.37c0-.32-.61-.32-.61,0,0,1.28.61,1.28.61,0Z"/><path class="cls-1" d="m361.72,83.94c.91,0,.91-1.6,0-1.6-.61,0-.61,1.6,0,1.6Z"/><path class="cls-1" d="m335.89,341.5c.61,0,.61-.96,0-.96-.91,0-.91.96,0,.96Z"/><path class="cls-1" d="m392.7,255.65c-.91,0-.91,1.28,0,1.28.61,0,.61-1.28,0-1.28Z"/><path class="cls-1" d="m387.84,63.75c.91,0,.91-1.6,0-1.6s-.91,1.6,0,1.6Z"/><path class="cls-1" d="m387.84,253.08c.91,0,.91-1.6,0-1.6s-.91,1.6,0,1.6Z"/><path class="cls-1" d="m360.2,83.94c.91,0,.91-1.6,0-1.6-.61,0-.61,1.6,0,1.6Z"/><path class="cls-1" d="m388.75,254.37c.61,0,.61-.32,0-.32-.91,0-.91.32,0,.32Z"/><path class="cls-1" d="m386.32,256.93l-.91,2.24v.32l3.34-1.28-1.82-1.28h-.61Z"/><path class="cls-1" d="m386.32,252.44c-.91,0-.91,1.6,0,1.6.61,0,.61-1.6,0-1.6Z"/><path class="cls-1" d="m387.84,261.09c.91,0,.91-1.6,0-1.6s-.91,1.6,0,1.6Z"/><path class="cls-1" d="m385.41,261.09c0,.96.91.96.91,0,0-.32-.91-.32-.91,0Z"/><polygon class="cls-1" points="379.03 255.65 378.73 255.65 380.55 258.21 382.68 256.61 380.25 255.65 379.03 255.65"/><path class="cls-1" d="m125.37,128.79l-1.82.64h.91l1.52-.64h-.61Z"/><path class="cls-1" d="m153.62,173.64c-.61,0-.61,1.92,0,1.92.91,0,.91-1.92,0-1.92Z"/><path class="cls-1" d="m152.1,173.64c-.91,0-.91,1.92,0,1.92s.91-1.92,0-1.92Z"/><path class="cls-1" d="m123.54,180.04c0-.32-.61-.32-.61,0,0,1.28.61,1.28.61,0Z"/><path class="cls-1" d="m121.42,180.04c-.91,0-.91,2.24,0,2.24.61,0,.61-2.24,0-2.24Z"/><path class="cls-1" d="m182.18,178.76c-.91,0-.91,1.28,0,1.28.61,0,.61-1.28,0-1.28Z"/><path class="cls-1" d="m174.89,171.39c0-.96-.91-.96-.91,0,0,.64.91.64.91,0Z"/><path class="cls-1" d="m161.52,174.6c-.61,0-.61,1.6,0,1.6.91,0,.91-1.6,0-1.6Z"/><polygon class="cls-1" points="183.7 155.7 185.21 155.7 184.61 154.41 183.7 155.7"/><path class="cls-1" d="m156.05,173.64c-.91,0-.91,1.92,0,1.92s.91-1.92,0-1.92Z"/><path class="cls-1" d="m172.15,367.13c-2.13,0-6.38,0-6.38,2.56,1.52,0,5.47-.96,6.38-2.56Z"/><path class="cls-1" d="m185.21,365.21c-.61,0-1.52.96-2.43,1.92.91,0,1.82-.96,2.43-1.92Z"/><path class="cls-1" d="m169.72,372.9c.3,0,.3-1.6,0-1.6-.91,0-.91,1.6,0,1.6Z"/><path class="cls-1" d="m186.73,365.21c.91,0,.91-1.6,0-1.6-.61,0-.61,1.6,0,1.6Z"/><path class="cls-1" d="m176.1,366.17c0-.96-2.13.96-1.21.96q1.21,0,1.21-.96Z"/><path class="cls-1" d="m180.35,369.7h-1.82l-1.22-.96-1.22.96v-.96c-2.43,1.6-2.43,0-4.86,2.56h2.73c2.13,0,5.77.64,6.38-1.6Z"/><path class="cls-1" d="m165.77,371.3c0,.64.61.64.61,0,0-.96-.61-.96-.61,0Z"/><path class="cls-1" d="m167.59,365.21c0-.64-1.22-.64-1.22,0,0,.96,1.22.96,1.22,0Z"/><path class="cls-1" d="m192.51,162.1c-.91,0-.91,1.6,0,1.6.61,0,.61-1.6,0-1.6Z"/><polygon class="cls-1" points="186.13 156.98 186.73 156.02 186.13 156.02 186.13 156.98"/><path class="cls-1" d="m62.17,376.42c.57,0,.6-1.68.1-1.88-.15.05-.31.09-.48.13-.49.45-.37,1.76.38,1.76Z"/><path class="cls-1" d="m2.93,218.49c0,1.28,0,6.41.61,6.41h.91l-.91-6.73-.61-.96v1.28Z"/><path class="cls-1" d="m127.8,350.47l.08-.17s-.05.01-.08.02v.15Z"/><path class="cls-1" d="m125.97,351.44c.38,0,.59-.39.66-.85-.35.07-.71.14-1.07.21.06.36.2.64.41.64Z"/><path class="cls-1" d="m165.77,373.86c-.91,0-.91,1.6,0,1.6.61,0,.61-1.6,0-1.6Z"/><path class="cls-1" d="m401.51,287.36c.61,0,.61-.96,0-.96-.31,0-.5.11-.6.26.05.19.09.39.14.58.11.07.26.12.46.12Z"/><path class="cls-1" d="m400,281.6v-.96h-.65c.04.13.08.27.11.4l.53.56Z"/><path class="cls-1" d="m172.16,376.17c.09-.07.17-.15.25-.22-.07-.37-.22-.3-.25.22Z"/><path class="cls-1" d="m95.29,358.48c.61,0,.61-1.6,0-1.6-.91,0-.91,1.6,0,1.6Z"/><path class="cls-1" d="m188.56,160.18c.61,0,.61-1.6,0-1.6-.91,0-.91,1.6,0,1.6Z"/><path class="cls-1" d="m190.08,163.71c-.91,0-.91.96,0,.96s.91-.96,0-.96Z"/><path class="cls-1" d="m336.5,336.38c.91,0,.91-1.28,0-1.28-.61,0-.61,1.28,0,1.28Z"/><path class="cls-1" d="m194.02,140.32c-.91,0-.91,1.92,0,1.92s.91-1.92,0-1.92Z"/><path class="cls-1" d="m194.94,362.01h-.91l-.91,1.28,1.82-1.28Z"/><path class="cls-1" d="m191.59,156.98c-.61,0-.61,1.6,0,1.6.91,0,.91-1.6,0-1.6Z"/><path class="cls-1" d="m191.59,166.91c.91,0,.91-1.6,0-1.6-.61,0-.61,1.6,0,1.6Z"/><path class="cls-1" d="m193.11,167.87c.91,0,.91-1.6,0-1.6-.61,0-.61,1.6,0,1.6Z"/><polygon class="cls-1" points="188.56 158.26 188.56 156.98 187.65 156.98 188.56 158.26"/><path class="cls-1" d="m323.13,359.44l-.91-.32v.32c0,2.56.91,4.17,1.52,6.73l.91-1.6,1.52,1.28c.91,0,.91-2.24.91-2.24,0-1.92.91-5.45-1.52-6.73v2.56c-.91,0-.91,2.24-1.82-1.28l-.61,1.28Zm.61,4.17c-.61,0-.61-1.6,0-1.6.91,0,.91,1.6,0,1.6Z"/><path class="cls-1" d="m327.99,356.56c-.91,0-.91,1.6,0,1.6.61,0,.61-1.6,0-1.6Z"/><path class="cls-1" d="m327.99,355.6c0-.64-1.82-.64-1.82,0,0,.96,1.82.96,1.82,0Z"/><path class="cls-1" d="m324.65,356.56c.91,0,.91-1.6,0-1.6s-.91,1.6,0,1.6Z"/><path class="cls-1" d="m318.27,196.7c-.91,0-.91.32,0,.32,1.21,0,1.21-.32,0-.32Z"/><path class="cls-1" d="m319.49,199.59c.3,0,.3-1.6,0-1.6-1.21,0-1.21,1.6,0,1.6Z"/><path class="cls-1" d="m325.56,347.27c-.91,0-.91,1.6,0,1.6.61,0,.61-1.6,0-1.6Z"/><path class="cls-1" d="m327.99,359.44c.61,0,.61-1.28,0-1.28-.91,0-.91,1.28,0,1.28Z"/><path class="cls-1" d="m328.6,361.69c.91,0,.91-2.24,0-2.24-.61,0-.61,2.24,0,2.24Z"/><path class="cls-1" d="m326.17,351.44c.91,0,.91-.96,0-.96-.61,0-.61.96,0,.96Z"/><path class="cls-1" d="m338.93,343.11c-.61,0-.61,1.6,0,1.6.91,0,.91-1.6,0-1.6Z"/><path class="cls-1" d="m338.32,340.54c-.91,0-.91.96,0,.96.61,0,.61-.96,0-.96Z"/><path class="cls-1" d="m337.41,361.69v-2.24h-.91c0,1.28,0,2.24.91,2.24Z"/><path class="cls-1" d="m336.5,358.16c.91,0,.91-1.6,0-1.6-.61,0-.61,1.6,0,1.6Z"/><path class="cls-1" d="m327.08,224.89c-.91,0-.91.96,0,.96s.91-.96,0-.96Z"/><path class="cls-1" d="m338.93,345.67c-.61,0-.61,1.6,0,1.6.91,0,.91-1.6,0-1.6Z"/><path class="cls-1" d="m319.49,346.31c.3,0,.3-.64,0-.64-1.21,0-1.21.64,0,.64Z"/><path class="cls-1" d="m331.94,354.96c.61,0,.61-1.92,0-1.92-.91,0-.91,1.92,0,1.92Z"/><path class="cls-1" d="m306.73,360.73c.61,0,.61-1.28,0-1.28-.91,0-.91,1.28,0,1.28Z"/><path class="cls-1" d="m202.84,359.44c.91,0,.91-1.28,0-1.28-1.22,0-1.22,1.28,0,1.28Z"/><path class="cls-1" d="m307.33,345.67c-.61,0-.61,1.6,0,1.6.91,0,.91-1.6,0-1.6Z"/><path class="cls-1" d="m275.13,296.97l1.52,2.24.3-1.28c0-.96-.3-.96-1.22-.96h-.61Z"/><path class="cls-1" d="m279.08,299.22c.3,0,.3-2.24,0-2.24-.91,0-.91,2.24,0,2.24Z"/><path class="cls-1" d="m258.12,296.65c.91,0,.91-1.6,0-1.6-.61,0-.61,1.6,0,1.6Z"/><path class="cls-1" d="m205.27,358.16c.91,0,.91-1.28,0-1.28-1.21,0-1.21,1.28,0,1.28Z"/><path class="cls-1" d="m252.65,292.81c-.91,0-.91,2.24,0,2.24,1.21,0,1.21-2.24,0-2.24Z"/><path class="cls-1" d="m252.65,297.94c-.91,0-.91,1.28,0,1.28,1.21,0,1.21-1.28,0-1.28Z"/><path class="cls-1" d="m306.73,350.47c.61,0,.61-1.6,0-1.6-.91,0-.91,1.6,0,1.6Z"/><path class="cls-1" d="m309.16,351.44c.61-.96,1.52-2.56,1.52-3.2l-1.52.64-.91-.64v.64c0,.96,0,1.6.91,2.56Z"/><path class="cls-1" d="m307.33,350.47c-.61,0-.61,1.92,0,1.92.91,0,.91-1.92,0-1.92Z"/><path class="cls-1" d="m307.33,361.69l-.61,1.6c0,.32.61,1.28,1.52,2.56v-2.24c0-.32,0-1.6-.91-1.92Z"/><polygon class="cls-1" points="319.79 347.27 319.79 349.83 320.7 348.23 319.79 347.27"/><path class="cls-1" d="m309.77,333.82c0,1.28.91,1.28.91,0,0-.96-.91-.96-.91,0Z"/><path class="cls-1" d="m319.79,200.55c-.3,0-.3.64,0,.64.91,0,.91-.64,0-.64Z"/><path class="cls-1" d="m449.51,348.87c1.18,0,1.2-1.5.09-1.59-.25.18-.49.32-.7.43-.19.47.01,1.16.61,1.16Z"/><path class="cls-1" d="m308.25,367.13q.91,0,.91-.96c0-.32-1.82.96-.91.96Z"/><path class="cls-1" d="m197.97,363.29v-1.28l-.61-.96h-.91l1.52,2.24Z"/><path class="cls-1" d="m471.08,339.58c.3,0,.3-1.6,0-1.6-.91,0-.91,1.6,0,1.6Z"/><path class="cls-1" d="m471.08,337.02c.3,0,.3-.64,0-.64-.91,0-.91.64,0,.64Z"/><path class="cls-1" d="m471.39,356.56c-.3,0-.3,1.6,0,1.6,1.21,0,1.21-1.6,0-1.6Z"/><path class="cls-1" d="m471.08,323.56c-.91,0-.91,2.24,0,2.24.3,0,.3-2.24,0-2.24Z"/><path class="cls-1" d="m471.39,326.13c-.3,0-.3,2.24,0,2.24,1.21,0,1.21-2.24,0-2.24Z"/><path class="cls-1" d="m491.44,356.56l.02.04s.01-.03.02-.04h-.04Z"/><path class="cls-1" d="m494.78,347.27c-.86,0-.9,1.4-.15,1.57.17-.43.33-.87.49-1.3-.08-.16-.19-.27-.35-.27Z"/><path class="cls-1" d="m473.82,355.6c-.3-3.2,2.13-4.17,4.86-4.17l1.21.96c0-.96,1.22-2.56,1.22-3.52l-.91-1.6-.3-.96v-.64l2.73-2.56v-.96l-1.52-.64c1.52,1.6-3.65,4.8-4.86,5.77h1.52c0,.96.91,3.2-.3,3.2l-1.22-.64-1.93.51c-.14.07-.29.13-.5.13h-.3v-.64l-2.13.64h-.3l-.91-.64v-.96c0-.64,3.34-1.6,4.86-1.6l-1.21-.96c-.3,0-2.43-.64-2.43-.64,0,0-1.82,3.2-1.82,4.17,0,5.13,3.04,2.56,4.25,5.77Z"/><path class="cls-1" d="m490.53,351.44c-.61,0-.61,1.6,0,1.6.91,0,.91-1.6,0-1.6Z"/><path class="cls-1" d="m475.95,330.29c-.91,0-.91,2.24,0,2.24.3,0,.3-2.24,0-2.24Z"/><path class="cls-1" d="m473.82,335.1c0-1.28-.3-1.28-.3,0,0,.32.3.32.3,0Z"/><path class="cls-1" d="m473.51,345.67c.3,0,.3-1.92,0-1.92-.91,0-.91,1.92,0,1.92Z"/><path class="cls-1" d="m471.39,329.97c-.3,0-.3.32,0,.32,1.21,0,1.21-.32,0-.32Z"/><path class="cls-1" d="m473.51,342.15l-2.13-2.56v.96c0,.96,0,1.6,2.13,1.6Z"/><path class="cls-1" d="m472.6,332.53c.91,0,.91-2.24,0-2.24-1.21,0-1.21,2.24,0,2.24Z"/><path class="cls-1" d="m473.51,328.69c.3,0,.3-1.28,0-1.28-.91,0-.91,1.28,0,1.28Z"/><path class="cls-1" d="m473.82,330.29c-.3,0-.3,2.24,0,2.24,1.21,0,1.21-2.24,0-2.24Z"/><path class="cls-1" d="m473.82,324.85c-.3,0-.3,1.28,0,1.28,1.21,0,1.21-1.28,0-1.28Z"/><path class="cls-1" d="m473.82,348.87c-.3,0-.3,1.6,0,1.6l.5-.13c.67-.37.52-1.47-.5-1.47Z"/><path class="cls-1" d="m477.77,368.42c0-1.28-.3-1.28-.3,0,0,.32.3.32.3,0Z"/><polygon class="cls-1" points="471.39 379.63 471.39 380.59 472.6 379.63 471.39 379.63"/><path class="cls-1" d="m471.39,372.26c1.21,0,1.21-1.28,0-1.28-.3,0-.3,1.28,0,1.28Z"/><path class="cls-1" d="m472.6,381.55l-1.52.64c0,.96.3.96,1.52.96v-1.6Z"/><rect class="cls-1" x="473.82" y="378.03" width="1.21" height=".96"/><path class="cls-1" d="m476.25,371.3c-.3,0-.3,1.6,0,1.6,1.22,0,1.22-1.6,0-1.6Z"/><path class="cls-1" d="m476.25,374.82c1.22,0,1.22-1.92,0-1.92-.3,0-.3,1.92,0,1.92Z"/><path class="cls-1" d="m472.6,368.74c-1.21,0-1.21,2.24,0,2.24.91,0,.91-2.24,0-2.24Z"/><path class="cls-1" d="m473.51,387.32c.3,0,.3-1.6,0-1.6-.91,0-.91,1.6,0,1.6Z"/><path class="cls-1" d="m473.51,363.29l-2.13.32c1.21,2.24,2.43.96,2.43,2.56,0,2.24-.3,3.52-.3,5.13,0,.96,0,1.6.3,1.6-.3-3.2,3.65-7.05,6.08-9.29-2.13,2.24-2.43-1.92-2.43-2.88,0-1.28,1.21-3.84,1.21-4.16-1.21,0-.91,2.56-2.43,2.88l-.3-.32-2.43,2.56c.3,0,.3.32.3,1.6v.32l-.3-.32Zm2.73-1.28c1.22,0,1.22,1.6,0,1.6-.3,0-.3-1.6,0-1.6Z"/><path class="cls-1" d="m478.68,363.29c1.52-2.56,3.95-8.33,6.38-8.33v-1.92h-2.73l-1.21-.64c1.52,4.49-2.43,5.77-2.43,9.29v1.6Z"/><path class="cls-1" d="m475.03,356.88l-1.21,1.28h1.21l.91-1.28h-.91Z"/><path class="cls-1" d="m471.39,359.44c1.21,0,1.21-1.28,0-1.28-.3,0-.3,1.28,0,1.28Z"/><path class="cls-1" d="m479.89,354c-1.21,0-1.21,1.6,0,1.6.3,0,.3-1.6,0-1.6Z"/><path class="cls-1" d="m483.54,348.87c.61,0,.61-1.6,0-1.6-.91,0-.91,1.6,0,1.6Z"/><path class="cls-1" d="m482.63,352.4c.91,0,.91-1.92,0-1.92-.3,0-.3,1.92,0,1.92Z"/><path class="cls-1" d="m477.77,369.7h-.3c0,1.28.3,2.56.3,3.2v.96l-.3.96.3.64c-.3,0-.3,1.92-.3,1.92,0,.64,0,2.24.3,2.24-.3,0-3.95.96-3.95,1.92v.64c0,.96,1.21,3.52,1.21,4.16.43,0,.98-.14,1.49-.29,1.82-3.07,3.58-6.19,5.27-9.34-.44-1.55-.68-3.06-.68-3.82.56,0,1.43.41,2.22.9.62-1.2,1.23-2.41,1.84-3.62-.8.72-1.78,1.12-2.54,1.12-2.43,0-2.73-1.6-4.86-1.6Zm-1.82,14.42v-.96c0-.96,0-1.6,1.52-1.6-1.52.64,0,1.6-1.52,2.56Zm3.95-4.49c-1.21,0-1.21-1.6,0-1.6.3,0,.3,1.6,0,1.6Zm0-4.81c-1.21,0-1.21-.96,0-.96.3,0,.3.96,0,.96Z"/><path class="cls-1" d="m475.03,374.82c-1.52,0-2.43-.96-3.95-.96,0,.96.3,1.6,1.52,1.6l-1.52,1.92h.3c1.21,0,3.65-.96,3.65-2.56Z"/><polygon class="cls-1" points="472.6 384.75 471.39 384.75 471.39 385.71 472.6 384.75"/><path class="cls-1" d="m456.81,340.54c-.91.96-1.82,1.6-1.82,2.56.91,0,1.82-.96,1.82-2.56Z"/><path class="cls-1" d="m465.31,387.32c.91,0,.91-1.6,0-1.6-.61,0-.61,1.6,0,1.6Z"/><path class="cls-1" d="m459.84,343.75l-1.52,1.92h-.91l-.61-.96h-.91c0,1.6.91,1.6,2.43,1.6.61,0,1.52-.64,1.52-2.56Z"/><path class="cls-1" d="m455.89,351.44c.91,0,.91-1.6,0-1.6s-.91,1.6,0,1.6Z"/><path class="cls-1" d="m475.95,346.31c.3,0,.3-1.6,0-1.6-.91,0-.91,1.6,0,1.6Z"/><path class="cls-1" d="m461.36,352.4v-.96c0,1.6-.61,2.56-2.43,2.56h.91c.91,0,1.52-.96,1.52-1.6Z"/><polygon class="cls-1" points="458.93 340.54 459.84 341.5 461.36 340.54 459.84 339.58 458.93 340.54"/><path class="cls-1" d="m460.76,337.02c.61,0,.61-1.6,0-1.6-.91,0-.91,1.6,0,1.6Z"/><path class="cls-1" d="m460.76,332.53c.61,0,.61-2.24,0-2.24-.91,0-.91,2.24,0,2.24Z"/><polygon class="cls-1" points="469.57 395 468.65 394.04 468.65 395.32 469.57 395"/><path class="cls-1" d="m460.42,410.11c.11-.15.23-.29.34-.44v-1.53c-.33,0-.6,0-.86.01.85.07.84,1.59-.06,1.59.28,0,.47.16.57.37Z"/><path class="cls-1" d="m48.5,146.73c26.43-12.17,55.6-9.61,74.43-18.9h-5.77c2.43-.96,4.25-.96,6.38-.96,3.34,0,4.25,1.92,6.38,1.92h1.82l1.52-.96.91.96h25.82v-1.92c2.43,0,3.34,1.92,5.77,1.92-.91,0-.91-1.92,0-1.92.61,0,.61,1.92,0,1.92,1.52,0,3.04,0,4.25-.96,0-.96-1.22-.96-2.43-.96,0-.64,2.43-2.56,3.65-2.56,1.22,5.13,7.29,4.48,10.94,4.48v.64h7.9c.91-.64,3.04-2.56,3.95-2.56,0,2.56,3.95,6.73,3.95,10.25,0,2.56-2.43,3.2-3.04,5.13,0,7.05,20.35,8.33,20.35,13.78-2.73,0-2.73.96-6.38,2.24h-.91l-1.52-1.28-.3,1.28h-.91c-5.47,0-9.72-7.69-16.1-7.69,0,5.13,2.43,2.88,7.29,6.41l-.91,1.28v.32h5.77c-.91,1.6-1.52,1.6-2.43,1.6-2.43,0-5.77-.64-7.9-.64h-.91c4.86,3.2,12.76,2.56,17.92,6.73l-2.73.64v-.64c-3.65,0-7.9-2.56-11.24-2.56h-.91c0,.96,1.82,2.56,1.82,2.56v.64l-.91.96c0,2.56,1.52,4.17,4.86,3.52,0,3.2-4.86,0-4.86,3.2,0,4.17,5.77,5.13,5.77,8.01v1.28l-.91.96c-2.43,0-3.34-2.56-5.77-2.56-1.52,0-2.13.32-3.95.32-6.99,0-14.28-3.84-21.87-3.84h-5.77l-1.52.96c2.43.32,12.46,1.6,12.46,4.16,0,.96,0,1.28-.3,1.28-10.63,0-20.96-6.41-30.08-6.41-7.9,0-14.28,3.84-22.48,3.84h-.61l.61-.32c-12.76,0-21.27,6.73-32.2,9.61,1.52,2.56,4.56,4.17,7.9,4.17h.61c.91,0,3.34-1.6,4.25-1.6h.61l-1.52,3.52c40.93,12.87,118.45,11.17,142.66,55.33,6.05-1.19,12.19-3.43,18.65-3.43-5.47-22.1-21.27-39.4-27.65-60.87-.61,0-1.52,0-1.52-1.28l.91-.32c0-4.16-2.43-9.29-3.95-12.81v-.64c0-6.09,7.9-19.86,12.76-24.03,2.43-1.92,7.9-6.73,7.9-6.73v-4.48l1.22.96s2.43-1.6,3.65-2.56l.3-.64-.3-2.56.3-.96c0,.96,2.13,2.56,2.43,2.56,3.95.96,20.05-5.13,24.91-6.73v-.96c0-.32-2.43-6.73-2.43-7.05v-.96c1.52,1.28,7.6,8.01,7.6,10.57,0,.96-.91.96-.91,2.56,0,4.16,4.86,11.85,8.81,11.85-.61,0-1.52.64-1.52,1.6,0,5.13,8.81,10.25,8.81,14.42,0,1.28-.91,1.28-.91,2.56,0,10.57,12.15,21.46,16.41,32.04v-2.56c.91,0,2.13,1.28,2.13,1.6.3.96,2.43,6.09,2.43,6.73v.96h-1.22c0,1.6,3.95,21.46,4.86,21.46l1.52-.32c1.52,0,1.52.32,1.52,1.6,0,.96,0,1.28-.61,1.28l.61,1.28-.61,2.88c0,2.24,0,2.56,1.52,2.56h.61c3.34-.32,17.32-5.13,20.96-5.45.3,0,2.73-1.28,2.73-1.6,3.95,0,7.29-4.81,12.76-3.52-.61-1.6,9.72-2.56,9.72-7.69,0-20.5-27.65-73.36-33.72-101.55,1.21-5.77-1.82-12.49-1.82-18.58v-.32c3.95,0,3.95-2.24,6.68-2.24,0-1.6-.3-2.88-2.43-2.88,0-1.28,0-2.56,1.21-2.56,1.22.96,2.73,3.52,2.73,5.13,0,.32-.3,1.28-1.52,1.28l1.52,1.28c3.34,0,2.43-2.56,3.34-5.13-.91.96-1.21-1.28-1.21-1.6,0-2.56,1.21-3.52,3.65-3.52l1.52.96v-.96c0-1.6-.91-3.2-2.43-4.16l1.52-.96h.91c5.47,1.92,1.52,0,2.43,1.92l.91.64s1.52-.64,2.13-.64l1.82-.96.61.96v.64c1.82,0,3.34-2.56,5.77-3.2h-3.34c0-1.6,2.43-.96,2.43-3.52l.91.96v-2.56h-2.43c.61,0,3.95-4.17,3.95-4.17,1.52,0,2.43,1.6,2.43,3.2.3-3.2,2.73-4.81,6.38-4.81l.3.64h.91c-.91,0-.91-1.6,0-1.6s1.11.84.72,1.3l.8-.34v-.96l-.3-2.56c0-2.56,8.51,0,4.25-5.13,1.82,2.24,4.25.96,5.77.96v-.96l-1.52-2.56c.61-.32,1.52-.32,2.13-.32,13.06,0,48.61,111.48,52.86,130.07,0,.64,2.13.64,2.43.64-.3.96-.3,1.28-.3,2.56v.96c0,1.6,1.21,4.48,1.21,4.48h2.43c4.86-1.6,18.23-6.73,24.3-6.73,0,0,1.52,0,1.52,1.28-.3-1.6,2.13-1.6,2.43-1.6h2.13l-2.13.32h.91c4.86,0,9.42-1.92,15.19-1.92l.91,1.6v.32c-1.82,2.24-.91,2.56-2.43,4.81h.61c2.43,0,4.86-2.24,7.29-2.24-.91,2.24-6.38,3.84-7.9,4.16l.61.96c-3.95,5.13-10.33,8.33-15.49,10.89h.3c3.95,0,7.29-3.2,11.24-3.2h.91c-3.34,2.56-1.82,1.6-6.38,4.16l.61.64,1.82-.64v1.6c0,1.28-3.1,3.2-6.47,5.19.11-.04.25-.07.4-.07.3,0,.3,1.6,0,1.6-1.06,0-1.2-1.23-.4-1.53-1.44.85-2.93,1.72-4.24,2.56-.02.31-.09.57-.22.57-.2,0-.35-.05-.48-.12-1.46.97-2.63,1.89-3.16,2.68h1.21c1.21,0,4.86-1.6,7.29-2.56,0,2.56-11.24,3.84-11.24,6.41,0,1.28.3,2.24,1.52,2.56-1.52,1.28-5.47,1.6-6.38,3.84h7.29c-2.13,1.28-5.77,4.48-7.29,8.01v.96l4.86-1.92c-1.52,1.92-3.95,3.52-4.86,6.09h2.43c.91,0,6.38-1.92,7.29-1.92h.3l-.3.96c-.91,0-4.56,1.6-4.86,1.6h2.43c1.52-.64,10.03-2.56,11.54-3.2,0,3.2-16.41,7.37-16.41,9.93v1.92c9.11,25.63,26.73,61.51,26.73,89.7v1.6l-.61,1.92c.12.5.3.96.53,1.4,10.77-28.3,16.69-58.99,16.69-91.07,0-18.5-1.98-36.53-5.71-53.91-.64-.2-.74-.96-.29-1.33C480.75,85.93,378.42,0,256,0S34.95,82.86,7.44,194.58c10.27-20.83,32.35-53.18,41.07-47.85Zm153.12,15.38c-.3,0-.3-.96,0-.96,1.22,0,1.22.96,0,.96Zm-3.65,16.02c0-.96.91-.96.91,0,0,.64-.91.64-.91,0Zm0-3.52v-.96l.91.96h-.91Zm-.61-9.29c0-.64,1.52-.64,1.52,0,0,.96-1.52.96-1.52,0Zm-93.27,21.14c.3,0,.3,1.28,0,1.28-.91,0-.91-1.28,0-1.28Zm-.91,5.45v-.32l1.22-1.28h1.22l-2.43,1.6Zm104.81-19.86c0,.96-1.52.96-1.52,0,0-.64,1.52-.64,1.52,0Zm-7.6,48.05h-.61l.61-.32v.32Zm-.61-48.05c1.82,0,10.33,1.6,10.33,5.13-3.65,0-10.33-.96-10.33-5.13Zm41.92,78.49c.91,0,.91,1.92,0,1.92-.61,0-.61-1.92,0-1.92Zm133.67-37.48c.91,0,.91,1.6,0,1.6-1.21,0-1.21-1.6,0-1.6Zm-4.86,5.13c.91,0,.91,1.6,0,1.6-.61,0-.61-1.6,0-1.6Zm-20.66,7.69q0,.32-.91.32c-.3,0,.91-1.28.91-.32Zm-5.16,1.6c.3,0,.3,1.28,0,1.28-.91,0-.91-1.28,0-1.28Zm124.86,8.97c-.91,0-.91-1.92,0-1.92.61,0,.61,1.92,0,1.92Zm6.68-10.57c-.3,0-.3-.96,0-.96,1.22,0,1.22.96,0,.96Zm2.43,15.38c-.91,0-.91-1.6,0-1.6,1.21,0,1.21,1.6,0,1.6Zm1.52-.64c-.3,0-.3-1.6,0-1.6.91,0,.91,1.6,0,1.6Zm2.13-.96c-1.21,0-1.21-1.6,0-1.6.3,0,.3,1.6,0,1.6Zm0-9.29c-1.21,0-1.21-.32,0-.32.3,0,.3.32,0,.32Zm1.22,9.29c-.91,0-.91-1.6,0-1.6.61,0,.61,1.6,0,1.6Zm1.52-27.23c.91,0,.91,1.6,0,1.6s-.91-1.6,0-1.6Zm.91,26.59c-.91,0-.91-1.92,0-1.92.61,0,.61,1.92,0,1.92Zm14.28-43.57c.91,0,.91,1.6,0,1.6s-.91-1.6,0-1.6Zm0,3.84c.91,0,.91,1.28,0,1.28s-.91-1.28,0-1.28Zm-1.52-5.13c.61,0,.61,1.28,0,1.28-.91,0-.91-1.28,0-1.28Zm-10.33,46.45c-.91,0-.91-1.6,0-1.6.61,0,.61,1.6,0,1.6Zm1.52,4.16c-.91,0-.91-1.6,0-1.6.61,0,.61,1.6,0,1.6Zm2.43-5.77h-1.82l1.82-.96v.96Zm0-22.42c-.91,0-.91-1.92,0-1.92.61,0,.61,1.92,0,1.92Zm1.52,21.46c0-.96.91-.96.91,0s-.91.96-.91,0Zm0-33.32h-.91l.91-.96h.91l-.91.96Zm2.43,32.36c0-.64.91-.64.91,0,0,.96-.91.96-.91,0Zm0-37.8h-2.43c0-.6.87-1.13,1.89-1.53-.3-.37-.12-1.04.54-1.04.46,0,.68.32.68.64.75-.2,1.43-.32,1.75-.32l.61.96c-.61,1.28-2.13,1.28-3.04,1.28Zm3.95,40.36c-.91,0-.91-1.6,0-1.6s.91,1.6,0,1.6Zm.91-1.6c-.91,0-.91-1.6,0-1.6.61,0,.61,1.6,0,1.6Zm.61,1.6c.91-.64,1.82-1.6,3.34-1.6,0,.96-2.43,1.6-3.34,1.6Zm1.82-31.72c-.91,0-.91-1.6,0-1.6.61,0,.61,1.6,0,1.6Zm.61,26.59c0,.96-.61.96-.61,0,0-.64.61-.64.61,0Zm-1.52-33.96h-.91c.91-.96,1.82-.96,2.43-.96h.91c-.91.96-1.52.96-2.43.96Zm1.52-6.09q0,.96-.61.96c-.91,0,.61-1.28.61-.96Zm-2.43-7.05c0,.32,0,1.6-.61,1.6h-.91c0-1.28.91-1.6,1.52-1.6Zm-3.04-.96l.61.96h-.61v-.96Zm-1.52,3.84c-.91,0-.91-.32,0-.32.61,0,.61.32,0,.32Zm-8.2-6.41c.91,0,.91,1.92,0,1.92-.61,0-.61-1.92,0-1.92Zm-4.86,2.56c0,.96-.61.96-.61,0,0-.64.61-.64.61,0Zm-94.79-128.14c0,.32-.61.32-.61,0,0-1.28.61-1.28.61,0Zm-21.27,10.57c.91,0,.91.96,0,.96-.61,0-.61-.96,0-.96Zm-4.56,8.33c-.91,0-.91-.64,0-.64.61,0,.61.64,0,.64Zm-.91-3.2c.91,0,.91,1.6,0,1.6s-.91-1.6,0-1.6Zm-23.7,17.62c.91,0,.91.32,0,.32-.61,0-.61-.32,0-.32Zm-6.99,137.11c-.91,0-.91-1.28,0-1.28.61,0,.61,1.28,0,1.28Zm-.91-2.56c.91,0,.91,1.6,0,1.6s-.91-1.6,0-1.6Zm-3.04-7.05c-.91,0-.91-1.92,0-1.92.61,0,.61,1.92,0,1.92Zm0-6.09c.61,0,.61.96,0,.96-.91,0-.91-.96,0-.96Zm-.91,2.56c.91,0,.91,1.6,0,1.6s-.91-1.6,0-1.6Zm-1.52-4.16c.61,0,.61,1.6,0,1.6-.91,0-.91-1.6,0-1.6Zm-2.43-5.13c-.91,0-.91-1.6,0-1.6.61,0,.61,1.6,0,1.6Zm-.91-3.2c.91,0,.91,1.6,0,1.6-.3,0-.3-1.6,0-1.6Zm-8.81-19.86v-.96l4.86,9.29h-1.22s-2.43-5.13-3.65-6.73v-1.6Zm-.3-2.56c.3,0,.3.64,0,.64-.91,0-.91-.64,0-.64Zm-.91-2.56c0,.96-1.22.96-1.22,0s1.22-.96,1.22,0Zm-3.95-6.73c.91.96,2.43,3.2,2.43,4.17v.96c-1.52-.96-2.43-2.56-2.43-4.16v-.96Zm-1.52-4.16c.61,0,.61,1.6,0,1.6-.91,0-.91-1.6,0-1.6Zm-1.82-2.56c.91,0,.91,1.6,0,1.6-.61,0-.61-1.6,0-1.6Zm-33.11-39.4c1.52.96.91,2.56,2.43,3.52l-.91,1.28h-.61c-.91,0-.91-2.24-.91-3.84v-.96Zm-81.71,3.52c-.91,0-.91-1.92,0-1.92s.91,1.92,0,1.92Zm-.91-3.52c.91,0,.91,1.6,0,1.6-.61,0-.61-1.6,0-1.6Zm-3.04,1.6c.61,0,.61,1.92,0,1.92-.91,0-.91-1.92,0-1.92Zm-3.34-1.6c.91,0,.91,1.6,0,1.6-.61,0-.61-1.6,0-1.6Zm-5.47.96c1.22,0,1.22,1.6,0,1.6-.91,0-.91-1.6,0-1.6Zm-17.32-1.92h.91l-1.52.96.61-.96Zm-2.43.96c.91,0,.91,1.6,0,1.6-.61,0-.61-1.6,0-1.6Zm-1.52.96l-1.52.64.61-.64h.91Zm-1.52-.96c0,.96-.91.96-.91,0s.91-.96.91,0Zm-2.43-1.6c.91,0,.91,1.6,0,1.6s-.91-1.6,0-1.6Zm-.91,2.56h.91l-.91.64v-.64Zm-1.52-6.09c.91,0,.91,2.24,0,2.24s-.91-2.24,0-2.24Zm0,3.52c.91,0,.91,1.6,0,1.6s-.91-1.6,0-1.6Zm-2.73,2.56c.3,0,.3,1.6,0,1.6-1.21,0-1.21-1.6,0-1.6Zm-10.94,0c1.21,0,1.21,1.6,0,1.6-.3,0-.3-1.6,0-1.6Zm-20.35,1.6c0,.96-.3.96-.3,0s.3-.96.3,0Zm-.3-5.13c0,.96-1.22.96-1.22,0,0-.32,1.22-.32,1.22,0Zm-62.89,19.54c.91,0,.91,1.6,0,1.6s-.91-1.6,0-1.6Z"/><path class="cls-1" d="m477.46,215.6c-1.02,0-1.17,1.12-.48,1.48.23-.15.46-.3.7-.45.03-.46-.04-1.03-.22-1.03Z"/><path class="cls-1" d="m459.84,409.74c-.88,0-.9-1.48-.08-1.58-1.05.06-1.44.32-1.44,1.58s.16,1.95.31,2.69c.3-.39.6-.78.9-1.17-.58-.32-.48-1.52.31-1.52Z"/><path class="cls-1" d="m459.84,356.88c.91,0,.91-1.28,0-1.28s-.91,1.28,0,1.28Z"/><path class="cls-1" d="m469.57,384.75v-2.56c0-2.56-.91-6.73-3.34-8.33v2.56c-.91,0-.91.96-1.52-.96.61,6.73-.91,2.56-.91,6.09v.64c.91-.64,2.43-3.2,2.43-4.17.91.96,1.52,3.52,1.52,4.17h-1.52v-.64c-1.52.64-1.52,1.6-1.52,3.2h1.52l-.91-.64h1.82c.61,0,2.43,0,2.43.64Z"/><path class="cls-1" d="m471.39,390.84c-1.22,1.6-1.82.64-3.65.64v1.28c1.61,0,3.21,0,3.57,1.76.26-.4.52-.81.78-1.21-.42-.99-.7-1.89-.7-2.47Z"/><path class="cls-1" d="m462.27,406.22c-.91,0-.91.96,0,.96.16,0,.28-.04.38-.08.1-.14.2-.27.3-.41,0-.24-.23-.47-.68-.47Z"/><polygon class="cls-1" points="458.33 343.11 457.41 343.11 458.33 343.75 458.33 343.11"/><path class="cls-1" d="m467.14,345.67l-.91.64v.96l.91-.96v-.64Z"/><path class="cls-1" d="m467.14,354.96l-1.82.64h.91c.91,0,2.43,0,2.43-1.6.91-5.12-.91-1.6-1.52-1.6.61,0,.61,1.6,0,1.6-.91,0-.91-1.6,0-1.6v-1.92l-2.43.96c0,1.6.61,3.52,2.43,3.52Z"/><polygon class="cls-1" points="467.14 339.58 467.14 341.5 467.74 341.5 467.14 339.58"/><path class="cls-1" d="m462.27,354.96c-.91,0-.91.64,0,.64s.91-.64,0-.64Z"/><path class="cls-1" d="m475.03,326.13c-1.21,0-1.21,2.24,0,2.24.1,0,.19-.04.27-.09-.12-.31.02-.7.39-.83.06-.62-.15-1.33-.66-1.33Z"/><path class="cls-1" d="m477.77,329.97c-.3,0-.3,1.28,0,1.28.91,0,.91-1.28,0-1.28Z"/><path class="cls-1" d="m475.3,328.28c.08.23.3.41.64.41.3,0,.3-1.28,0-1.28-.09,0-.17.02-.25.05-.04.36-.16.68-.39.83Z"/><path class="cls-1" d="m475.95,341.5h-.91c.91,0,.91,1.6.91,2.24.3,0,1.82-.64,2.73-.64h1.21v-4.17c-2.13.64-1.21,2.56-2.43,3.2,0-.64-1.22-.64-1.52-.64Z"/><path class="cls-1" d="m461.36,359.12c-.61,0-.61,1.6,0,1.6.91,0,.91-1.6,0-1.6Z"/><path class="cls-1" d="m459.84,368.42c.91,0,.91-1.28,0-1.28s-.91,1.28,0,1.28Z"/><path class="cls-1" d="m458.93,359.12c.91,0,.91-2.24,0-2.24-.61,0-.61,2.24,0,2.24Z"/><path class="cls-1" d="m459.84,347.27c-.91,0-.91,1.6,0,1.6s.91-1.6,0-1.6Z"/><polygon class="cls-1" points="457.41 352.4 457.41 353.04 458.93 352.4 457.41 352.4"/><path class="cls-1" d="m457.41,350.47c0,.96.91.96.91,0,0-.64-.91-.64-.91,0Z"/><path class="cls-1" d="m461.36,361.69c0-.96-.61-.96-.61,0,0,.32.61.32.61,0Z"/><path class="cls-1" d="m461.36,370.98c-.61,0-.61,1.28,0,1.28.91,0,.91-1.28,0-1.28Z"/><path class="cls-1" d="m461.36,373.86c-.61,0-.61,1.6,0,1.6.91,0,.91-1.6,0-1.6Z"/><path class="cls-1" d="m460.76,369.7c.61,0,.61-1.28,0-1.28-.91,0-.91,1.28,0,1.28Z"/><path class="cls-1" d="m462.27,341.5l2.43-.96h-.91c-.61,0-1.52,0-1.52.96Z"/><path class="cls-1" d="m480.2,211.44c-.3,0-.3,1.6,0,1.6.91,0,.91-1.6,0-1.6Z"/><path class="cls-1" d="m490.53,191.58c0-1.28-.61-1.28-.61,0,0,.96.61.96.61,0Z"/><path class="cls-1" d="m485.06,200.55c-.91,0-.91.64,0,.64s.91-.64,0-.64Z"/><path class="cls-1" d="m477.46,207.91c.3,0,.3-1.6,0-1.6-1.22,0-1.22,1.6,0,1.6Z"/><polygon class="cls-1" points="488.4 199.27 489.01 199.27 491.44 197.98 490.53 197.98 489.92 197.98 487.49 199.27 488.4 199.27"/><path class="cls-1" d="m468.65,387.32c.91,0,.91-1.6,0-1.6s-.91,1.6,0,1.6Z"/><path class="cls-1" d="m489.92,197.02c.61,0,.61-1.6,0-1.6-.91,0-.91,1.6,0,1.6Z"/><path class="cls-1" d="m475.95,217.21c.3,0,.3-1.6,0-1.6-.91,0-.91,1.6,0,1.6Z"/><path class="cls-1" d="m486.58,197.02c-.61,0-.61,2.24,0,2.24.91,0,.91-2.24,0-2.24Z"/><path class="cls-1" d="m483.54,207.91c-.91,0-1.22.96-2.43,1.92h1.21c.3,0,1.22,0,1.22-1.92Z"/><path class="cls-1" d="m467.74,232.9c0-.32-.61-.32-.61,0,0,.96.61.96.61,0Z"/><path class="cls-1" d="m469.57,244.76c0-.96-.91-.96-.91,0s.91.96.91,0Z"/><path class="cls-1" d="m467.74,220.73c-.61,0-.61,1.6,0,1.6.91,0,.91-1.6,0-1.6Z"/><path class="cls-1" d="m467.74,389.88c.91,0,.91-.96,0-.96-.61,0-.61.96,0,.96Z"/><path class="cls-1" d="m475.03,211.44c-1.21,0-1.21,1.6,0,1.6.91,0,.91-1.6,0-1.6Z"/><polygon class="cls-1" points="469.57 225.85 470.17 225.85 469.57 224.89 469.57 225.85"/><path class="cls-1" d="m471.39,219.13c-.3,0-.3,1.6,0,1.6,1.21,0,1.21-1.6,0-1.6Z"/><path class="cls-1" d="m470.17,219.77c-.61,0-.61,1.28,0,1.28.91,0,.91-1.28,0-1.28Z"/><polygon class="cls-1" points="487.49 191.58 488.4 191.58 488.4 190.29 487.49 191.58"/><path class="cls-1" d="m432.2,335.1c.91,0,.91-1.28,0-1.28-.61,0-.61,1.28,0,1.28Z"/><path class="cls-1" d="m441.01,333.82c.91,0,.91-1.28,0-1.28-1.21,0-1.21,1.28,0,1.28Z"/><path class="cls-1" d="m439.79,331.25l1.21-.96v-.32l-1.21-1.28v2.56Z"/><polygon class="cls-1" points="492.35 196.7 492.96 195.42 492.35 195.42 492.35 196.7"/><path class="cls-1" d="m426.73,320.68c-.91,0-.91,1.6,0,1.6.61,0,.61-1.6,0-1.6Z"/><polygon class="cls-1" points="427.34 323.56 426.73 324.85 427.34 324.85 427.34 323.56"/><path class="cls-1" d="m431.59,332.53c-.91,0-.91.32,0,.32.61,0,.61-.32,0-.32Z"/><path class="cls-1" d="m438.58,338.94c-.61,0-.61,1.6,0,1.6.91,0,.91-1.6,0-1.6Z"/><path class="cls-1" d="m428.25,332.85l1.52.96c0-.96.91-2.56.91-3.52,0-1.6-.91-2.88-2.43-2.88v5.45Z"/><rect class="cls-1" x="439.79" y="344.71" width="1.21" height=".96"/><path class="cls-1" d="m495.39,187.41c0-.96-.61-.96-.61,0,0,.32.61.32.61,0Z"/><path class="cls-1" d="m491.44,187.73c0,1.28.91,1.28.91,0,0-.32-.91-.32-.91,0Z"/><path class="cls-1" d="m480.2,367.13c-.3,0-.3,1.6,0,1.6.91,0,.91-1.6,0-1.6Z"/><path class="cls-1" d="m492.96,192.54c-.61,0-.61,1.6,0,1.6.91,0,.91-1.6,0-1.6Z"/><path class="cls-1" d="m453.46,343.75c-.91,0-.91,1.92,0,1.92s.91-1.92,0-1.92Z"/><path class="cls-1" d="m441.92,348.23c.3,0,.3-1.92,0-1.92-.91,0-.91,1.92,0,1.92Z"/><path class="cls-1" d="m443.44,337.02c0-.64-1.21-1.92-1.52-3.2-2.13,1.6-.91,5.13-.91,5.77.91,0,2.43-.64,2.43-2.56Z"/><path class="cls-1" d="m439.79,343.11v-.96l-.3-1.6-1.52.96,1.82,1.6Z"/><path class="cls-1" d="m454.38,339.58c-.91,0-.91.96,0,.96.61,0,.61-.96,0-.96Z"/><path class="cls-1" d="m469.57,374.82c.61,0,.61-1.92,0-1.92-.91,0-.91,1.92,0,1.92Z"/><path class="cls-1" d="m467.14,372.26c.61,0,.61-.96,0-.96-.91,0-.91.96,0,.96Z"/><path class="cls-1" d="m470.17,367.13h.91l-1.52-1.28.61-1.28c-.61,0-2.43,0-3.04-.96v.96c.61,1.6,1.52,2.56,3.04,2.56Z"/><path class="cls-1" d="m475.27,388.18c.16-.27.32-.55.49-.82-.35.1-.51.46-.49.82Z"/><path class="cls-1" d="m471.08,389.88l.3-.96,2.13.96v-1.6h-3.34v-2.56c-.61.64-.61,3.2-.61,4.17h1.52Z"/><path class="cls-1" d="m489.01,355.6c-.61,0-.61,1.28,0,1.28.91,0,.91-1.28,0-1.28Z"/><path class="cls-1" d="m488.4,354.96c-.91,0-.91.64,0,.64.61,0,.61-.64,0-.64Z"/><polygon class="cls-1" points="489.01 359.44 489.92 359.12 489.01 359.12 489.01 359.44"/><path class="cls-1" d="m489.34,361.45c.1-.23.2-.46.3-.69-.4.11-.49.45-.3.69Z"/><path class="cls-1" d="m470.17,363.29c.91,0,.91-1.28.91-1.6,0-.96,0-2.24-1.52-2.56l-.91,1.6,1.52.96-.61.32.61,1.28Z"/><path class="cls-1" d="m463.79,375.46c.91,0,.91-1.6,0-1.6-.61,0-.61,1.6,0,1.6Z"/><path class="cls-1" d="m470.17,371.3c-.61,0-.61.96,0,.96.91,0,.91-.96,0-.96Z"/><path class="cls-1" d="m467.14,363.29c.61,0,.61-1.6,0-1.6-.91,0-.91,1.6,0,1.6Z"/><path class="cls-1" d="m481.11,364.57c-.91,0-.91,1.6,0,1.6,1.21,0,1.21-1.6,0-1.6Z"/><path class="cls-1" d="m471.08,370.98c.3,0,.3-2.24,0-2.24-.91,0-.91,2.24,0,2.24Z"/><path class="cls-1" d="m466.22,356.88c.91,1.28,2.43,1.28,3.34,0,.61-.32-4.25-.32-3.34,0Z"/><path class="cls-1" d="m469.57,354.96c-.91,0-.91,1.6,0,1.6.61,0,.61-1.6,0-1.6Z"/><path class="cls-1" d="m485.97,363.29l1.52-1.28v-.32c0-2.24-4.86,0-2.43-3.52-1.52,0-2.43,1.28-2.43,3.52l.91.32-1.22,1.28,1.22.32-.91.96c0,1.28-1.52,4.17-1.52,5.13h1.21c.3,0,2.73-.96,2.73-2.56h1.52c0,.08,0,.16-.01.24.64-1.32,1.26-2.66,1.87-3.99l-.04-.09-1.82,1.28-.61-1.28Zm-3.34,5.13c-.3,0-.3-1.28,0-1.28.91,0,.91,1.28,0,1.28Zm2.43-2.56c-.91,0-.91-2.24,0-2.24s.91,2.24,0,2.24Z"/><path class="cls-1" d="m481.11,360.73c-.91,0-.91,1.28,0,1.28,1.21,0,1.21-1.28,0-1.28Z"/><path class="cls-1" d="m463.79,353.04c-.06,0-.11.03-.16.07.02.35-.07.72-.29.84-.01.5.14,1.02.45,1.02.91,0,.91-1.92,0-1.92Z"/><path class="cls-1" d="m463.79,343.11l-.61,1.6h-.91v.96h.91l2.13-.96-.61-1.6h-.91Z"/><path class="cls-1" d="m463.79,348.87v1.6l.91-4.17c-.91,0-.91,1.92-.91,2.56Z"/><path class="cls-1" d="m427.34,338.94c.91,0,.91-2.56,0-2.56-.61,0-.61,2.56,0,2.56Z"/><path class="cls-1" d="m465.31,349.83c0,.64.91.64.91,0,0-.96-.91-.96-.91,0Z"/><path class="cls-1" d="m463.19,363.61h-.91v5.13l.91-.32v-4.81Z"/><path class="cls-1" d="m485.97,349.83c-.91,0-.91,1.6,0,1.6.61,0,.61-1.6,0-1.6Z"/><path class="cls-1" d="m464.71,337.02c0-.64-.91-.64-.91,0,0,.96.91.96.91,0Z"/><path class="cls-1" d="m462.27,337.02c-.91,0-.91,1.92,0,1.92s.91-1.92,0-1.92Z"/><path class="cls-1" d="m463.19,371.3c.61,0,.61-1.6,0-1.6-.91,0-.91,1.6,0,1.6Z"/><path class="cls-1" d="m469.57,341.5c-.91,0-.91.64,0,.64.61,0,.61-.64,0-.64Z"/><path class="cls-1" d="m485.06,342.15h-.91c0,.96-1.52,2.56-1.52,3.52v.64l1.52-1.6c-.61,1.6.91,2.56,1.82,3.52l.61-1.92c0-.64-.61-4.16-1.52-4.16Z"/><polygon class="cls-1" points="486.58 359.44 487.49 359.44 486.58 359.12 486.58 359.44"/><path class="cls-1" d="m468.65,347.27l.91-1.6-.91.64v.96Z"/><path class="cls-1" d="m463.19,355.6c-.91,0-.91,1.28,0,1.28.61,0,.61-1.28,0-1.28Z"/><path class="cls-1" d="m463.79,363.29c.91,0,.91-1.6,0-1.6-.61,0-.61,1.6,0,1.6Z"/><path class="cls-1" d="m463.19,359.12c.61,0,.61-2.24,0-2.24-.91,0-.91,2.24,0,2.24Z"/><path class="cls-1" d="m463.63,353.1c-.02-.37-.17-.71-.45-.71-.91,0-.91,1.6,0,1.6.06,0,.11-.03.16-.05,0-.36.11-.71.29-.84Z"/><path class="cls-1" d="m335.89,354.96c.61,0,.61-.96,0-.96-.91,0-.91.96,0,.96Z"/><path class="cls-1" d="m129.92,375.46l-1.52.96h.91l.61-.96Z"/><path class="cls-1" d="m123.54,377.06c0,.96.91.96.91,0,0-.64-.91-.64-.91,0Z"/><path class="cls-1" d="m125.97,378.67c.91,0,.91-1.6,0-1.6-.61,0-.61,1.6,0,1.6Z"/><path class="cls-1" d="m122.94,376.42c.61,0,.61-1.92,0-1.92-.91,0-.91,1.92,0,1.92Z"/><path class="cls-1" d="m121.42,378.03h-.91c-1.52,0-3.34,0-3.95,1.6l-.91-1.6c-.3.64-.3,2.56-.3,3.2h1.82c0-1.6,2.43-3.2,4.25-3.2Z"/><path class="cls-1" d="m139.64,371.3c-1.22,0-1.22,1.6,0,1.6.91,0,.91-1.6,0-1.6Z"/><path class="cls-1" d="m140.56,373.86c0-.96-.91-.96-.91,0,0,.64.91.64.91,0Z"/><path class="cls-1" d="m131.75,376.42c.61,0,.61-1.92,0-1.92-.91,0-.91,1.92,0,1.92Z"/><path class="cls-1" d="m137.21,372.9c0-.96-2.43-.96-2.43,0s2.43.96,2.43,0Z"/><path class="cls-1" d="m115.34,383.79q.3,0,.3-.64c0-.96-1.52.64-.3.64Z"/><path class="cls-1" d="m111.69,381.23h-1.22c-1.52,0-3.65,0-3.95.96h1.52c1.22,0,2.43,0,3.65-.96Z"/><path class="cls-1" d="m144.51,371.94c.3,0,.3-1.6,0-1.6-1.22,0-1.22,1.6,0,1.6Z"/><path class="cls-1" d="m101.67,377.06c.91,0,.91-1.6,0-1.6s-.91,1.6,0,1.6Z"/><path class="cls-1" d="m110.48,378.03h.3l.91-.96-1.22.96Z"/><path class="cls-1" d="m105.62,375.46c-1.22,0-1.22,1.6,0,1.6.91,0,.91-1.6,0-1.6Z"/><path class="cls-1" d="m103.19,378.67h5.77c-.91-.64-2.43-.64-3.34-.64-4.86,0-7.9,1.6-12.76,1.6l2.43,1.6c1.52,0,7.9-1.6,7.9-2.56Z"/><path class="cls-1" d="m102.58,383.15c.61,0,.61-.96,0-.96-.91,0-.91.96,0,.96Z"/><path class="cls-1" d="m92.86,358.48c0-.32-2.43-.32-2.43,0,0,.96,2.43.96,2.43,0Z"/><path class="cls-1" d="m92.86,383.15c.91,0,.91-1.92,0-1.92s-.91,1.92,0,1.92Z"/><path class="cls-1" d="m162.43,364.57c-.91,0-.91,1.6,0,1.6s.91-1.6,0-1.6Z"/><path class="cls-1" d="m450.73,375.46c.3,0,.3-.64,0-.64-1.21,0-1.21.64,0,.64Z"/><path class="cls-1" d="m151.19,372.9c0,.96,1.82.96,1.82,0s-1.82-.96-1.82,0Z"/><path class="cls-1" d="m445.87,366.17c-1.21,0-1.21.96,0,.96.3,0,.3-.96,0-.96Z"/><path class="cls-1" d="m446.17,368.74v.96c0-.96.91-1.28,2.13-2.56-2.13,0-2.13,1.28-2.13,1.6Z"/><path class="cls-1" d="m450.73,420.63c.22,0,.28.87.18,1.33,2.26-2.65,4.48-5.34,6.63-8.09-.6-1.34-1.28-2.72-2.55-3.17,1.82-.96,7.29-6.41,7.29-7.69.53.7,1.06,1.54,1.56,2.46,1.15-1.6,2.28-3.2,3.39-4.83l-.09-.2v-.96l.43.68c.36-.53.73-1.07,1.09-1.6-2.23-5.82-7.78-15.47-7.29-19.57l1.82-1.6v-.96l-.91-.96-1.52.96c-.91-1.6-2.43-7.69-2.43-9.29l.61-.96c-4.56-2.56-5.47-13.13-7.9-17.94,0,2.24-2.73,2.24-3.95,2.24,0-2.26.61-2.13,1.82-2.76.1-.25.3-.44.61-.44.04,0,.06.01.09.02.34-.24.71-.55,1.12-.98v-.64l-1.21-1.92c-.91.96-1.21,1.92-1.21,2.56l-1.22-.64v-.96l1.52-1.6v-.96h-.3c-1.22,0-2.43,1.6-2.43,2.56,0-1.6,0-5.13-1.52-5.77,1.52,1.6-2.43,1.6-2.43,2.56v.64c0,.96,1.52,4.16,1.52,5.12v-4.16h1.22v4.16l1.52-.96-.3,1.92.3,2.24c0,3.52-1.52.96-1.82.96v4.17c0-1.6.3-1.6,1.52-1.6h.3c0,.96.91,4.17.91,5.13v.32s-2.73,2.56-2.73,3.84c-.91-6.41-5.77-14.42-7.29-19.54v3.52c-.91,0-1.52-1.6-1.52-1.6v-.96l.61-1.6v-.96s-1.52-1.6-1.52-2.56l-1.52.96-.91-.96.91-1.6v-.96l-.91-.64h-.61l-.91.64h-.91c0-.64,0-1.6.91-1.6h-1.52s-.91,2.56-.91,4.16v5.13l-1.52-2.56c-1.52,0-.91,3.52-.91,4.16-1.52,0-4.86-11.21-4.86-12.49,3.34,0,4.25,5.13,4.25,7.69h.61v-6.41c.91-1.28,1.52-2.24,1.52-3.84,0-.96-1.52-3.84-1.52-5.13v2.56l-3.04-2.56v-8.97c0-.64-.91-1.6-1.82-2.24.91,3.2-1.52,4.16-.61,7.37l-1.21-1.6v5.45l1.21-.32v6.73c-1.21-5.12-3.65-10.25-6.08-14.42v1.6c0,1.92,2.43,10.25,2.73,11.53l.91,1.6-.91.96c-2.43-5.12-5.17-10.25-5.17-15.7v-1.6l1.22.64v-.64c0-3.52-1.22-10.25-4.86-12.81v.96c0,2.56,2.13,5.77,2.13,8.33-3.81,0-6.53-14.25-9.27-25.75-.23-.15-.27-.39-.14-.58-.48-2-.96-3.9-1.45-5.62l-.38-.4h.27c-1.31-4.54-2.68-7.69-4.21-7.69h-1.82l.91-1.6v-.96c-3.95,3.52-20.35,4.49-20.35,10.25h-3.95c2.43-.96,10.33-6.73,15.49-8.33h-2.43c-2.43,0-10.63,1.6-13.06,2.56-6.38,4.16-13.67,4.8-18.84,12.49.3,0,3.65-1.6,4.25-1.6h.91c-1.52,3.2-7.29,2.56-8.81,5.77,0,0,1.21,6.41-.3,8.01l1.52.96-1.21,1.28v1.92c0,15.38,7.9,29.15,7.9,44.53v2.24l-.61-1.6c-2.43.96.61,3.52-1.22,4.16,0-1.6-1.21-3.2-2.13-4.8,0,.64-.3,2.24-1.52,2.24s-1.21-1.6-2.43-2.24v1.6c0,1.6,0,2.56,1.21,4.16l.3-1.6c2.13,0,3.34,1.6,3.34,3.2h-.91l-1.52-.64-1.21.64,1.21,1.28c-1.21,0-.91,2.56-.91,3.84,0,.96,0,2.56,2.13,2.88l-2.13.96c-.16,0-1.25-2.23-2.06-4.57-.03.37-.25.72-.67.72-1.21,0-1.21-1.6,0-1.6.19,0,.33.08.44.19-.6-1.87-.95-3.68-.44-4.35-1.21.64-1.52,1.6-1.52,1.92,0,3.84,2.43,8.97,2.43,11.85-4.86,0-2.43-16.34-8.2-18.26l-.61-.64v1.6c0,5.45,2.43,10.57,2.43,15.7v1.6c-3.34.96,0-5.13-3.34-5.13h-.91l1.82,2.56v4.81c-.91-1.28-2.43-2.56-2.43-3.84v-.96l-.91-.32-1.52,5.13c-.91-5.13-3.95-5.13-3.95-9.29,0,4.48-3.95,4.48-3.34,9.61-.61-1.6-1.52-2.56-1.52-4.17v9.29c-.91,0-1.52,0-1.52-1.6l.61-.96c0-5.12-3.04-8.01-3.04-14.42-2.43,0,0-1.28-2.43-2.56l1.52-.32h.91s1.22.32,1.22,1.6c.3-1.28,1.21-1.6,1.21-3.2,0-2.56-2.43-1.92-2.43-4.49l-1.21,5.13c-2.13,0-1.21-2.56-1.21-3.2-1.22,0-1.22-.96-2.73.64v-1.6c-2.13,0-2.13-.96-2.13-2.56h1.21v.96c.91,0,1.22.64,1.22-.96s-2.43-5.13-1.22-6.73l-1.21.96v4.16c-1.21,0-2.43-3.52-2.43-4.16l2.43-1.6c0-1.92-1.21-5.13-2.43-6.41,0,0-1.82.32-1.82,1.28v5.77h.61l.91-1.6h.3l-.3,2.56v.64c0,6.73,4.86,20.82,5.17,24.99h-1.22c0-2.27-.85-4.76-1.76-7.27-.04.28-.26.54-.67.54-1.22,0-1.22-1.28,0-1.28.2,0,.34.07.45.16-1.22-3.31-2.47-6.63-1.97-9.45-.91.96-1.52,1.6-3.34,1.6v.96h1.82v2.56l-.91-.96v1.28c0,2.56,0,1.28.91,4.81.61,1.6,1.52,5.45,1.52,5.45l-1.52,1.28v1.28c0,5.12,1.82,9.29,3.04,14.42v.64c-7.29-4.17-27.95-72.4-30.68-82.97-2.13,0-7.29-2.24-8.2-3.84,0-.96,0-1.28.91-1.28h-13.67v-1.28c-.61,4.16-6.38-.32-6.38,3.84v.32c.91-.32,3.34-.32,4.86-.32v.32l1.52-.32h.91c-.91,1.28-2.43,4.49-3.95,4.49h-.91l.91-1.6h-.91c-1.24,0-2.34.51-3.34,1.21,0,.13,0,.26,0,.4,0,.71-.02,1.4-.04,2.09.32-.01.64.14.64.48,0,.53-.37.76-.7.7-1.39,24.51-18.37,38.04-37.87,44.79-5.17,2.24-7.29,8.97-12.46,8.97h-1.22l-1.22-1.28v1.6c0,.96,0,2.56.91,2.56-3.34.96-5.77,1.6-8.81,2.56v-.96c-2.43,2.56-5.77,0-7.9,2.56h2.13c0,2.56-10.63,5.13-12.76,5.13h2.43c-1.3.46-2.53,1.78-3.99,3.04.02.12.04.27.04.48,0,.64-.3.64-.3,0,0-.1,0-.18.01-.26-1.55,1.31-3.37,2.5-5.78,2.5h-.61c1.52-.64,6.68-4.17,6.68-5.77-2.73,0-4.86,2.56-6.68,2.56s0-.96-1.82-2.56c-1.52,0-15.8,4.17-16.71,5.13l.91-2.56c.61,0,7.9,0,8.81-1.6h-12.46c-1,.44-2.96,1.14-5.35,1.91.39.46.15,1.29-.72,1.29-.18,0-.25-.54-.22-.99-.11.03-.22.07-.33.1.04.43-.18.89-.67.89-.42,0-.68-.19-.81-.44-.26.08-.52.15-.78.23.04.06.06.13.06.21,0,.89-1.28.94-1.48.2-5.54,1.57-11.53,2.9-13.71,2.36l1.52,1.6c-.61.96-3.95,1.92-4.86,1.92l1.82,1.6-3.34,1.6v-1.28c-2.43,0-2.73,1.28-4.86,1.28,0-1.6-11.54-3.2-11.54-3.2l-1.52.64h-8.81c-.91.96-2.43.96-3.34.96h-2.43c1.82-2.56,5.77-2.56,8.2-2.56v-2.56h-1.82c.91,0,.91,1.6,0,1.6-.61,0-.61-1.6,0-1.6h-10.33c.91,0,.91,1.6,0,1.6-.3,0-.3-1.6,0-1.6h-13.98c.91,0,3.34-1.6,3.95-1.6.91,0,1.22.64,2.43-.96h-5.47l-.91,1.6c-.91-2.24-5.47-2.24-7.29-2.24l-.61.64h-7.6c.93-3.19,8.09-1.5,12.08-2.4.1-.1.22-.17.38-.17.04,0,.06.03.1.04.98-.3,1.72-.8,2.03-1.64-4.56.96-2.13-.96-6.38-.96l-.61.96h-.91s-.61-.96-.61-1.6h-12.46l1.52-.96h9.11c-.61,0-4.25-1.6-4.25-1.6-3.65,0-4.86.96-8.51.96v-.96l12.76-1.6,1.82-1.92c-.91-1.92-6.08,0-7.29-1.92h23.09c2.43-1.28,17.32-2.56,17.92-5.13h-1.52v-1.28h10.33v1.28c0-.64,1.82-1.68,3.8-2.56h-.45l.91-1.28v1.08c1.84-.79,3.69-1.41,4.25-1.41l-.3.32h1.52c.91,0,2.43-.32,2.73-.32l-1.52-.96,2.43-1.6c-.91,1.6,1.52,1.6,1.52,1.6,2.02-.85,7.52-1.33,12.35-2.24-.12-.66.02-1.6.41-1.6.53,0,.74.76.66,1.39.4-.08.79-.17,1.17-.26v-1.13h.61l-.53,1.11c4.87-1.17,8.14-3.01,4.48-6.56v-.96c5.77,7.05,27.95-7.69,31.6-14.1h-2.43l4.25-1.28-4.25-2.24c5.77-4.16,8.2-6.73,8.2-14.74,0-23.07-46.79-25.63-62.89-25.63-6.08,0-11.54.32-17.92.32-23.7,0-47.7-11.21-66.53-25.63-6.68-10.25-20.35-19.22-20.35-33.32v-2.48c-1.33,10.58-2.02,21.36-2.02,32.3,0,40.94,9.63,79.64,26.72,113.96.11-.15.29-.26.52-.26.86,0,.9,1.41.13,1.57,42.17,83.48,128.71,140.73,228.63,140.73,77.94,0,147.73-34.84,194.68-89.77-1.16-.05-1.15-1.59.05-1.59Zm15.49-22.75c.91,0,.91,1.6,0,1.6s-.91-1.6,0-1.6Zm-.91-2.88v1.6c-.61-1.28-1.52-2.56-1.52-3.84,1.52,0,1.52,1.28,1.52,2.24Zm-.61-3.52h-.91c-1.52,0-1.52-1.6-1.52-2.56,1.52,0,1.52,1.92,2.43,2.56Zm-38.89-61.51v2.56l-.61-2.24.61-.32Zm-3.95,2.56c0-1.28.91-1.28.91,0,0,.32-.91.32-.91,0Zm0-11.85c.91,0,.91,1.6,0,1.6s-.91-1.6,0-1.6Zm-73.22-29.15c-1.21,0,.3-1.6.3-1.28q0,1.28-.3,1.28Zm1.21,14.1c-.91,0-.91-1.92,0-1.92,1.22,0,1.22,1.92,0,1.92Zm-27.65,49.34c.91,0,.91.64,0,.64-.3,0-.3-.64,0-.64Zm-12.46-16.98c-.61,0-.61-1.6,0-1.6.91,0,.91,1.6,0,1.6Zm5.77,18.58c-.91,0-.91-1.6,0-1.6.3,0,.3,1.6,0,1.6Zm-5.77,2.88c-.61,0-.61-1.28,0-1.28.91,0,.91,1.28,0,1.28Zm-222.38,21.14l.61.64h-.61v-.64Zm-36.46-6.73c.61,0,.61,1.6,0,1.6-.91,0-.91-1.6,0-1.6Zm105.12-46.13c.91,0,2.43-1.6,3.34-1.6h.61l-.61,1.28v.32l.61,1.6c-.61,0-2.43.96-3.04.96h-.91l1.52-1.6-1.52-.96Zm-2.43,0c.91,0,.91,1.6,0,1.6-.61,0-.61-1.6,0-1.6Zm-23.7,17.62c.91,0,.91,1.92,0,1.92-.61,0-.61-1.92,0-1.92Zm-1.52-2.56c.91,0,.91,1.92,0,1.92-.61,0-.61-1.92,0-1.92Zm-.61,2.56c.61,0,.61,1.92,0,1.92-.91,0-.91-1.92,0-1.92Zm-4.86.96c.61,0,.61,1.6,0,1.6-.91,0-.91-1.6,0-1.6Zm-6.38,2.88c.61,0,.61,2.24,0,2.24-.91,0-.91-2.24,0-2.24Zm-18.84,4.8c.61,0,.61,1.6,0,1.6-.91,0-.91-1.6,0-1.6Zm-2.43.32c0,1.28-1.52,1.28-1.52,0,0-.32,1.52-.32,1.52,0Zm-5.77,0c-.61,0-2.13,1.28-3.04,1.28h-.91l-1.52-1.28h5.47Zm-7.9,2.24l.91.32c.61,0,3.04,1.28,3.95,1.28h-4.86v-1.6Zm-1.52,1.92v.96l-.91,1.28.91-2.24Zm-3.34-1.6c.91,0,.91,1.6,0,1.6-.3,0-.3-1.6,0-1.6Zm-1.82,2.56c.3,0,.3,1.6,0,1.6-.91,0-.91-1.6,0-1.6Zm-.91-2.56c0,1.28-1.21,1.28-1.21,0,0-.32,1.21-.32,1.21,0Zm-2.43,4.16c0,.96-1.22.96-1.22,0,0-.32,1.22-.32,1.22,0Zm-1.52-1.6c.3,0,.3,1.6,0,1.6-.91,0-.91-1.6,0-1.6Zm-16.1,6.73c-.61.96-2.43.96-3.04,0-.91-.96,3.95-.96,3.04,0Zm-5.47-.96c1.21,0,1.21,1.92,0,1.92-.91,0-.91-1.92,0-1.92Zm-2.43-1.92l1.22.32h-1.22v-.32Zm-3.65,0l.91.32h-2.13l1.22-.32Zm6.08,24.35c1.21,0,1.21,2.24,0,2.24-.91,0-.91-2.24,0-2.24Zm-7.29-13.13c0,.96-1.22.96-1.22,0,0-.64,1.22-.64,1.22,0Zm-3.65-13.78c0,.32-.61.32-.61,0,0-1.28.61-1.28.61,0Zm-1.52,13.13c.91,0,.91,1.6,0,1.6s-.91-1.6,0-1.6Zm-8.81-6.09c-.91,0-.91-1.6,0-1.6s.91,1.6,0,1.6Zm1.52,4.17c0-.64.91-.64.91,0,0,.96-.91.96-.91,0Zm2.43,6.09c-.61,0-.61-1.6,0-1.6.91,0,.91,1.6,0,1.6Zm2.43-.96h-.91l1.82-.64-.91.64Zm.91-8.33c0-.96.61-.96.61,0s-.61.96-.61,0Zm2.43,8.33h-1.82l1.82-.64v.64Zm0-9.29c.61,0,.61,1.92,0,1.92-.91,0-.91-1.92,0-1.92Zm.61,14.42c-.61,0-.61-1.6,0-1.6.91,0,.91,1.6,0,1.6Zm.91-5.13c-.91,0-.91-1.6,0-1.6.3,0,.3,1.6,0,1.6Zm0-8.33c-.91,0-.91-1.6,0-1.6.3,0,.3,1.6,0,1.6Zm0-5.13l1.52-.32-1.21.32h-.3Zm6.68,13.46c-.3.96-4.25.96-5.17,0-1.21-.64,6.08-.64,5.17,0Zm2.13,0c-1.22,0-1.22-.64,0-.64.3,0,.3.64,0,.64Zm1.22,16.98c-.91,0-.91-2.24,0-2.24,1.21,0,1.21,2.24,0,2.24Zm1.21-2.56h-1.21l1.21-1.28v1.28Zm0-10.89c-1.21,0-1.21-1.92,0-1.92.3,0,.3,1.92,0,1.92Zm10.03-.96c0-.96.61-.96.61,0s-.61.96-.61,0Zm2.43,7.69v-.96h.61l-.61.96Zm12.76,6.73c0-1.28.3-1.28.3,0,0,.32-.3.32-.3,0Zm4.25-4.16c-.3,0-.3-2.24,0-2.24.91,0,.91,2.24,0,2.24Zm50.13-9.29c.61,0,.61,1.6,0,1.6-.91,0-.91-1.6,0-1.6Zm-4.86,0c.91,0,.91,1.6,0,1.6s-.91-1.6,0-1.6Zm1.52,1.6h1.82c.61,0,4.56.96,5.47.96-3.34.64-6.38,1.6-8.81,1.6h-1.52c0-1.6,1.52-2.56,3.04-2.56Zm-3.04-.96c.61,0,.61,1.92,0,1.92-.91,0-.91-1.92,0-1.92Zm-1.52,2.56c.61,0,.61,1.28,0,1.28-.91,0-.91-1.28,0-1.28Zm-14.58,2.56c1.21,0,1.21,1.28,0,1.28-.3,0-.3-1.28,0-1.28Zm-1.22,0c0,.96-1.22.96-1.22,0,0-1.28,1.22-1.28,1.22,0Zm-1.22,3.52c0,.32-1.22.32-1.22,0,0-.96,1.22-.96,1.22,0Zm-1.22-4.81c0,1.28-.61,1.28-.61,0,0-.32.61-.32.61,0Zm-12.76-.32c.91,0,.91,1.6,0,1.6s-.91-1.6,0-1.6Zm.91,6.73c-.91,0-.91-1.6,0-1.6.61,0,.61,1.6,0,1.6Zm.61-1.6c-.61,0-.61-2.24,0-2.24.91,0,.91,2.24,0,2.24Zm5.77,4.16c-.51,0-.73-.71-.66-1.33-.08.02-.15.05-.25.05-.91,0-.91-1.28,0-1.28.34,0,.56.18.64.41.08-.05.17-.09.27-.09.61,0,.61,2.24,0,2.24Zm1.52-3.84c-.91,0-.91-1.28,0-1.28s.91,1.28,0,1.28Zm0-2.56c0-.32.91-.32.91,0,0,1.28-.91,1.28-.91,0Zm.91-1.28c-.91,0-.91-1.6,0-1.6.61,0,.61,1.6,0,1.6Zm1.52,2.56c.91,0,.91,1.28,0,1.28s-.91-1.28,0-1.28Zm.91,11.53c-.91,0-.91-1.92,0-1.92.61,0,.61,1.92,0,1.92Zm18.84-3.52c-.91,0-.91-1.6,0-1.6.61,0,.61,1.6,0,1.6Zm3.95-5.45v-1.6c-1.82,0-2.43.32-1.82,1.92l-5.47.96v-.96h-16.41c2.43-1.6,2.43-.32,5.17-.32,0-3.58,1.05-1.61,1.93-3.65.02-.15.08-.32.19-.52-.06.2-.13.37-.19.52-.15,1.08,1.75,1.08,2.02,1.08,3.34,0,6.38-3.84,8.81-3.84v2.24c1.82-.96,2.43-.96,3.95-.96v.96c-.61,0-2.13.32-2.13,1.6h.61c.91,0,3.95-1.28,4.86-1.28h.91l-.91,1.28h2.43c0,1.28-2.43,2.56-3.95,2.56Zm6.38-1.6c-.91,0-.91-2.24,0-2.24-.91,0-.91-1.28,0-1.28.61,0,.61,1.28,0,1.28.61,0,.61,2.24,0,2.24Zm1.52-3.52c-.91,0-.91-1.6,0-1.6s.91,1.6,0,1.6Zm0-5.77c0-.96.91-.96.91,0,0,.64-.91.64-.91,0Zm25.22-2.56c0,.64-.91.64-.91,0,0-.96.91-.96.91,0Zm-3.95,0c.61,0,.61,1.6,0,1.6-.91,0-.91-1.6,0-1.6Zm-3.95.64h.61l-.61.96v-.96Zm0,2.56h.61l-1.52.96.91-.96Zm-1.82,0c-.61.96-1.82,2.56-3.04,2.56l-.91-.64c2.13-.96,2.43-1.92,3.95-1.92Zm-1.82-4.8c0,.64-1.21.64-1.21,0,0-.96,1.21-.96,1.21,0Zm-2.13,2.24c.91,0,.91,1.92,0,1.92-.3,0-.3-1.92,0-1.92Zm-.3,2.56c.3,0,.3,1.92,0,1.92-1.22,0-1.22-1.92,0-1.92Zm-2.13-5.77c.91,0,.91,1.6,0,1.6-.3,0-.3-1.6,0-1.6Zm-1.82,4.16c.3,0,.3,1.6,0,1.6-.91,0-.91-1.6,0-1.6Zm-2.13.96c1.22,0,1.22,1.6,0,1.6-.3,0-.3-1.6,0-1.6Zm-2.43.64c1.21,0,1.21,1.92,0,1.92-.3,0-.3-1.92,0-1.92Zm-.3,6.41v-.32l1.52.32h-1.52Zm2.73,2.56h-.3l.3-.32v.32Zm16.71-5.45c0,.32-1.52.32-1.52,0,0-.09.02-.17.05-.25-3.22,1.14-6.67,1.85-7.95,1.85h-.91l-1.52-1.28h-.91s-2.01.94-3.35,1.82c.2.15.4.29.61.43h-1.22c.17-.14.38-.28.6-.43-1.18-.88-2.03-1.86-3.34-2.14l.3-.96,2.13.96.3.32c2.13,0,3.95-.32,3.95-1.92l2.43,1.6c5.77,0,8.81-4.17,13.67-4.17h1.52c-.63,1.33-2.8,2.55-5.28,3.53.23.1.42.31.42.64Zm4.86-1.6c-.61,0-.61-.96,0-.96.91,0,.91.96,0,.96Zm2.43-1.92l-.91.96.91-1.6v.64Zm.91-6.73c.61,0,.61,1.92,0,1.92-.91,0-.91-1.92,0-1.92Zm.61,6.73c0-.64.91-.64.91,0,0,.96-.91.96-.91,0Zm0-2.56h-.61l.61-.64h.91l-.91.64Zm4.86.96v-.96h1.22l-1.22.96Zm34.94-17.62v-.96h.3l-.3.96Zm2.73,1.6c-.3,0-.3-1.6,0-1.6,1.22,0,1.22,1.6,0,1.6Zm1.22-1.6c-1.22,0-1.22-1.28,0-1.28.3,0,.3,1.28,0,1.28Zm4.86-5.45h-1.22l1.22-2.24v2.24Zm1.82-2.24l-.61-.32h1.52l-.91.32Zm41.92-47.09c-1.22,0-1.22-1.6,0-1.6.3,0,.3,1.6,0,1.6Zm10.63-10.25c.91,0,.91,2.24,0,2.24-.61,0-.61-2.24,0-2.24Zm-2.43,0c.91,0,.91,2.24,0,2.24-.61,0-.61-2.24,0-2.24Zm3.34,3.52c-2.43,0-3.95,1.28-6.38,1.28h-.91l1.82-2.24h5.47v.96Zm1.52,7.69c-.61,0-.61-1.92,0-1.92.91,0,.91,1.92,0,1.92Zm1.52-6.41c-.61,0-.61-2.24,0-2.24.91,0,.91,2.24,0,2.24Zm4.25.32c-.91,0-.91-1.6,0-1.6.61,0,.61,1.6,0,1.6Zm18.84,42.61v-.96l.61.96h-.61Zm17.01,18.58c1.22,0,1.22,1.28,0,1.28-.3,0-.3-1.28,0-1.28Zm0,12.17c-.3,0-.3-1.6,0-1.6,1.22,0,1.22,1.6,0,1.6Zm0-2.56c0-.64-.3-1.92-.3-3.2v-.96c.3,0,2.43.96,2.43,2.24,0,0-.91,1.28-.91,1.92h-1.22Zm2.13,15.38c-.91,0-.91-.96,0-.96.3,0,.3.96,0,.96Zm8.81-16.02c-1.22,0-1.22-1.28,0-1.28.3,0,.3,1.28,0,1.28Zm-1.22-2.56c-.91,0-.91-1.28,0-1.28,1.22,0,1.22,1.28,0,1.28Zm-4.86-12.81l1.21,1.28h-1.21v-1.28Zm1.21,3.84v.96l-1.21.32,1.21-1.28Zm-1.21,10.57c-.3,0-.3-1.6,0-1.6,1.21,0,1.21,1.6,0,1.6Zm0-6.73l1.52-.96v.96l-.3,1.28-1.21-1.28Zm3.95,11.85c-.3-2.56-2.43-6.73-2.43-10.25,2.43,0,2.43,7.69,2.43,8.65v1.6Zm0-10.57c-.3,0-.3-2.24,0-2.24.91,0,.91,2.24,0,2.24.91,0,.91,1.28,0,1.28-.3,0-.3-1.28,0-1.28Zm.91,11.53c1.22.64,1.22,2.24,0,3.2-.91.96-.91-4.16,0-3.2Zm1.22,4.16c.3,0,.3,1.6,0,1.6-1.22,0-1.22-1.6,0-1.6Zm.3,2.56c-.3,0-.3-.96,0-.96.91,0,.91.96,0,.96Zm3.34-6.09c.61,0,.61,1.6,0,1.6-.91,0-.91-1.6,0-1.6Zm-.91,6.09c-.91,0-.91-.96,0-.96s.91.96,0,.96Zm-.91-5.13c.91,0,.91,1.6,0,1.6-.61,0-.61-1.6,0-1.6Zm.91,24.03l-.91-.96h.91l.91.96h-.91Zm.91-18.26c.61,0,.61,1.6,0,1.6-.91,0-.91-1.6,0-1.6Zm.61,3.52c-.61,0-.61-1.92,0-1.92.91,0,.91,1.92,0,1.92Zm.91-16.02c.91,0,.91,1.6,0,1.6s-.91-1.6,0-1.6Zm.91,9.29c-.91,0-.91-1.92,0-1.92.61,0,.61,1.92,0,1.92Zm0-3.52c-.91,0-.91-.64,0-.64.61,0,.61.64,0,.64Zm0-2.56c-.91,0-.91-1.6,0-1.6.61,0,.61,1.6,0,1.6Zm3.95,5.12c-.91-1.6-2.43-9.29-3.34-10.89v-.96l.91-1.6c1.52,3.84,2.43,8.33,2.43,11.85v1.6Zm.61,2.56c-.61,0-.61-1.6,0-1.6.91,0,.91,1.6,0,1.6Zm2.43-13.46c-.61,0-.61-.96,0-.96.91,0,.91.96,0,.96Zm16.41-.96l.91-.32-.91,1.28v-.96Zm0-7.05c0-.96.91-.96.91,0,0,.32-.91.32-.91,0Zm.91,9.61c0,.96-.91.96-.91,0,0-.32.91-.32.91,0Zm0,7.69c-.91,0-.91-.96,0-.96,1.21,0,1.21.96,0,.96Zm-.91-4.17c.91,0,.91,1.6,0,1.6-.3,0-.3-1.6,0-1.6Zm0,11.53c.91,0,.91,1.92,0,1.92-.3,0-.3-1.92,0-1.92Zm-2.73-2.24c-1.21,0-1.21-.96,0-.96.3,0,.3.96,0,.96Zm-1.21-8.65c-.3,0-.3-1.6,0-1.6,1.21,0,1.21,1.6,0,1.6Zm-4.86-9.61h1.21v.32h-1.21v-.32Zm-.3-3.84c-.91,0-.91-1.28,0-1.28.3,0,.3,1.28,0,1.28Zm-.91-5.45c.91,0,.91.32,0,.32-.61,0-.61-.32,0-.32Zm0,2.56c.91,0,.91.32,0,.32-.61,0-.61-.32,0-.32Zm0,11.85c.91,0,.91,1.28,0,1.28-.61,0-.61-1.28,0-1.28Zm0,1.92c.91,0,.91,1.92,0,1.92-.61,0-.61-1.92,0-1.92Zm-2.43-20.5h.91c.91,0,.91.64.91,1.6v1.6c-.91-.64-1.82-2.56-1.82-3.2Zm1.82,18.58c0,.32-.91.32-.91,0,0-1.28.91-1.28.91,0Zm0,5.45c0,.96-.91.96-.91,0s.91-.96.91,0Zm-.91-4.17c.91,0,.91,1.6,0,1.6s-.91-1.6,0-1.6Zm0,16.02c-.91,0-.91-1.92,0-1.92s.91,1.92,0,1.92Zm.91-8.65c-.91,0-.91-1.6,0-1.6.61,0,.61,1.6,0,1.6.61,0,.61,1.92,0,1.92-.91,0-.91-1.92,0-1.92Zm.61,5.13c-.61,0-.61-1.6,0-1.6.91,0,.91,1.6,0,1.6Zm.91-9.29c.3,0,.3.96,0,.96-.91,0-.91-.96,0-.96Zm.3,9.29c-.3,0-.3-.64,0-.64,1.21,0,1.21.64,0,.64Zm2.43,8.01c-.3-1.28-1.22-3.84-1.22-6.41h.91c.3,0,.3,3.52.3,4.49v1.92Zm1.21,2.24c.91,0,.91,1.6,0,1.6-1.21,0-1.21-1.6,0-1.6Zm0,4.49c-1.21,0,.91-1.6.91-.32q0,.32-.91.32Zm.91-28.51c.3,0,.3,1.28,0,1.28-.91,0-.91-1.28,0-1.28Zm.3,38.76c-.3,0-.3-1.6,0-1.6,1.21,0,1.21,1.6,0,1.6Zm2.43-14.42c-1.21-.32-2.43-8.01-2.43-9.61,2.43,1.6,2.43,5.77,2.43,8.33v1.28Zm0-29.47c1.22,0,1.22,1.28,0,1.28-.91,0-.91-1.28,0-1.28Zm1.22,33.32c.3,0,.3.32,0,.32-1.22,0-1.22-.32,0-.32Zm.3,2.88c.91,0,.91,2.24,0,2.24-.3,0-.3-2.24,0-2.24Zm.91,11.85c-.91,0-.91-.96,0-.96,1.21,0,1.21.96,0,.96Zm1.21-29.79c-1.21,0-1.21-1.92,0-1.92.3,0,.3,1.92,0,1.92Zm-1.21-20.5h1.21v.96l.3,1.6c-1.52,0-1.52-1.6-1.52-2.56Zm3.04-1.92c-1.82-2.24-.61-3.52-3.95-3.52,0-1.28,2.13-3.2,2.43-4.17.91,2.56,1.52,2.56,1.52,5.13v2.56Zm1.82-19.54c-.91,0-.91-1.6,0-1.6.61,0,.61,1.6,0,1.6Zm0,2.56c-.91,0-.91-1.6,0-1.6.61,0,.61,1.6,0,1.6Zm-.91-58.31c.91,0,.91,1.92,0,1.92s-.91-1.92,0-1.92Zm0,84.58c-.91,0-.91-2.24,0-2.24s.91,2.24,0,2.24Zm1.52-9.29c-.61-2.56-.61-3.52-.61-6.09v-1.6c.61.96.61,2.88.61,4.17v3.52Zm.91,20.5c-.91,0-.91-1.6,0-1.6s.91,1.6,0,1.6Zm0-15.06c-.91,0-.91-1.28,0-1.28s.91,1.28,0,1.28Zm0-2.56c-.91,0-.91-1.28,0-1.28s.91,1.28,0,1.28Zm5.47-81.37q0,.64-.61.64c-.91,0,.61-1.6.61-.64Zm0,108.28c-.61,0-.61-1.6,0-1.6.91,0,.91,1.6,0,1.6Zm0-5.13c-.61,0-.61-1.6,0-1.6.91,0,.91,1.6,0,1.6Zm1.82-103.16c-.91,0-.91-1.6,0-1.6.61,0,.61,1.6,0,1.6Zm1.52-1.6c0-.96.61-.96.61,0,0,.64-.61.64-.61,0Zm-7.29.64v-.64c0-2.56,7.9-3.52,8.81-3.52-.91,2.56-6.38,2.56-8.81,4.17Zm11.24,122.38c-.91,0-.91-1.6,0-1.6s.91,1.6,0,1.6Zm7.59-127.5c0-.64,1.52-.64,1.52,0,0,.96-1.52.96-1.52,0Zm3.65,0c-1.21,0-1.21-1.6,0-1.6.3,0,.3,1.6,0,1.6Zm1.22-1.6c0-.64,1.52-.64,1.52,0,0,.96-1.52.96-1.52,0Zm4.86-.64c-.91,0-.91-1.92,0-1.92.61,0,.61,1.92,0,1.92Zm31.6,68.88c-1.21,0-2.43-6.73-2.43-7.37v-1.28l1.22,1.28h.3c0,3.2,1.52,4.16,1.52,7.37h-.61Zm30.68,57.98l-.3-2.24v-.32l1.22-1.28-.91,3.84Zm1.52,5.45c-.61,0-.61-1.6,0-1.6.91,0,.91,1.6,0,1.6Zm.91.96c0-.96.91-.96.91,0,0,.64-.91.64-.91,0Zm.91-15.7c-1.82,0-2.43,1.6-3.34,2.56.91-.96-.3-2.24-.3-2.56v-.96l1.22.96v-1.6c0-.96-.91-2.56-.91-4.49l1.52-1.6c-.61,2.56,1.82,3.52.91,6.09l.91-1.92c1.52,1.92,1.52,3.52,1.52,5.12v1.28c-1.52,0-2.43-2.56-1.52-2.88Zm2.43-2.56l-.91-2.56-1.52-3.2.61-1.92,3.34,4.16c0,.96-.91,3.52-1.52,3.52Zm.61,1.6c-.61,0-.61-1.6,0-1.6.91,0,.91,1.6,0,1.6Zm0,10.57h.91c0,3.52-2.43,2.56-2.43,5.13-.91,0-.91-1.6-.91-2.56h.91c0-1.6-.91-4.17,1.52-4.17h.91c-1.52,1.28-.91,1.28-.91,1.6Zm3.34-2.56q0,.96-.91.96c-.91,0,.91-1.28.91-.96Zm.61,0c.91,0,.91,2.24,0,2.24-.61,0-.61-2.24,0-2.24Zm-.61,3.52c-.91,0-.91-1.28,0-1.28.61,0,.61,1.28,0,1.28Zm-2.43-6.41c0,.96-1.52,2.56-2.43,2.56h-.91v-1.6l.91.32c.91-1.28,2.43-5.13,2.43-6.41,1.52,2.56,2.43,3.84,2.43,7.69-.91,0-2.43-1.28-2.43-2.56Zm0-23.71c.61,0,.61,1.92,0,1.92.61,0,.61,1.6,0,1.6-.91,0-.91-1.6,0-1.6-.91,0-.91-1.92,0-1.92Zm-1.52-1.92c.61,0,.61,1.28,0,1.28-.91,0-.91-1.28,0-1.28Zm-1.82-2.56c-.61,0-.61-2.24,0-2.24.91,0,.91,2.24,0,2.24Zm-.61-3.84l-.91-.96h1.52l-.61.96Zm-.91-5.13c.91,0,.91,2.24,0,2.24s-.91-2.24,0-2.24Zm-1.52-.32c0-.96.61-.96.61,0,0,.32-.61.32-.61,0Zm0,10.57c-.91,0-.91-.96,0-.96.61,0,.61.96,0,.96Zm0-16.66c.61,0,.61,1.92,0,1.92-.91,0-.91-1.92,0-1.92Zm-.91,1.92c.41,0,.63.33.67.69.07-.02.15-.05.24-.05.61,0,.61,1.28,0,1.28-.33,0-.54-.17-.63-.39-.08.04-.18.07-.28.07-.3,0-.3-1.6,0-1.6Zm-1.52-4.49c1.21,0,1.21,1.92,0,1.92-.91,0-.91-1.92,0-1.92Zm0,8.97c1.21,0,1.21,2.24,0,2.24-.91,0-.91-2.24,0-2.24Zm-.91-2.88q0,.32-.3.32c-1.22,0,.3-1.28.3-.32Zm0,7.05c0,.96-.3.96-.3,0,0-.32.3-.32.3,0Zm-1.52-1.92c1.22,0,1.22,1.6,0,1.6-.91,0-.91-1.6,0-1.6Zm-5.16,5.45c.3,0,.3,1.6,0,1.6-.91,0-.91-1.6,0-1.6Zm0,5.13c.3,0,.3,1.6,0,1.6-.91,0-.91-1.6,0-1.6Zm-.91,10.89c-1.21,0-1.21-1.6,0-1.6.91,0,.91,1.6,0,1.6Zm-2.43-16.98v-1.6c.91,0,.91,1.28.91,1.6h-.91Zm0,12.81c-.61,0-.61-1.6,0-1.6.91,0,.91,1.6,0,1.6Zm0-26.59c.91,0,.91.64,0,.64-.61,0-.61-.64,0-.64Zm0,3.2c.91,0,.91,1.28,0,1.28-.61,0-.61-1.28,0-1.28Zm-1.52-2.56v-.64l.91-.96-.91,1.6Zm.91,2.56c0,.96-.91.96-.91,0,0-.64.91-.64.91,0Zm-.91-7.37c.91,0,.91.64,0,.64s-.91-.64,0-.64Zm-1.52,7.37c0,.96-.91.96-.91,0,0-.64.91-.64.91,0Zm0,8.01c-.91,0-.91-1.6,0-1.6-.91,0-.91-1.28,0-1.28.61,0,.61,1.28,0,1.28.61,0,.61,1.6,0,1.6Zm0,15.38c-.91,0-.91-1.6,0-1.6.61,0,.61,1.6,0,1.6Zm-2.43-23.39v-.64c0-.96,0-1.92.61-2.56l.91.64c-1.52.96,0,1.92-1.52,2.56Zm-3.95-16.02c.32,0,.46.52.45,1.01.05-.03.1-.05.16-.05.91,0,.91,1.6,0,1.6-.28,0-.42-.34-.45-.71-.05.04-.1.07-.16.07-.91,0-.91-1.92,0-1.92Zm-7.29,6.09c-.91,0-.91-1.92,0-1.92s.91,1.92,0,1.92Zm1.52,4.81h-.61l.61-.64v.64Zm-.61-2.24v-1.92l.61,1.92h-.61Zm2.43,7.37c-.91,0-.91-1.6,0-1.6.61,0,.61,1.6,0,1.6Zm.61-7.37v-.96c0,.96,1.52.96,2.43.96l-1.52,2.24c-.91,0-.91-1.6-.91-2.24Zm1.52,9.93c.91,0,.91,1.28,0,1.28-.61,0-.61-1.28,0-1.28Zm.91,3.52l-.91,1.6v-1.28c0-.32,0-1.28.91-1.28v.96Zm0-8.65v-.64l.91-.96-.91,1.6Zm2.43-7.37h.91l.61.64,1.52-.64v1.6c0,3.2-3.04,2.56-3.04,5.13v-4.16l-1.52.64,1.52-3.2Zm-.91,22.75c-.61,0,.91-2.24.91-1.28q0,1.28-.91,1.28Zm1.82.32c-.91,0-.91-.32,0-.32.61,0,.61.32,0,.32Zm-.91-10.57h-.91v-4.17h.91s.91,2.88,1.52,5.13c0,.32.91,2.88.91,2.88l-.91,1.28-1.52-5.13Zm2.43,18.26c-.91,0-.91-1.6,0-1.6.61,0,.61,1.6,0,1.6Zm0-2.56c-.91,0-.91-1.6,0-1.6.61,0,.61,1.6,0,1.6Zm.61-7.69c.91,0,.91,2.24,0,2.24-.61,0-.61-2.24,0-2.24Zm.91,10.25c.91,0,.91.96,0,.96s-.91-.96,0-.96Zm1.52,6.73l-1.52-.96.91-1.6c.61,0,.61.96.61,1.6v.96Zm0-7.69c-.61,0-.61-1.6,0-1.6-.61,0-.61-1.6,0-1.6.91,0,.91,1.6,0,1.6.91,0,.91,1.6,0,1.6Zm-.61-18.58h1.52c.91,0,.91,5.13.91,6.41-.91,0-2.43-5.13-2.43-6.41Zm2.43,16.98c.61,0,.61,2.56,0,2.56-.91,0-.91-2.56,0-2.56Zm.61,16.02c-.61,0-.61-.96,0-.96.91,0,.91.96,0,.96Zm.91-7.69c-.91,0-.91-1.6,0-1.6-.91,0-.91-1.6,0-1.6.3,0,.3,1.6,0,1.6.3,0,.3,1.6,0,1.6Zm.3-15.06c1.21,0,1.21,1.6,0,1.6-.3,0-.3-1.6,0-1.6Zm1.21,16.98c.91,0,.91,1.6,0,1.6-1.21,0-1.21-1.6,0-1.6Zm.91,17.62c-.91,0-.91-2.24,0-2.24.3,0,.3,2.24,0,2.24Zm.3-12.81h-.3l.3-.64v.64Zm1.21,2.56c.91,0,.91,1.28,0,1.28-1.21,0-1.21-1.28,0-1.28Zm.91,16.66c-.91,0-.91-1.92,0-1.92.3,0,.3,1.92,0,1.92Zm.3-27.55l-.3-.96c0-.64-2.13-4.16-2.13-4.81v-.96l1.21.96c0,.64,1.22,4.17,1.22,4.81v.96Zm1.52-8.33h-.3c-1.21,0-1.52-6.09-1.52-6.09v-.32l1.52-2.24c.3,3.52,5.17,0,6.08,2.56l-3.34,2.24v.32c2.13,0,2.13.96,2.13,3.52h-1.21c0,1.6,3.95,4.17,6.38,4.17,0,1.6-2.43,1.6-3.34,1.6v-.64l-1.52.64c.91,1.6,3.34,1.6,4.86,2.56-1.52,1.6-4.86,0-3.95,3.52-1.22-2.56-1.22-8.65-4.86-8.65h-.91l-1.52.96c1.21-1.6,2.43-2.56,2.43-4.17v-.96l-.91.96Zm.91,11.85h1.52l-.3,1.6c-1.22,0-1.22-.96-1.22-1.6Zm1.52,7.37v1.28l-.3-.32.3-.96Zm-2.43-12.49c-.3,0-.3-1.6,0-1.6.91,0,.91,1.6,0,1.6Zm0,23.07c-.3,0-.3-1.6,0-1.6.91,0,.91,1.6,0,1.6Zm-.3-17.94c-1.21,0-1.21-1.92,0-1.92.3,0,.3,1.92,0,1.92Zm0,15.38c.3,0,.3.96,0,.96-1.21,0-1.21-.96,0-.96Zm.3,9.29c.91,0,.91,1.92,0,1.92-.3,0-.3-1.92,0-1.92Zm.91,2.56c1.22,0,1.22,1.6,0,1.6-.91,0-.91-1.6,0-1.6Zm1.22,4.16c.3,0,.3,1.92,0,1.92-1.22,0-1.22-1.92,0-1.92Zm.3,3.52c-.3,0-.3-1.6,0-1.6.91,0,.91,1.6,0,1.6Zm0-30.11c-.3,0-.3-.64,0-.64.91,0,.91.64,0,.64Zm0-9.93c-.3,0-.3-.96,0-.96.91,0,.91.96,0,.96Z"/><path class="cls-1" d="m118.99,387.64c-.91,0-.91,2.24,0,2.24.61,0,.61-2.24,0-2.24Z"/><path class="cls-1" d="m353.51,356.56c-1.21,0-1.21,1.6,0,1.6.3,0,.3-1.6,0-1.6Z"/><path class="cls-1" d="m119.59,390.2c-.61,0-.61,1.6,0,1.6.91,0,.91-1.6,0-1.6Z"/><path class="cls-1" d="m109.26,389.88c-.3,0-.3,1.6,0,1.6,1.22,0,1.22-1.6,0-1.6Z"/><path class="cls-1" d="m448.3,374.82c.3,0,.3-1.92,0-1.92-1.22,0-1.22,1.92,0,1.92Z"/><path class="cls-1" d="m158.48,369.7c0-.96-1.52-.96-1.52,0,0,.64,1.52.64,1.52,0Z"/><path class="cls-1" d="m157.57,368.74c.91,0,.91-1.6,0-1.6-.61,0-.61,1.6,0,1.6Z"/><path class="cls-1" d="m160,372.9c0-.96-1.52-.96-1.52,0s1.52.96,1.52,0Z"/><path class="cls-1" d="m154.53,368.74c.61,0,.61-1.6,0-1.6-.91,0-.91,1.6,0,1.6Z"/><path class="cls-1" d="m160.91,367.13c-.91,0-.91,1.6,0,1.6.61,0,.61-1.6,0-1.6Z"/><path class="cls-1" d="m113.21,383.15h-.3c-1.21,0-2.43.64-3.65.64h3.95v-.64Z"/><path class="cls-1" d="m160,369.7c0,.64.91.64.91,0,0-.96-.91-.96-.91,0Z"/><path class="cls-1" d="m163.34,371.3c0-.96,0-1.6-.91-1.6l-.91.64c0,.96.91.96,1.82.96Z"/><path class="cls-1" d="m163.34,367.13c0,.64,1.52.64,1.52,0,0-.96-1.52-.96-1.52,0Z"/><path class="cls-1" d="m103.19,375.46c-.61,0-.61,1.6,0,1.6.91,0,.91-1.6,0-1.6Z"/><path class="cls-1" d="m64.3,375.46c.91,0,.91-1.6,0-1.6-.61,0-.61,1.6,0,1.6Z"/><path class="cls-1" d="m60.35,364.57h-.61c-1.82,0-3.34.64-3.34,2.56v.64l3.34-.64h-2.43c.61-.96,2.43-1.92,3.04-2.56Z"/><path class="cls-1" d="m62.78,365.21c.91,0,.91-1.6,0-1.6-.61,0-.61,1.6,0,1.6Z"/><path class="cls-1" d="m444.65,360.73c1.21,0,1.21-1.6,0-1.6-.3,0-.3,1.6,0,1.6Z"/><polygon class="cls-1" points="445.87 355.6 444.65 356.88 444.65 358.16 445.87 358.16 445.87 355.6"/><path class="cls-1" d="m113.21,378.67c-.3,0-.3,1.92,0,1.92.91,0,.91-1.92,0-1.92Z"/><path class="cls-1" d="m113.21,375.46c-.3,0-.3,1.6,0,1.6.91,0,.91-1.6,0-1.6Z"/><path class="cls-1" d="m68.55,374.5c.61,0,.61-1.6,0-1.6-.91,0-.91,1.6,0,1.6Z"/><path class="cls-1" d="m87.39,378.03c.61,0,.61-1.6,0-1.6-.91,0-.91,1.6,0,1.6Z"/><path class="cls-1" d="m89.52,378.03c.91,0,.91-1.6,0-1.6-.61,0-.61,1.6,0,1.6Z"/><path class="cls-1" d="m72.5,378.67c.3,0,.3-1.6,0-1.6-.91,0-.91,1.6,0,1.6Z"/></svg>